<svg xmlns="http://www.w3.org/2000/svg" preserveAspectRatio="xMinYMin meet" class="svg-content" viewBox="0 0 132.31 46.14"><path fill="#f89c0e" d="M14.17 18.6c-.83.4-1.98.8-3.46 1.15l-2.02.44c-1.07.3-1.83.67-2.3 1.14-.42.65-.62 1.3-.62 1.95 0 .88.26 1.58.8 2.1.52.5 1.3.72 2.3.72 1.64 0 2.94-.47 3.9-1.4.93-.96 1.4-2.25 1.4-3.9V18.6zm1.4 10.9c-1.23.64-2.54 1.04-3.93 1.18-1.38.15-2.6.23-3.67.23-2.13 0-3.98-.57-5.58-1.72S0 26.13 0 23.48c0-2.5.72-4.27 2.17-5.33 1.45-1.06 3.3-1.77 5.53-2.12.3 0 .65-.04 1.07-.14.4-.1.88-.17 1.4-.23 2.6-.35 3.9-1.12 3.9-2.3 0-.88-.45-1.46-1.36-1.72-.9-.27-1.75-.4-2.52-.4-.82 0-1.56.1-2.2.35-.66.24-1.13.68-1.43 1.33H.63C.86 11.1 1.68 9.6 3.1 8.4 4.7 7.07 6.97 6.4 9.92 6.4c3.3 0 5.78.56 7.43 1.68 1.72 1.18 2.57 2.84 2.57 4.96v8.06c0 2.36-.43 4.2-1.28 5.53-.86 1.34-1.88 2.3-3.05 2.9M37.92 18.77c0-2.3-.45-4.07-1.33-5.3-.9-1.25-2.17-1.87-3.82-1.87-1.6 0-2.83.62-3.72 1.86-.82 1.12-1.24 2.9-1.24 5.3 0 2.26.45 3.94 1.33 5.06.9 1.24 2.16 1.86 3.8 1.86 1.54 0 2.75-.62 3.64-1.86.87-1.24 1.32-2.92 1.32-5.05m-10.1 17.36c0 .82-.3 1.53-.88 2.12-.6.6-1.3.9-2.13.9h-3V17.1c0-4.14 1.2-6.96 3.63-8.46 2.42-1.5 5.05-2.26 7.88-2.26 1.5 0 2.98.28 4.48.84 1.5.56 2.7 1.38 3.6 2.43 1.76 2.3 2.65 5.26 2.65 8.86 0 3.73-.9 6.74-2.66 9.04-1.77 2.25-4.04 3.37-6.82 3.37-1.47 0-2.77-.26-3.9-.8-1.17-.58-2.12-1.5-2.83-2.74v8.77z"/><path fill="#f89c0e" d="M27.8 32.5v8.78c0 .82-.3 1.53-.89 2.12-.58.6-1.28.9-2.1.9h-3.02V22.23M49.58 30.46V12.33h-3.3V8.16h3.3C49.58 2.72 52.75 0 59.1 0v4.76c-.76 0-1.37.05-1.84.16-.47.1-.84.3-1.1.56-.28.28-.47.63-.58 1.07-.1.44-.15.98-.15 1.6h3.8v4.18h-3.8v18.13h-5.85zM70.6 26.1c3.6 0 5.4-2.26 5.4-6.8 0-4.5-1.8-6.74-5.4-6.74-3.58 0-5.38 2.25-5.38 6.75 0 4.54 1.8 6.8 5.4 6.8m-.03 4.95c-1.82 0-3.44-.3-4.85-.86-1.42-.58-2.62-1.4-3.6-2.42-.98-1.03-1.73-2.27-2.24-3.72-.5-1.45-.76-3.05-.76-4.77 0-1.77.27-3.37.8-4.83.52-1.45 1.28-2.7 2.28-3.72 1-1.03 2.2-1.82 3.6-2.38 1.4-.56 3-.84 4.77-.84 1.73 0 3.3.27 4.7.83 1.38.57 2.56 1.35 3.55 2.37.97 1 1.73 2.25 2.26 3.7.54 1.45.8 3.07.8 4.86 0 1.77-.27 3.4-.8 4.83-.52 1.43-1.28 2.67-2.25 3.7-1 1.03-2.18 1.82-3.58 2.38-1.4.57-2.96.85-4.68.85M84.84 30.46V8.16h5.53v2.65c.5-.75 1-1.34 1.52-1.76.52-.43 1.06-.76 1.62-1 .56-.22 1.13-.36 1.7-.42.58-.06 1.17-.1 1.77-.1h.76v6.08c-.54-.1-1.08-.14-1.63-.14-3.6 0-5.4 1.8-5.4 5.4v11.6h-5.9zM126.28 30.46v-13.5c0-1.37-.32-2.47-.96-3.32-.63-.84-1.48-1.26-2.53-1.26-1.1 0-2 .45-2.7 1.36-.72.9-1.08 2.04-1.08 3.4v13.32h-5.9V17.04c0-.9-.05-1.64-.17-2.2-.12-.6-.33-1.04-.6-1.38-.3-.33-.67-.56-1.12-.7-.46-.14-1-.2-1.64-.2-2.4 0-3.6 1.45-3.6 4.35v13.56h-5.88V8.16h5.53v3.25c.75-1.48 1.66-2.5 2.72-3.05 1.06-.55 2.33-.82 3.8-.82.76 0 1.43.06 2.03.18.58.13 1.1.34 1.58.63.47.28.92.66 1.34 1.1.42.47.85 1.02 1.27 1.66.6-1.26 1.4-2.17 2.4-2.73 1-.57 2.2-.85 3.62-.85 1.12 0 2.15.2 3.08.57.94.37 1.74.9 2.4 1.58.67.68 1.2 1.48 1.57 2.4.37.9.56 1.86.56 2.9v15.48h-5.75z"/><path fill="#00adef" d="M33.4 38.87c.5 0 .83-.1 1-.3.2-.2.3-.55.3-1.06 0-.5-.1-.9-.28-1.13-.18-.24-.46-.36-.85-.36h-.17v2.87zm-1.17-3.85h1.55c.74 0 1.3.2 1.63.56.34.38.5 1 .5 1.8 0 1.17-.33 1.92-1 2.26-.35.16-.85.23-1.5.23v3.88h-1.17v-8.73zM38.9 40.84c0-.77-.04-1.3-.14-1.6-.1-.3-.28-.46-.54-.46s-.44.15-.55.45c-.1.3-.15.83-.15 1.58 0 .76.05 1.28.15 1.58.1.3.3.45.55.45.26 0 .43-.15.54-.45.1-.27.15-.8.15-1.54m1.13.03c0 1.98-.6 2.97-1.83 2.97s-1.84-1-1.84-3.02c0-2 .6-3.02 1.83-3.02.3 0 .58.06.8.18.25.12.44.3.6.56.14.25.25.57.33.95.07.38.1.84.1 1.37M41 37.9h1.07v3.9c0 .37.06.63.17.78.1.16.26.23.5.23s.4-.05.5-.2c.1-.14.16-.38.16-.74V37.9h1.08v3.5c0 .8-.06 1.36-.18 1.63-.26.54-.78.8-1.58.8-.62 0-1.07-.15-1.33-.47-.27-.32-.4-.85-.4-1.6V37.9zM45.65 37.9h1.08v.73c.2-.3.37-.53.55-.66.18-.12.42-.2.72-.2v1.12l-.2-.03c-.38 0-.66.1-.82.3-.17.2-.25.54-.25 1.03v3.55h-1.08V37.9zM51.05 34.14h1.08v9.6h-1.08v-9.6zM54 34.74l.94.28-1.12 3.07-.6-.18.78-3.18zM58.14 40.25c-.04-.6-.1-1.02-.2-1.2-.1-.22-.26-.33-.48-.33-.22 0-.38.1-.48.32-.1.2-.16.6-.2 1.2h1.36zm.06 1.52h1c-.07 1.38-.64 2.07-1.7 2.07-.3 0-.57-.06-.8-.18-.22-.1-.4-.3-.55-.54-.15-.25-.26-.56-.33-.93-.07-.4-.1-.84-.1-1.36 0-1.03.14-1.8.43-2.3.3-.5.73-.74 1.34-.74 1.16 0 1.74 1.03 1.74 3.1v.13h-2.47c0 1.26.25 1.88.75 1.88.45 0 .68-.37.68-1.12M60.16 37.9h1.08v.67c.3-.5.7-.77 1.2-.77.47 0 .8.2 1.02.56.1.2.17.62.17 1.23v4.15h-1.1v-3.92c0-.4-.04-.67-.13-.84-.1-.17-.26-.26-.5-.26-.1 0-.22.03-.3.07-.1.05-.16.12-.2.22-.06.1-.1.22-.12.37-.03.15-.04.34-.04.56v3.8h-1.08V37.9zM64.93 36.26H66v1.64h.6v.86H66v5h-1.07v-5h-.6v-.86h.6v-1.64zM67.33 37.9h1.08v.73c.2-.3.37-.53.55-.66.2-.12.43-.2.72-.2v1.12l-.2-.03c-.38 0-.65.1-.82.3-.16.2-.24.54-.24 1.03v3.55h-1.07V37.9zM72.6 40.25c-.03-.6-.1-1.02-.2-1.2-.1-.22-.25-.33-.47-.33-.23 0-.38.1-.48.32-.1.2-.16.6-.2 1.2h1.36zm.07 1.52h1c-.07 1.38-.64 2.07-1.7 2.07-.3 0-.57-.06-.8-.18-.22-.1-.4-.3-.55-.54-.15-.25-.26-.56-.33-.93-.08-.4-.1-.84-.1-1.36 0-1.03.13-1.8.42-2.3.3-.5.73-.74 1.34-.74 1.17 0 1.75 1.03 1.75 3.1v.13h-2.46c0 1.26.25 1.88.75 1.88.44 0 .67-.37.67-1.12M77.07 40.85c0-.8-.05-1.33-.16-1.62-.1-.3-.27-.45-.53-.45-.25 0-.43.15-.54.47-.1.3-.15.82-.15 1.57 0 .75.05 1.28.15 1.57.1.3.3.46.54.46.25 0 .43-.15.54-.45.12-.27.17-.8.17-1.55m-2.44 5.3v-8.26h1.08v.75c.16-.32.32-.54.47-.66.16-.14.37-.2.63-.2.48 0 .83.25 1.06.75.22.5.33 1.28.33 2.34 0 1.03-.12 1.78-.35 2.23-.23.47-.6.7-1.1.7-.24 0-.43-.05-.6-.16-.06-.05-.14-.13-.2-.22-.1-.1-.17-.22-.24-.36v3.04h-1.07zM79.15 37.9h1.08v.73c.18-.3.37-.53.55-.66.18-.12.42-.2.72-.2v1.12l-.2-.03c-.38 0-.66.1-.83.3-.16.2-.24.54-.24 1.03v3.55h-1.08V37.9zM82.22 37.9h1.1v5.85h-1.1V37.9zm.5-2.5c.2 0 .37.08.52.22.14.15.2.32.2.52s-.06.37-.2.52c-.15.14-.32.2-.52.2s-.38-.06-.52-.2-.2-.32-.2-.53c0-.2.06-.36.2-.5.16-.15.33-.22.53-.22M86.73 38.02v1c-.26-.18-.54-.28-.83-.28-.1 0-.18 0-.27.05-.08.02-.15.07-.2.13-.08.05-.13.12-.16.2-.04.1-.05.17-.05.26 0 .27.25.6.75 1 .2.14.38.3.5.43.15.13.25.26.32.38.14.25.2.55.2.9 0 .53-.14.95-.44 1.27-.3.3-.7.47-1.22.47-.3 0-.63-.1-.95-.28V42.5c.3.24.6.36.88.36.5 0 .74-.25.74-.73 0-.18-.05-.34-.14-.47l-.2-.22-.33-.3c-.45-.34-.76-.64-.93-.88-.16-.25-.23-.55-.23-.9 0-.47.13-.85.42-1.15.3-.3.68-.44 1.15-.44.33 0 .65.08.97.26M90.04 40.25c-.05-.6-.12-1.02-.2-1.2-.1-.22-.27-.33-.5-.33-.2 0-.37.1-.46.32-.1.2-.17.6-.2 1.2h1.35zm.05 1.52h1c-.08 1.38-.65 2.07-1.7 2.07-.3 0-.58-.06-.8-.18-.23-.1-.4-.3-.56-.54-.15-.25-.25-.56-.32-.93-.07-.4-.1-.84-.1-1.36 0-1.03.14-1.8.42-2.3.3-.5.74-.74 1.34-.74 1.17 0 1.76 1.03 1.76 3.1v.13h-2.47c0 1.26.25 1.88.74 1.88.47 0 .7-.37.7-1.12M93.84 37.9H95l.42 1.85c.1.38.16.78.22 1.2.07.4.1.88.15 1.37l.03-.2.13-.87c.04-.33.14-.83.28-1.5l.4-1.86h1.04l-1.53 5.85h-.73l-1.58-5.86zM100.97 35.47l-1.15 1.56-.58-.34.95-1.73.77.5zm-.54 4.8c-.05-.63-.12-1.04-.2-1.23-.1-.2-.27-.32-.5-.32-.2 0-.37.1-.46.32-.1.2-.17.6-.2 1.22h1.36zm.05 1.5h1c-.07 1.38-.64 2.07-1.7 2.07-.3 0-.57-.06-.8-.18-.22-.1-.4-.3-.55-.54-.14-.24-.25-.56-.32-.93s-.1-.84-.1-1.36c0-1.03.15-1.8.44-2.3.28-.5.73-.74 1.33-.74 1.18 0 1.76 1.03 1.76 3.1v.14h-2.47c0 1.25.25 1.87.74 1.87.46 0 .68-.37.68-1.12M102.57 36.26h1.08v1.64h.6v.86h-.6v5h-1.08v-5h-.6v-.86h.6v-1.64zM107.7 35.47l-1.14 1.56-.58-.34.95-1.73.78.5zm-.54 4.8c-.04-.63-.1-1.04-.2-1.23-.1-.2-.26-.32-.48-.32-.22 0-.38.1-.47.32-.1.2-.16.6-.2 1.22h1.36zm.06 1.5h1c-.07 1.38-.64 2.07-1.7 2.07-.3 0-.57-.06-.8-.18-.22-.1-.4-.3-.55-.54-.15-.24-.26-.56-.33-.93-.07-.4-.1-.84-.1-1.36 0-1.03.14-1.8.43-2.3.3-.5.74-.74 1.34-.74 1.18 0 1.77 1.03 1.77 3.1v.14h-2.47c0 1.25.25 1.87.74 1.87.46 0 .68-.37.68-1.12M109.18 37.9h1.08v.73c.18-.3.37-.53.55-.66.2-.12.43-.2.73-.2v1.12l-.2-.03c-.38 0-.66.1-.83.3-.16.2-.24.54-.24 1.03v3.55h-1.08V37.9zM112.25 37.9h1.08v5.85h-1.08V37.9zm.5-2.5c.2 0 .37.08.52.22.14.15.2.32.2.52s-.06.37-.2.52c-.15.14-.32.2-.52.2s-.38-.06-.52-.2-.2-.32-.2-.53c0-.2.06-.36.2-.5.16-.15.33-.22.53-.22M114.5 37.9h1.08v.67c.3-.5.7-.77 1.2-.77.48 0 .82.2 1.02.56.1.2.17.62.17 1.23v4.15h-1.08l-.02-3.92c0-.4-.04-.67-.14-.84-.1-.17-.25-.26-.48-.26-.13 0-.24.03-.32.07-.08.05-.15.12-.2.22-.06.1-.1.22-.12.37-.03.15-.04.34-.04.56v3.8h-1.08V37.9zM120.04 40.8c0 .76.06 1.3.16 1.6.1.3.3.46.55.46.24 0 .42-.15.53-.47.1-.35.16-.87.16-1.58 0-.7-.05-1.23-.16-1.57-.1-.3-.3-.47-.53-.47-.25 0-.44.15-.55.45-.1.28-.16.8-.16 1.57m2.45-2.9v5.85h-1.1V43c-.15.32-.3.54-.46.66-.15.12-.35.18-.6.18-.5 0-.85-.25-1.08-.75-.22-.5-.34-1.3-.34-2.35 0-1 .12-1.76.34-2.23.23-.48.6-.72 1.07-.72.45 0 .8.25 1.08.76v-.66h1.1zM123.67 37.9h1.08v5.85h-1.08V37.9zm.5-2.5c.2 0 .37.08.52.22.13.15.2.32.2.52s-.07.37-.22.52c-.14.14-.3.2-.52.2-.2 0-.37-.06-.5-.2-.15-.14-.22-.32-.22-.53 0-.2.07-.36.2-.5.17-.15.34-.22.54-.22M125.92 37.9H127v.73c.2-.3.37-.53.55-.66.18-.12.42-.2.72-.2v1.12l-.2-.03c-.4 0-.66.1-.83.3-.16.2-.24.54-.24 1.03v3.55h-1.08V37.9zM131.2 40.25c-.04-.6-.1-1.02-.2-1.2-.1-.22-.26-.33-.48-.33-.22 0-.38.1-.47.32-.1.2-.17.6-.2 1.2h1.36zm.06 1.52h1c-.07 1.38-.64 2.07-1.7 2.07-.3 0-.57-.06-.8-.18-.22-.1-.4-.3-.55-.54-.14-.25-.25-.56-.32-.93-.07-.4-.1-.84-.1-1.36 0-1.03.14-1.8.43-2.3.3-.5.75-.74 1.35-.74 1.17 0 1.76 1.03 1.76 3.1v.13h-2.46c0 1.26.25 1.88.74 1.88.46 0 .68-.37.68-1.12"/></svg>
