<svg xmlns="http://www.w3.org/2000/svg" preserveAspectRatio="xMinYMin meet" class="svg-content" viewBox="0 0 260 260"><path fill="#e7007e" fill-opacity=".94" d="M130.5 259c-52.4 2.33-100.8-34.62-119.92-82.18-12.16-28.58-12.7-61.55-1.65-90.55C26.75 30.97 87-3.5 143.67 1.47c32.48 2.26 62.6 19.5 84.34 43.17 44.14 50.16 41.2 135.84-9.73 180.32-24.03 21.4-55.44 34.27-87.77 34.04zm0-10.75c50.45 2.23 96.6-35.08 112.37-81.77 9.4-25.77 7.96-54.56-2.08-79.92C218.53 24.9 138.95-6.02 80.35 22.36 54.4 35.2 31.9 56.43 21.58 83.92c-19.02 46.7-7.25 106.6 33.98 137.65 21 17.08 47.86 26.8 74.94 26.7zm0-29.17L47.2 74.78l83.3 44.86 83.3-44.86-83.3 144.3z"/></svg>
