<svg xmlns="http://www.w3.org/2000/svg" preserveAspectRatio="xMinYMin meet" class="svg-content" viewBox="0 0 400 147.77"><g transform="matrix(.1 0 0 .1 2 1.202)"><path fill="#eb1d47" d="M1358.64 448.3c16.7 33.9 29 69.4 39 105.8 11.8 43 19.1 86.8 22.1 131.3.1 1.4-.5 3.2 1.6 3.9v20.3c-1.3 3.1-1.3 6.3 0 9.4v23.5c-1.3 3.7-1.3 7.3 0 11v21.9c-1.9 11.5-1.1 23.1-2.4 34.6-2 17.4-3.6 35-8.6 51.9-5.5 6-13.4 7.9-20.4 10.9-70.1 30.3-139.9 61.2-209.7 92.2-65.9 29.4-132 58.5-197.5 88.7-65.6 30.2-131.2 60.3-196.7 90.7-56.8 26.3-113.4 52.8-170 79.5-43.6 20.6-87.2 41.2-130.6 62.1-20 9.6-39.1 20.7-59.6 29.3-3.3 1.4-6.3 3.7-10.3 3-28.3-14.8-54.3-33.1-79.7-52.3-3.5-2.6-6.7-5.6-10.1-8.4-.6-4 2.7-5.3 5-7.2 25.5-21.5 51.9-41.9 77.9-62.8 47.5-38.2 94.7-76.8 142.4-114.7 34.1-27.1 68.2-54 102.2-81.2 71.2-56.9 143.6-112.4 215.4-168.7 44.1-34.6 88.3-69 132.8-103 74.6-56.9 149.2-113.7 223.1-171.5 42.1-32.9 84.8-65 127-97.7 2.1-1.7 4.1-3.5 7.1-2.5z"/><path fill="#ab2222" d="M1259.24 1169.5c-26.4 32.1-56.4 60.6-88.7 86.6-90.5 73-193.2 119.5-307.7 139.8-22.8 4-45.8 6.7-69 8.3-1.6.1-3.8-.8-4.7 1.6h-6.3c-2.1-1.2-4.2-1.2-6.3 0h-11c-4.7-1.3-9.4-1.3-14.1 0h-12.5c-3.5-1.7-7.2-.4-10.8-.8-3.2.4-6.5-.9-9.5.8h-15.6c-6.7-3.1-14-2.4-21-3.1-59-5.9-116.3-18.6-171.8-39.8 1.5-4.2 5.6-4.3 8.9-5.3 47.6-13.8 95.3-26.7 143.1-39.6 115.2-31 230.6-61.6 346.4-90.5 79.1-19.7 158.3-39.3 237.6-58.3 4.5-1 8.9-3 13 .3z"/><path fill="#b43737" d="M751.74 1405.9c4.7-2.4 9.4-2.6 14.1 0h-14.1z"/><path fill="#ed3b5f" d="M1421.34 753.5c-2.5-3.7-2.4-7.3 0-11v11z"/><path fill="#b33737" d="M728.14 1404.4c3.7.4 7.7-1.5 11.1 1.5h-11c-.5-.3-.7-.6-.5-.9.1-.4.2-.6.4-.6z"/><path fill="#ed3b5f" d="M1421.34 719.1c-2.3-3.1-2.4-6.3 0-9.4v9.4z"/><path fill="#c25d5d" d="M728.14 1404.4c.1.5.1 1 .1 1.5h-9.4c2.7-3.1 6.2-1 9.3-1.5z"/><path fill="#d69494" d="M776.74 1405.9c2.1-2.2 4.2-2.6 6.3 0h-6.3z"/><path fill="#f27220" d="M1358.64 448.3c-18.2 13.8-36.5 27.5-54.6 41.5-49.4 38-98.7 76.2-148.2 114.1-55.4 42.5-111.2 84.7-166.5 127.4-54.3 41.9-108.3 84.2-162.4 126.3-54.9 42.8-110.2 85.2-164.4 128.7-43.8 35.1-88 69.7-131.7 104.9-45.3 36.5-90.3 73.4-136 109.4-22.2 17.5-44.1 35.5-66.1 53.4-1.2 1-2.1 2.3-3.1 3.5-27-20.3-51.1-43.8-74.1-68.5-7.6-8.1-14.6-16.8-21.8-25.3.8-6.5 5.3-11.2 8.5-16.5 28.1-48.2 60.4-93.8 89.2-141.6 32.4-53.8 67.8-105.7 100.5-159.4 11.9-19.6 23.6-39.4 36.2-58.5 35-53 65.6-108.9 101.9-161.2 16.5-23.7 30-49.5 45.9-73.6 21.5-32.6 42.4-65.7 63.6-98.5 37.9-58.7 74.4-118.2 113.5-176.1 28-41.5 54.3-84 81.6-126 15.5-23.8 32.3-46.7 48.4-70.1.6-.9 1.4-1.5 2.6-1.5 26.6 5.6 52 14.8 77 25.1 161.9 67 281.1 179.4 358 336.7.6 1.9 1.2 3.9 2 5.8z"/><path fill="#c51087" d="M921.44 80.7c-10.1 17.7-22.4 33.9-34.1 50.4-23.9 33.9-44.5 69.8-67.5 104.3-16.8 25.1-34 50-50.4 75.4-40 62.2-79.4 124.8-119.3 187.1-18.4 28.7-37.7 56.9-55.5 86-37.9 62-77.8 122.7-116 184.5-44 71.3-89.2 142-133.9 213-36.5 58-74.4 115-109.4 173.9-1.7 2.9-3.8 5.6-5.7 8.4-27.8-32.5-51.8-67.5-72.2-105-.7-5.6 1.5-10.8 3-16 11.9-41.8 21-84.4 33.1-126.2 7.2-24.6 11.5-49.7 18.1-74.4 19.5-73 35.7-146.8 51.7-220.6 9.8-45 19.5-90.1 27.9-135.4 7.3-38.9 15.4-77.6 23.3-116.4 8-39.3 15.3-78.7 21.9-118.3 3.2-19 8.1-37.7 10.2-56.9.3-2.6 1.4-5 2.9-7.2 38.3-29.1 79.9-52.6 123.8-72.1 68.3-30.4 139.8-48.6 214.4-55.2 78.1-6.9 155-.2 230.8 19.4 1.1.2 2 .9 2.9 1.3z"/><path fill="#e5007e" d="M1259.24 1169.5c-18.4 2.1-36 7.7-53.9 12-58.6 14.1-117 28.7-175.5 43.2-109.1 27.1-218 55.4-326.5 84.9l-187.2 51c-2 .5-3.8 1.6-5.8 2.3-33-12.2-64.9-26.6-95-44.7 47.9-23.4 95.7-47.2 143.8-70.3 40.8-19.6 81.9-38.5 123-57.7 46.2-21.6 92.4-43.1 138.7-64.6 46.3-21.4 92.5-42.9 138.9-64 59-26.7 118.1-53 177.2-79.4 49.4-22.1 98.7-44.3 148.2-66.1 40.9-18 82-35.6 123-53.3-19 97.8-58.6 186.6-117.3 267-9.8 13.8-19.9 27.4-31.6 39.7z"/><path fill="#ab2222" d="M349.74 187.3c-1.9 19.1-5.8 37.9-9.4 56.8-7.7 40-14.3 80.2-22 120.2-4.8 24.7-12.6 48.9-16.1 73.8-7.4 53.3-22 105.1-31.2 158.1-7.3 41.9-18.6 83-27.6 124.7-13.2 61.7-29.5 122.7-44.4 183.9-10.3 42.3-21.6 84.5-32.9 126.6-2.4 9.2-4.3 18.7-8.6 27.4-27-47.2-46.9-97.3-61.2-149.7-20.4-74.8-28.3-151-21.6-228.2 16.6-192.6 100.1-350.4 248.9-473.7 8.3-7.2 16.8-14.2 26.1-19.9z"/><path fill="#fff" stroke="#fff" stroke-width="8" stroke-miterlimit="10" d="M233.04 991.2c-2.3-73.2-2.9-145.9-1.8-218.1 1.2-72.2 4.4-144.8 9.8-217.8 2.4-35.4 5.9-70.6 10.3-105.7 4.5-35 10.5-69.9 18-104.5 4.1-17 8.6-34 13.5-51 4.8-17 11-33.5 18.4-49.4 5.8-12.9 13.2-25.7 22.1-38.4 9-12.7 20.3-22.3 33.9-28.8 7.2-3.4 14.2-4.5 20.9-3.4 6.7 1.1 12.8 3.7 18.5 7.6 5.6 3.9 10.9 8.6 15.7 14.1 4.8 5.5 9.1 11 12.8 16.7 9.8 14.7 18.3 30.2 25.6 46.3 7.3 16.2 13.6 32.8 19 49.7 11.4 34.1 20.6 69 27.6 104.7s13.2 71.3 18.5 107c5.3 35.6 9.9 71.1 13.6 106.4 3.8 35.3 7 71.1 9.7 107.3 1 17.8 2.1 35.6 3.4 53.5 1.3 17.9 1.5 35.9.6 53.9-.1 8.1-.6 16-1.6 23.6-1 7.6-2.3 15.3-3.9 23.1-.7 4.1-1.9 8.5-3.6 13.3-1.7 4.7-5 7.4-10 8-3.6.5-6.6-.3-8.9-2.5-2.3-2.2-4.2-4.8-5.7-7.8s-2.6-6.2-3.6-9.7c-.9-3.5-1.7-6.5-2.3-9.1-2.5-8.6-4.7-17.1-6.5-25.7-1.8-8.6-3.3-17.4-4.6-26.5-2.4-17.7-4.3-35.4-5.8-53.3-1.5-17.8-3.2-35.7-5.1-53.5-1.4-15.2-2.9-30.4-4.4-45.6-1.6-15.1-3.3-30.5-5.3-45.9-20.9 13.3-42.2 25.9-63.9 38-21.7 12.1-43.3 24.5-65 37.1-13.6 7.9-27.3 15.6-41.2 23.1-13.9 7.6-28 15.1-42.1 22.8-1.6.7-4 2-7 3.9-3.1 2-6 3.5-8.9 4.7.1 6.2.2 12.3.2 18.2 0 6 0 11.8-.1 17.6-.3 18.3-.4 36.5-.5 54.7-.1 18.2.2 36.3.8 54.2-.3 8.7-.2 17.4.2 26.1.4 8.7.7 17.3.8 25.9-.2 2 .1 5.2.7 9.8.6 4.5 1.1 9.1 1.3 13.8.2 4.7-.2 8.9-1.3 12.7-1.1 3.8-3.1 5.6-6.1 5.3-4 .4-6.3-1.7-6.7-6.4zm14.4-244.7l39.6-24.6c5.4-3.1 10.7-6.3 16-9.3 5.2-3.1 10.5-6.2 16-9.3 12.3-7.4 24.7-14.6 37.1-21.8 12.4-7.2 24.8-14.4 37.1-21.8l38.7-21.4c6.2-3.5 12.3-6.9 18.1-10.2 5.8-3.3 11.9-6.7 18.1-10.2.4-.2.8-.4 1.1-.8.3-.4.9-.7 1.7-1.1l-12.8-109.6c-3-27.5-6.6-54.7-10.8-81.7-4.2-27-8.7-54.1-13.5-81.3-3-16.9-6.2-34.1-9.3-51.5-3.2-17.4-7.7-34.4-13.5-51.2-1.6-5.1-3.7-10.9-6.4-17.5s-6-12.8-10-18.6c-4-5.8-8.8-10.2-14.3-13.2s-11.7-3.4-18.4-1.2c-7.6 2.6-14.3 6.6-20.2 12.1-5.9 5.5-11.1 11.7-15.5 18.5-4.4 6.8-8.3 14.1-11.6 21.9-3.3 7.8-6.2 15.1-8.7 21.8-6.3 16.4-11.6 32.9-15.9 49.5-4.3 16.6-8.2 33.5-11.8 50.7-7.2 35.4-12.8 71-16.8 106.5-4 35.6-7.2 71.3-9.4 107.1-2.3 28.7-3.9 57.1-5 85.2-1 28.2-1.8 56.5-2.3 84.9.8-.3 1.4-.7 1.7-1.1.2-.3.6-.6 1-.8z"/><path fill="#fff" stroke="#fff" stroke-width="8" stroke-miterlimit="10" d="M782.04 460.3c5.5-19.6 4.8-38.4-2-56.4s-19.6-31.5-38.2-40.5c-18.3-8.5-37.6-11.4-57.8-8.6-20.3 2.8-37.4 11.5-51.5 26.1-14.1 14.6-22.7 30.4-25.7 47.5-3.1 17.1-2.4 34.2 1.9 51.2s11.2 33.6 20.5 49.8c9.4 16.2 19.6 30.8 30.6 44 29 34.7 59.8 67.6 92.4 98.6 32.6 31 63.9 63.5 93.8 97.5 29.6 33.6 56.5 69.4 80.9 107.5 24.4 38.1 40.9 79.5 49.5 124.1 8.6 44.7 5.7 87.3-8.7 128-14.5 40.7-35.9 77.8-64.4 111.5-14 16.6-29.2 32.7-45.4 48.2-16.3 15.5-33.7 29.1-52.3 41-18.6 11.8-38.1 21.5-58.4 29-20.4 7.5-42 11.5-65 12-30.4 1-58.7-3.7-84.9-14.3-26.2-10.6-50.2-25.2-72-43.9-21.8-18.7-40.7-40.6-56.7-65.8-15.9-25.1-28.5-51.7-37.7-79.7-9.2-28-14.7-56.5-16.5-85.6-1.8-29.1.7-57.2 7.8-84.3 5.1-20 12.7-39.2 22.7-57.5 10-18.3 22.1-35.1 36.3-50.5 14.2-15.4 30-28.9 47.3-40.5 17.3-11.6 35.9-20.8 55.8-27.6 19.8-6.7 40.2-9.8 61.2-9.3 21 .6 41.2 5 60.8 13.4 19.6 8.3 36.3 19.1 50.2 32.3 3.6 3 6.1 5.5 7.5 7.3 3.6 3 4 6.6 1.1 10.9-2.9 4.3-6.6 5.2-11.2 2.9-3.9-1.4-7.2-4.1-10.1-8-2.9-3.9-6-7.1-9.2-9.7-8.4-6.6-17.3-12.5-26.7-17.6-9.4-5.1-19-9.1-28.8-11.8-20.4-5.6-40.8-7.1-61.2-4.5-20.4 2.6-39.7 8.4-57.9 17.4-38.6 19.8-70 47-94.1 81.7-24.2 34.7-37.9 73.5-41.2 116.3-2.6 27.4-.6 55.3 6.1 83.7 6.6 28.4 16.7 55.6 30 81.6 13.4 26 29.9 49.8 49.7 71.4 19.7 21.7 41.7 39 65.8 52.2 24.1 13.1 50.2 21.1 78.1 24 28 2.9 56.7-1.2 86.2-12.2 19.5-7.2 38.2-17.2 56.1-30s34.4-27.2 49.6-43.2c15.1-16.1 28.7-33.3 40.8-51.6 12-18.4 22-37.2 29.9-56.4 17.6-42.7 22.1-84.4 13.5-125.1-8.6-40.8-25.2-79.8-49.7-117.1-25-37-52.7-71.4-83.1-103.2-30.4-31.9-60.7-64.4-90.7-97.7-13.5-15.6-27.5-32-42-49.4s-27.9-35.4-40.1-54c-12.3-18.6-22.7-38-31.5-58.2-8.8-20.1-14.5-40.9-17.4-62.2-2.1-18.3-1-36.6 3.3-55 4.3-18.3 11.4-34.9 21.5-49.7 10-14.8 22.8-26.9 38.1-36.4 15.4-9.5 33.1-14.5 53.2-15.1 20.1-.6 39.4 3.9 57.7 13.5 18.3 9.6 32.1 23.4 41.1 41.6 4.4 8.8 7.4 18.1 9.2 27.8 1.8 9.7 2.3 19.4 1.6 29.1-.5 3.2-.9 6.7-1.3 10.5s-2 6.7-4.7 8.8c-3.2 2.4-6.4 2.4-9.5.1-3.5-2.7-4.8-5.9-4.2-9.9z"/><path fill="#fff" d="M893.24 404.2c46.8 256.7 127.1 505 237.7 735.5M871.04 407.8c18.3 100 41.6 199.1 70.1 296.8 28.6 98.2 62 194.9 100.7 289.6 21.3 52.2 44.2 103.8 68.6 154.7 5.1 10.6 18.7 16.9 29.7 11.3 10.7-5.4 16.8-18.4 11.3-29.7-43.2-90-81.6-182.3-115.1-276.3-8.5-23.9-16.7-47.9-24.6-72.1-4-12.1-7.8-24.2-11.6-36.3l-5.4-17.4c-.9-2.9-1.8-5.8-2.6-8.7-.3-.9-1.3-4.1.1.4l-1.8-6.1c-14.4-48.3-27.6-97-39.4-146-13.5-55.4-25.3-111.2-35.5-167.3-2.1-11.6-13.8-21.1-25.8-18.6-11.8 2.3-20.9 13.3-18.7 25.7z"/><g><path fill="#fff" d="M1150.74 1134.7c-6.6-61.6-10.9-123.4-12.8-185.4-1.8-60.3-2.2-120.9 2.7-181 8.5-105.1 37.7-213.4 116.2-288.4 18.4-17.6 39-33 61.5-44.7 11.1-5.8 22.6-10.6 34.6-14.5 11.3-3.6 21.8-5.8 34.4-7.4 2.8-.3 13.1-2.2 12.7-6.4-.4-4.2-12.1-2.5-14-2.2-98.4 12.1-179.3 82.5-222.6 169.3-53.7 107.8-54.9 234.3-52.7 352.1 1.3 71.1 5.8 142.1 13.4 212.7.6 6 27.3 2.5 26.6-4.1z"/></g><ellipse cx="905.18" cy="521" fill="none" stroke="#fff" stroke-width="18" stroke-miterlimit="10" ry="720.8" rx="738.1" transform="rotate(14.489)"/><path fill="#e6007e" d="M1802.74 485c3.4 0 5.8 2.4 5.8 4.8v29.4c0 2.1-2.4 4.5-5.8 4.5h-94.9c-3.2 0-5.6-2.4-5.6-4.5V342.8c0-2.4 2.4-4.8 5.6-4.8h29.7c3.2 0 5.6 2.4 5.6 4.8V485h59.6zM2053.04 502.5h-53l-6.6 18.3v-.3c-.5 1.9-2.9 3.2-5.6 3.2h-31.6c-4.5 0-6.4-3.2-5-6.4 22.8-58.3 47.5-122 70.3-180.3 1.9-4 8.5-4 10.3 0l70.3 180.3c1.3 3.2-.8 6.4-4.8 6.4h-32.1c-2.1 0-4.5-1.3-5-3.2v.3l-7.2-18.3zm-42.4-32.1h31.8l-9.3-27.6c-2.7-8.8-4.8-16.4-6.4-25.7-1.9 9.8-4 17.8-6.6 25.7l-9.5 27.6zM2434.34 470.4c0-2.4 2.4-4.8 5.6-4.8h29.4c2.9 0 5.6 2.4 5.6 4.8.5 11.4 9.8 17.2 20.2 17.2 10.9 0 20.2-7.2 20.2-18 0-11.9-10.9-19.1-20.2-19.9-1.6 0-14.9 0-28.9-6.4-20.2-9.5-31.8-26.5-31.8-49.3 0-36.3 29.7-58.6 60.7-58.6 33.4 0 59.7 22.5 60.2 55.4 0 1.9-2.4 4.5-5.8 4.5h-28.9c-2.9 0-5.8-2.7-5.8-4.5-.5-11.1-9.3-16.7-19.6-16.7-10.9 0-20.2 6.6-20.2 19.9 0 11.7 9.8 17.8 20.2 17.8 1.3 0 15.1 0 28.6 6.4 21 9.5 32.1 28.6 32.1 51.5 0 36.3-29.4 56.8-60.7 56.8-33.8-.9-60.4-20.6-60.9-56.1zM2711.74 405.7c0-38.2 32.1-69.7 71.3-69.7 39 0 71.1 31.6 71.1 69.7 0 38.5-32.1 69.2-71.1 69.2-39.2 0-71.3-30.7-71.3-69.2zm134.4 113.5c0 2.1-2.4 4.5-5.8 4.5h-116.2c-3.4 0-5.6-2.4-5.6-4.5V490c0-2.4 2.1-4.8 5.6-4.8h116.2c3.4 0 5.8 2.4 5.8 4.8v29.2zm-93.8-113.5c0 17.8 13.8 30.8 30.8 30.8s30.5-13 30.5-30.8c0-17.5-13.5-31.3-30.5-31.3s-30.8 13.8-30.8 31.3zM3068.14 374.1v113.5h15.1c3.2 0 5.6 2.4 5.6 4.5v27.1c0 2.1-2.4 4.5-5.6 4.5h-71.1c-3.2 0-5.6-2.4-5.6-4.5v-27.1c0-2.1 2.4-4.5 5.6-4.5h15.4V374.1h-14.3c-3.2 0-5.6-2.4-5.6-4.5v-26.8c0-2.4 2.4-4.8 5.6-4.8h69c3.4 0 5.6 2.4 5.6 4.8v26.8c0 2.1-2.1 4.5-5.6 4.5h-14.1zM3342.84 523.7c-1.6 0-4.5-1.3-5-2.7l.3.3-44.6-71.1h-8v69c0 2.1-2.1 4.5-5.6 4.5h-29.4c-3.2 0-5.6-2.4-5.6-4.5V416.3c0-2.4 2.4-4.8 5.6-4.8h19.1c-3.4-5.8-7.4-11.1-11.1-17l-13.5-21.7v-30c0-2.4 2.4-4.8 5.6-4.8h58.9s64.4 0 64.4 56c0 31.3-19.1 45.1-36.6 51.2l44.6 71.6v-.3c2.4 3.4 0 7.2-4.2 7.2h-34.9zm-28.3-112.4c8.5-.5 18.6-4.2 18.6-17.2 0-17.2-18.6-17.2-23.6-17.2h-16.7l21.7 34.4zM3580.24 376v35.5h67.9c3.2 0 5.3 2.4 5.3 4.8v28.6c0 2.1-2.1 4.5-5.3 4.5h-67.9v35.5h82.5c3.4 0 5.8 2.4 5.8 4.8v29.4c0 2.1-2.4 4.5-5.8 4.5h-117.5c-3.4 0-5.6-2.4-5.6-4.5V342.7c0-2.4 2.1-4.8 5.6-4.8h115.4c3.2 0 5.6 2.4 5.6 4.8v28.4c0 2.4-2.4 4.8-5.6 4.8h-80.4zM3868.74 376v35.5h67.9c3.2 0 5.3 2.4 5.3 4.8v28.6c0 2.1-2.1 4.5-5.3 4.5h-67.9v35.5h82.5c3.4 0 5.8 2.4 5.8 4.8v29.4c0 2.1-2.4 4.5-5.8 4.5h-117.5c-3.4 0-5.6-2.4-5.6-4.5V342.7c0-2.4 2.1-4.8 5.6-4.8h115.4c3.2 0 5.6 2.4 5.6 4.8v28.4c0 2.4-2.4 4.8-5.6 4.8h-80.4z"/><path fill="#fff" d="M1704.24 1068.8c7.6-15.3 17.2-29.2 28.9-41.8 11.7-12.5 24.9-24.2 39.4-34.9s29.3-21.1 44.5-31c14.7-9.9 29.2-20 43.6-30.1 14.3-10.1 27.2-21 38.5-32.5s20.4-24.2 27.2-37.9c6.8-13.7 10.1-29.3 10.1-46.9 0-13.9-2.8-26.6-8.4-37.9-5.6-11.3-13-21.1-22.4-29.2-9.4-8.2-20.1-14.4-32.2-18.8-12.1-4.4-25-6.6-38.5-6.6-18.7 0-35 3.3-48.9 9.8-13.9 6.6-25.5 15.5-34.6 26.9-9.2 11.3-16 24.7-20.6 40-4.6 15.3-6.9 31.9-6.9 49.8h-22.7c2.4-50.1 14.4-87 36.1-110.7 21.7-23.7 53-35.5 94-35.5 17.5 0 34 2.3 49.5 6.9 15.5 4.6 29 11.5 40.6 20.9 11.5 9.4 20.7 21.1 27.5 35.2 6.8 14.1 10.1 30.7 10.1 49.8 0 24.3-5.7 45.7-17 64.2s-25.7 35.3-43 50.4c-17.3 15.1-36 29.2-56.1 42.4-20.1 13.1-39 26.2-56.7 39.1-17.7 12.9-32.8 26.5-45.4 40.6-12.5 14.1-19.6 29.7-21.2 46.9h245.9v22.7h-274.5c1.2-19.3 5.6-36.5 13.2-51.8zM2221.04 1127.5c-29.8 0-54.3-6.5-73.4-19.4-19.1-12.9-34.3-29.6-45.7-50.1-11.3-20.5-19.2-43.4-23.6-68.6-4.4-25.3-6.6-50.2-6.6-74.9 0-24.7 2.2-49.6 6.6-74.9 4.4-25.3 12.2-48.1 23.6-68.6 11.3-20.5 26.6-37.2 45.7-50.1 19.1-12.9 43.6-19.4 73.4-19.4 29.8 0 54.3 6.5 73.4 19.4 19.1 12.9 34.3 29.6 45.7 50.1 11.3 20.5 19.2 43.4 23.6 68.6 4.4 25.3 6.6 50.2 6.6 74.9 0 24.7-2.2 49.6-6.6 74.9-4.4 25.3-12.2 48.1-23.6 68.6-11.3 20.5-26.6 37.2-45.7 50.1-19.1 13-43.6 19.4-73.4 19.4zm0-19.7c25.5 0 46.4-6.2 63-18.5 16.5-12.3 29.4-28 38.8-47.1 9.3-19.1 15.8-40 19.4-62.7 3.6-22.7 5.4-44.4 5.4-65.1 0-20.7-1.8-42.4-5.4-65.1-3.6-22.7-10.1-43.6-19.4-62.7-9.4-19.1-22.3-34.8-38.8-47.1-16.5-12.3-37.5-18.5-63-18.5-25.9 0-47 6.2-63.3 18.5-16.3 12.3-29.1 28-38.5 47.1-9.4 19.1-15.8 40-19.4 62.7-3.6 22.7-5.4 44.4-5.4 65.1 0 20.7 1.8 42.4 5.4 65.1 3.6 22.7 10 43.6 19.4 62.7 9.3 19.1 22.2 34.8 38.5 47.1 16.4 12.4 37.4 18.5 63.3 18.5zM2621.54 752.7c-14.7 15.5-31.6 27.7-50.7 36.4-19.1 8.8-39 14.1-59.7 16.1v-19.6c23.9-3.6 45.6-11.9 65.1-25.1 19.5-13.1 35.4-30.4 47.7-51.9h20.3v411.8h-22.7V752.7zM2882.94 994.5c-.4 17.1 2.5 32.6 8.7 46.6 6.2 13.9 14.6 25.9 25.4 35.8 10.7 9.9 23.4 17.6 37.9 23 14.5 5.4 30.1 8.1 46.8 8.1 17.5 0 33.4-3.3 47.7-9.8 14.3-6.6 26.7-15.4 37-26.6 10.3-11.1 18.3-24.3 23.9-39.4 5.6-15.1 8.4-31 8.4-47.7 0-16.7-2.9-32.4-8.7-47.2-5.8-14.7-13.9-27.5-24.5-38.2-10.5-10.7-23-19.3-37.3-25.7-14.3-6.4-29.8-9.5-46.6-9.5-23.9 0-44.2 4.9-60.9 14.6-16.7 9.8-31.6 24.2-44.8 43.3h-23.3l43-213.1h208.3v19.7h-190.4l-35.2 164.1 1.2 1.2c11.9-16.7 26.8-29.1 44.5-37.3 17.7-8.2 36.9-12.2 57.6-12.2 20.3 0 39 3.5 56.1 10.4 17.1 7 31.8 16.6 44.2 28.9 12.3 12.3 22 27.2 28.9 44.5 7 17.3 10.4 36.1 10.4 56.4 0 20.3-3.4 39.2-10.1 56.7-6.8 17.5-16.3 32.7-28.6 45.7-12.3 12.9-27.1 23-44.2 30.1-17.1 7.2-36 10.7-56.7 10.7-19.9 0-38.6-3.1-56.1-9.3-17.5-6.2-32.8-14.9-46-26.3-13.1-11.3-23.3-25.3-30.4-41.8-7.2-16.5-10.1-35.1-9-55.8h22.8z"/></g></svg>
