<svg xmlns="http://www.w3.org/2000/svg" preserveAspectRatio="xMinYMin meet" class="svg-content" viewBox="0 0 260 260"><path fill="#f89c0e" d="M117.14 25.25c-11.83 0-17.74 5.07-17.74 15.2h-6.15v7.78h6.15v33.8h10.9v-33.8h7.08v-7.8h-7.08c0-1.14.1-2.15.28-2.97.2-.82.56-1.47 1.08-2 .5-.48 1.18-.85 2.05-1.04.9-.2 2.1-.3 3.5-.3v-8.87zm-48.08 11.9c-5.27 0-10.17 1.4-14.68 4.2-4.53 2.8-6.77 8.05-6.77 15.77v50.68h5.7c1.6 0 2.9-.55 3.9-1.67 1.1-1.1 1.7-2.42 1.7-3.95v-9.6l.1.04V76.28c1.3 2.3 3.1 4.02 5.3 5.1 2.1 1 4.6 1.5 7.3 1.5 5.2 0 9.4-2.1 12.7-6.28 3.3-4.3 5-9.9 5-16.85 0-6.7-1.6-12.23-4.9-16.5-1.7-1.97-3.9-3.5-6.7-4.54-2.8-1-5.6-1.5-8.4-1.5zm-43.57.03c-5.5 0-9.8 1.25-12.8 3.73-2.7 2.3-4.2 5.1-4.6 8.5h11.1c.5-1.2 1.4-2 2.6-2.5 1.2-.4 2.5-.6 4.1-.6 1.4 0 3 .3 4.7.8 1.7.5 2.5 1.6 2.5 3.2 0 2.2-2.5 3.7-7.3 4.3-1 .1-1.9.3-2.6.4-.8.2-1.5.3-2 .3-4.2.7-7.6 2-10.3 4-2.7 1.9-4 5.2-4 9.9 0 5 1.4 8.5 4.4 10.7 3 2.1 6.4 3.2 10.4 3.2 2 0 4.2-.1 6.8-.4 2.6-.2 5-1 7.3-2.2v.1c2.2-1.1 4.1-2.9 5.7-5.4 1.6-2.5 2.4-5.9 2.4-10.3V49.5c0-3.93-1.6-7.02-4.8-9.22-3.1-2.1-7.7-3.13-13.9-3.13zm113 2.1c-3.3 0-6.3.5-8.9 1.55-2.6 1.04-4.9 2.52-6.7 4.44-1.9 1.9-3.3 4.23-4.3 6.93-1 2.72-1.5 5.7-1.5 9 0 3.2.5 6.2 1.4 8.9.9 2.7 2.3 5 4.2 6.92 1.8 1.9 4 3.43 6.7 4.5 2.6 1.05 5.6 1.62 9 1.62v-.04c3.2 0 6.1-.52 8.7-1.6 2.6-1.03 4.8-2.5 6.6-4.42 1.8-1.92 3.2-4.23 4.2-6.9 1-2.66 1.5-5.7 1.5-9 0-3.34-.5-6.35-1.5-9.06-1-2.7-2.4-5.03-4.2-6.9-1.9-1.9-4.1-3.35-6.6-4.4-2.6-1.05-5.5-1.55-8.8-1.55zm49.2 0c-1.1 0-2.2.08-3.3.2-1.1.1-2.1.37-3.2.78-1.1.44-2.1 1.06-3 1.86-1 .78-1.9 1.88-2.9 3.28v-4.94H165v41.56l-.05.02h11V60.42c0-6.7 3.35-10.06 10.06-10.06 1.1 0 2.1.07 3.1.25V39.3h-1.4zm51.1 0c-2.7 0-4.9.53-6.8 1.6-1.9 1.03-3.4 2.73-4.5 5.08-.8-1.2-1.6-2.22-2.4-3.1-.8-.82-1.6-1.53-2.5-2.05-.9-.5-1.9-.9-3-1.1-1.2-.2-2.4-.3-3.8-.3-2.8 0-5.1.5-7.1 1.6s-3.7 3-5.1 5.7v-6.1h-10.3v41.5h10.9V56.8c0-5.4 2.2-8.1 6.7-8.1 1.2 0 2.2.1 3 .36.8.26 1.5.7 2.1 1.3.5.64.9 1.46 1.1 2.58.2 1.1.3 2.5.3 4.1V82.1h11V57.2c0-2.54.6-4.66 2-6.34 1.3-1.7 2.9-2.54 5-2.54 1.9 0 3.5.8 4.7 2.35 1.2 1.6 1.8 3.64 1.8 6.2V82h11V53.17c0-1.94-.4-3.73-1.1-5.4-.7-1.72-1.7-3.2-2.9-4.48-1.3-1.3-2.8-2.3-4.5-3-1.8-.7-3.7-1.1-5.8-1.1zM68 46.88c3.08 0 5.44 1.15 7.12 3.48 1.63 2.3 2.47 5.58 2.47 9.87h-.1c0 3.97-.9 7.1-2.5 9.4-1.7 2.32-3.9 3.48-6.8 3.48-3.1 0-5.4-1.1-7.1-3.4-1.7-2.1-2.5-5.2-2.5-9.4 0-4.4.7-7.8 2.3-9.8 1.7-2.3 4-3.5 7-3.5zm70.5 1.78c6.7 0 10.07 4.17 10.07 12.56 0 8.46-3.36 12.67-10.07 12.67h.04c-6.7 0-10.07-4.2-10.07-12.7 0-8.4 3.37-12.6 10.04-12.6zM33.4 59.9v4.12c0 3.07-.87 5.47-2.6 7.26-1.8 1.73-4.2 2.6-7.27 2.6-1.86 0-3.3-.4-4.28-1.33-1-.97-1.5-2.27-1.5-3.9 0-1.23.38-2.44 1.16-3.65.9-.87 2.3-1.56 4.3-2.12l3.8-.82c2.8-.65 4.9-1.4 6.5-2.15z"/><path fill="#00adef" d="M6.78 89.84c-.5.1-.6.9-.82 1.3-.18 3.33-2.34 5.9-1.95 9.38-.1 1.63-1.4 3.13-.6 4.82.8 3.27 3.8 5.97 3.1 9.66-1.6 5.2-4 10.08-6.4 14.95v24l.9-1.56c5.5-3.8 5.6-10.1 7.4-15.5 2.4-8 3.7-16 6.3-23.8.7-1.4-.3-3.3.8-4.4.2-1.3-.2-2.4-.8-3.4 0-1.5.6-3.5-.2-4.8-1.3-.3-1.7-2-3.3-1.5l-2.5.5c-1.9-3.2 1.5-7.1-1.5-9.9h-.3zm87.4 1.8c-1.26 0 .53 8.68 1.4 8.65-2.53-.1-5-9.6-7.3-8.3-2.56 1.3 4.86 8.5 4.7 9.9-.17 1.2-5.3-5.2-5.4-5.3-3.4-4.7 1.42 8.4 3.24 8.2-1.65 1.2-6.6-3.1-7.7-1.6-.24.3 10.62 6.7 11.4 8.6.78 2 .2 3.6 1.03 5.9.5 1.4 2.94 3 2.96 4.4.1 3.5 1.3 6.5 2.7 9.6 3.3 7.4 5.9 15 9.9 22.1 6.4 11.3 11.3 23.7 13.3 36.5.4 2.3.5 4.7.5 7.2l-.3.2h-.6c-.3-.1-.5-.3-.6-.5-.3-.6-.4-1.2-.5-1.9 0-1.9-.9-2.9-1.8-4-.2-.5-.5-.8-.7-1.3.5.3 1.1.6 1.7.8.2.2.4.5.6.8.1 1 .6 1.6.6 2.6v.4l.3.9s.1 0 .1.1c.1.1.3.1.3.2.3.1.6.4.8.3.1-.1-.2-.2-.3-.3l-.2-.3c-.2-.5-.6-1-.6-1.6l-.3-1.9c-.2-.4-.4-.9-.7-1.2-.6-.6-1.5-.8-2-1.4-.6-.7-1-1.6-1.8-2.1v-.2c-.4-.1-.4-.4-.7-.6h-.1v-.7c-.1-1.3-.7-1.7-1.1-2.3-.4-.6-.3-4.1-3.1-7 0 0-3.3-4.3-5.4-4.9-2.1-.6-4.8-.4-5.6 1.2 0 0-2.4-1.1-4.8 1.3-1.9 1.9-2.2 3.6-2.7 4.1.5-.3 1.2-.8 1.7-1.3-.6 1.1-1.6 3-1.6 3.7l1.4-2.1s-2.4 3.2-.7 5.8c1.6 2.5-.4 4.6-.4 4.6s1.7-.5 1.7-1.4c0-.8 0 1.9 1.6 3 1.5 1 1.3.4 1.5 1 .1.3.3 1.3.6 2.2-.1.2-.2.5-.3.7-.2.3-.4.6-.6.8-.1.1-.3.2-.4.3-.1.1-.4.2-.3.4.7.1 1.1-.5 1.5-.7 0 .2-.1.4-.2.5-.1.2-.1.3-.2.5-.2.3-.4.5-.6.8-.5.7-1.2 1.3-1.6 2.2-.4.9-.5 2-.3 3l-.4.2-.2.2c-.7-1.2-1.5-2.4-2.1-3.7-.6-6.6-4.1-10.3-6.7-15.1.1-.4-.1-.4-.1-.9-.1-.4-.8-.8-.7-1.1.4-.6.8-1.8.3-2.6-.7-.8-1.9-1.1-2.5-2-.5-1.4-1-2.7-1.9-3.7-.3-1.2-.6-2.3-1.1-3.3-.1-1.2-.3-2.4-1.3-2.9-1.5 1.5.1 3.9-.1 5.7-.4-.9-1.7-.2-1.8.7-.2-.3-.2-.6-.9-.5-.1.1-.7.2-.8.7-.3-.2-.7 0-.8.5-.4 0-1.1.1-.9 1 .3 1.7 1.5 4.2 2.8 4.7.9 1.1 1.3 2.7 3.1 3-.2.2-.2.8-.3 1.2 2.3 6.5 3.8 13.8 7.5 18.9.1.5.3 1 .5 1.5-1.4-.6-2.8-1-4.2-1.3l.1-.3c.6-.4 1.5-.8 2.3-.5.1-.2-.1-.2-.2-.3-1.1-.5-2.1.3-3 1l-.3-.3c-.3.6-.7-.1-1-.2l-.3.6c-.5-.1-.9-.5-1.3-.8-2.3-2.8-6.6-7.6-8-10.1-1.1-1.9-3.3-4.3-4.9-6.4.8-1.6 1.5-3.3 2.1-5 2.5-4 3.4-9 6-13 2.2-4.4 4.2-8.9 5.6-13.6 1.1-5.4 3.8-10.2 5.4-15.4 1.8-1.6 1.9-4.3 1.2-6.4-.1-1.1-1.6-.4-1.7-1.6-1.1 0-1.5-1.6-2.9-1.1-.7-.5-1.7-.1-2.5.2-.3-.4-.7-.7-1.2-.7-.8.2-.3 1.2-.6 1.8-.1 2.3-.6 4.8.2 7.2-.6 3-1.3 6-2.5 8.8-3.3 5.7-4.3 12.5-8.2 18-.7 3-2.5 5.6-4.3 8.3-.5-1-.7-1.3-.6-2 .2-1.1-1.1-4.3-1.7-5-.6-.6-1.2-2-1.5-1.3-.3.6.2 1.7.4 2.4s.3 1.9.3 1.9-1.4.1-1.9-.6-1.8-1.5-2.1-.8c-.3.7 0 1.6.4 1.7.4.1-.9.4-.9 1.2 0 .7 2 1.3 2.5 2.2.5.9 2.1 2.3 1.7 3-.4.7-1.4-.3-2.7-1.1-.3-.3-.7-.5-1-.6-.5-1.1-1.7-1.4-2.8-1.5.5-1.7.9-3.5.2-4.5-.4-.7.4-3.2.5-4 0-1.5-.1-3-.1-4.5-.1.5-.9.3-1.2.8-.2.4-.3 1-.3 1.5-.1 1 .1 2.6-.8 3.4-.6-1.4-2.1-1.8-3.4-2.3-.4-.2-.8-.3-1.1-.5-.1.2-.3.3-.6.2-.4-.1-.8-.4-1.3-.5.1 1.5.7 1.8 1.5 2.2l-.8.1c-.7-.2-.3-1.4-1.1-1.9-.7-.3-1.5-.1-2.1.1-1.4.7-1.5-1.4-2.7-1.6-1.3-.3-2.4.8-3.3 1.3 0-.1-.1-.1-.2-.1-.3-.4-.2-.8-.2-1.2-.1 0-.2.1-.2.1-.2-.1-.4-.4-.6-.2.1.6-.1 1.1-.4 1.5-.5.4-1.1.5-1.7.1-1.6-.5-3.5-.1-4.6 1.3-1.3.2-2.1 1.3-3.2 1.6-1.5.5-1.4 2-1.8 3.2-.3-.1-.4-.1-.5 0-2.8-4.4-4.7-9.1-6.3-14-1-3.3 2.7-4.8 3.2-7.7.5-1.3-.6-2.1-1.1-3-.4-1.2.1-2.8-1-3.7-1 .3-1.1-.9-2-.9-.4.1-.5.6-.7 1-.8.3-1.4 1.2-2.1 1.8l.3.3c0 1.2-.9 2.1-.7 3.4-2.4 3.5.4 7.3.4 11 0 4.6.9 8.9 1.8 13.1-.2.3-.3.5-.1.6 0 0-1.4.3-1 2.3.4 1.8.7 3.4 2.7 4 1.1 2.5 3.4 4.3 4.7 6.6-1.8 2.7-3.8 5.3-5.9 7.8-.4-.5-1.9 1-2.8 1.8-.1 0-.2-.1-.3-.1.4-.8 1.1-1.9 1-2.2l-3.2 2-.3-.2c-.7-.7-1.2-.8-2.3 1.5-.1.2-.2.3-.3.4l-.6.4c-.2-.1-.4-.2-.6-.4 0-.4-.1-.6-.4-.6l-.3-.7c.1.1.1.4.2.6-1.4.2-4.7 3.7-4.3 3.7-.2 0-1-.6-1.1-.5-.4.5-.8 1.1-1.3 1.7V240c.3-1.4.6-2.76 1.1-4.15.7-2.1 1.3-4.14 1.7-6.3.3-1.25.2-2.3.3-3.32 2.4 2.1 4.5 4.23 4.8 6.2.3 1.5.9 3.95 1.5 6.62-.3-.1-.6-.3-.9-.4-.6.1-1.3.2-1.7.5-.7.7-1.5-.3-2.2.5-.3.1-.5.5-.5.8-.2.3-.6.1-.9.3-.2.1-.2.3-.2.4.5.5-.4.8-.3 1.3 0 .5-.5.7-.6 1-.9.4.2 1.4-.6 1.9-.3.7.7.3 1 .6.1.1.1.4.1.5.2.2-.1.5 0 .8.1.2.1.5.4.6 0 .3-.2.8-.6 1-.3.8.7 1.1 1.2 1.5.2.3.1.6-.1.8l.2-.4c.1-.2-.1-.4-.1-.6.2.4.3.8.5 1.2-.3.4-.5.8-.8 1.2-.3.5-.5 1-.9 1.5-.1.2-.2.4-.4.3-.2-.1-.3-.1-.3.2 0 .7-.2 1.3-.5 1.9-.3.6-.6 1.2-.4 1.9 0 .1 0 .2.1.3-.3-.3-.6-.6-.9-.8v1.4l.2.2h259V251c-.6-.8-1.3-1.53-2-2.22l-.3-.6c.1-.14.1-.3 0-.5-.1-.1-.2-.2-.2-.3 0-.3-.1-.6-.1-.94.1-.1.1-.3.2-.4.1-.2 0-.4 0-.6.1-.3.3-.6.5-.8.4-.1.9.1.7-.5l-.1-.2c.1 0 .1-.1.2-.1.4-.3.8-.7 1.3-1.1V233c-.4 1-.6 1.8-.6 1.8l-2.9 4.5c-.2 0-.3-.04-.5-.2 0-.3-.1-.7-.4-.8-.4-.5-1-.2-1.5-.2-.5-.72-1.4-2-2.7-4.2-2.2-3.8 4.8-14.93 4.8-14.93s1.1.5 2.1 1.17c0 .1-.1.2-.1.3-.7 3 .5 5.4 1.9 7.8v-50.8l-.1-.1c-.4-.6-1.4-1.3-3.9-1.78-1.3-.3-2.3-.3-3.3-.2-2.1-4.8-4.4-9.6-5.8-14.7-.4-2.77 1.9-4.7 2.6-7.15.6-1.2-.3-2.4-.4-3.6.4-2.6-1.1-4.6-1.2-7.1-.1-.3-.2-1.1-.7-1-2.3 2 .1 5.1-1.4 7.4l-1.9-.5c-1.2-.4-1.6.9-2.6 1-.6 1-.2 2.5-.3 3.6-.4.7-.7 1.6-.7 2.5.9.8.1 2.2.5 3.3 1.8 5.9 2.5 12 4.1 18l.3 1.3c-1.5-1.8-3.4-3.1-5.5-3.4-3.9-.5-8.1 1.8-10.3 4.9-.2.4-.4.8-.6 1.1-1.5-2.9-3.1-5.9-3.6-6.3-.9-.8-.2-6.6-3.3-10.7s-7.2-11.7-7.2-11.7l-1.8-5.7-.9-6.6s0-3.4-1-3.2c-.9.2-.6 4.8-.6 4.8s-.1 1.9-.8 1.9c0 0-1.8-1.9-2.8-1.4-1 .4-2.8 1.5-1.7 3 1.1 1.5 1 3.5 2.7 3.6 1.7.1.7 3.2 2.3 4.8 1.6 1.6 2.6 11.1 3.5 12.4.8 1.3 6.1 12.3 7 16.1 1 3.6 5.8 16.2 6 17.6-.5-.2-.9-.2-1.4-.2-1.2.3-1-1.2-1.8-1.6-.9-.3-2.1-.8-2.8.1-.2-.4-.5-.3-.9-.4-.4-.6.5-.3.6-.6-.3-1.3.8-2.2 1.1-3.3.3-1.1-1-2.1.2-2.9-.1-.9-.8-1.3-.8-2.2-.1-.6-.3-1.2.1-1.7 0-.4-.5-.1-.5-.6.3-.5.1-1.1-.1-1.6-.1-.6-.9-.4-1.3-.8.3-.5.8-1.1.5-1.8-.7-1-2.1-1-3.3-.9-.1-1-1.4-.9-2.2-1.1-.6-.6-1.3-1.1-2-1.2 0-.4.5-1.1-.2-1.2-.1.2-.1.3-.2.5-.8 1-1.8 0-2.7-.3-1 .2-2.3.4-3.2 1-1.2 1.3-2.8-.5-4 .9-.5.2-.8 1-.7 1.5-.4.5-1.1.3-1.7.5-.3.2-.4.6-.3.9 1 .9-.7 1.6-.6 2.5.1.9-.9 1.3-1.2 1.9-1.7.8.5 2.7-1.1 3.5-.5 1.4 1.3.6 1.9 1.2.1.3.3.7.2 1 .4.4-.1 1 .1 1.6.2.4.2 1 .7 1.1v.1c-.1.7-.3 1.5-1 1.9-.5 1.5 1.4 2.1 2.2 2.9.3.5.2 1.1-.1 1.6l.1.1.6-.8c.2-.4-.1-.7-.2-1.1.3.8.6 1.5.9 2.3-.5.8-.9 1.6-1.3 2.3-.5 1-1 1.9-1.5 2.7-.3.4-.3.8-.8.7-.5-.1-.5-.1-.5.4 0 1.2-.5 2.3-1 3.4-.6 1.1-1.1 2.2-.9 3.5.1.3.1.5.2.6-.7-.8-1.5-1.6-2.7-1.7-.4 1.3.6 2.4 1.7 3.4-.4.4-.8.8-1.1 1.3-.1.2-.1.4-.2.6-1.6-1.1-3.1-2.5-5-2.5-.6 1.7 2.3 2.9 4.4 4.1-.1.4-.2.8-.2 1.2-1.5-.4-2.9-.9-4.5-1.1l-.2-.5c-.3-1.7.1-3.7-.6-5.4-.4-1-1.1-1.8-2.1-2.4 4.1-5.5 10.2-13 10.6-15.6.7-4.4-5.4-13.1-7.9-18-4.2-8.5-4.8-8.5-1.9-12.1.8-1 .7-2.7 1.4-3.8.6-1 1.7-1.5 2.2-2.5 1-1.7-.4-1.2-1.5-.9-2.2.5-3.1 3.6-3.7 3.7-1.5.4-.9-4.4-1.6-8.1 2-4.4 3.5-9.4 6.1-13.2 3.9-5.9 8.6-12.7 10.2-19.7 1-3.8 8.7-9.7 6.1-13.3 3.5-2.6 7.4-4.1 11.2-6.1 1.6-.9 7.8-7 6.2-9.1-1-1.4-5.1 3.5-6.2 4.2.2-1.2 2.6-4.4 2.3-5.1 0 0-9.5 6.7-11.6 7.1 1.9-7.2-9.5 4.4-8.7 4.5-.2 0-1.8-1.1-1.9-1-2.9 3.4-5.8 9.6-7.8 13.9-1.4 3-8.5 21.8-13.1 21.6-.3 0-10.6 24.3-13.3 22-.2-.1-3.2-2.6-3.4-1.5.9-6.5-7.7-16-12.7-20.2-5.7-4.8-15.9-3.9-20.2 2.6-2.6 4-5.1 5-6-1.2-.7-3.9-3.8-8.2-5.6-11.6-1.1-2.1-3.5-5.5-3.3-7.8.4-4.1-2.9-4.3-2.8-7.7.1-2.6-1.6-3.2-1.9-4.2-.4-2 3.2-12.6 1.4-14.1-2-1.6-3.7 15-9.4 1.6-1.6-3.7-2.6-5-3.1-5zm62 61.94c.3-.08 1.36 2.2 1.27 2.57-.1.3-1.84-2.33-1.26-2.57zm.38 2c-.02.27.7 2.2.74 2.83-.24-.3-.93-1.2-.74-2.8zm23.47 4.3c0 .13 0 .26-.02.38v-.13c0-.08.1-.16.1-.24zm-4.06 7.9c1.3 2.77 1.77-.58 7.7 21.28 1.44 3.45 2.28 3.72 2 4.07-.45.56-1.48 2.1-1.77 2.06-.23-4.6-6.53-9.6-11.5-10.5.27-4.9 1.13-9.6 2.32-14.6.2-.9.7-1.7 1.25-2.5zm32.4 10.54c.3.14.63.24.85.43-.42.64-1.3.36-1.93.3-.5.06-1-.05-1.5.12.8-.37 1.7-.84 2.5-.85zm-150.46.4c.2.2.2.43.3.63-.2-.15-.3-.3-.4-.53l.2-.1zm36.6.13l-.4.24c.2 0 .3-.1.4-.3zm122.7 2.66c.4.1.8.2 1.2.4.4.3.7.6.5 1l-.5.8-2.3-1.8.1-.1c.5-.1.9-.2 1.3-.2zm1.9 3.1c.3 0 .6.2.7.5l.1.7c-.4-.1-.6-.6-.7-1.2zm-22.2 2.9c.2.6.1 1.1-.1 1.5-.1-.5-.3-1.1.2-1.5zm-.1 2.3c.1.5.3 1.1.7 1.3-.3.1-.9.1-1.3 0-.3-.5.6-.7.6-1.3zm-172.8.3c.9 1.7 1.8 3.3 2.9 4.8.1 1.2-.7 1.7-1.8 1.7H25c-.8-.3-1.8-.8-2.9-1.2.6-1.7 1.3-3.5 2-5.2zm41.1 4.9c.4 1 .8 2 1.3 3-.2 0-.5-.1-.7-.2-.6-.1-1.1-.8-1-1.5l.5-1.2zm-38 .3c.8 1.2 1.7 2.4 2.7 3.6.3.8 1.8.9 1.2 1.8-.3.6-.7 1.1-1.1 1.7-.6-1.8-1.9-3-3.2-3.8l-.3-.5c1-.4 1.1-1.6.9-2.6zm72.9 1.3c.1.2-.1.3-.2.4l.2-.4zm.4.3c.1.1 0 .1.1.2 0 0-.1 0-.1.1 0 0 .1-.1.1-.2zm97.8.2c.1.7.9 1 1.2 1.6.1.2.2.4.2.5v.2c-.5-.1-1.1-.4-1.5-.8-.2-.3-.5-.6-.3-1l.4-.4zm-97.9.2c0 .3-.1.7-.1 1-.1-.3.1-.7.2-.9zm-.5.3c.1 0 .1.1.1.1-.1.6-.2 1.2-.5 1.7-.1.1 0-.1-.1-.1-.1.2 0 .6-.1.8-.2.5-.5.8-.8 1.2l-.4.6c-.1.2-.2.5-.4.6v-.5c.2-.8.4-1.6.9-2.1.7-.4 1-1.2 1.5-1.7 0-.1.1-.1.1-.2zm-.5.3c.1.1-.1.3-.2.4.1-.2.2-.2.3-.4zm25.7.9v1h-.3c0-.3-.1-.5-.2-.8.3 0 .4-.1.6-.1zm-59.3.3c2.2.3 1.2 2.6 1.7 4 .1.5-.9.7-.2 1.1.5 0 .2-.6.6-.7.3-.1.5.2.7-.1l-.5-.4c.3-.9.1-1.6-.1-2.4.7 1.3 1.3 2.4 2 3.3.9 1.2 1.6 2.4 2.2 3.6-1.1 1.4-2 3.2-2.6 4.8-1.6 2-2.3 4.4-2.6 6.9l-1.7-1.2v-.4l-1-.8-.6-1.8c-.4-1.2-.7-2.4-1.1-3.7l-.2-1v-.1c.4-.3.7-1 1.1-1.4.2.3.6.4 1 .3 0-.1.1-.1.1-.3-.3-1.2-1.4-2.3-.8-3.6.4.2-.1.5.3.7.7-.2.4-1.2.9-1.5l1.1 1c.7.5 1.8.7 2.6.5-.3.1-.6-.1-1 0-1.1-.2-2.1-1.2-2.3-2.2 1 .8 2.3 2.1 3.8 1.5-.7.1-1.2-.1-1.7-.2-1.4-.8-2.8-2.1-2.6-3.8.6.1 1.2 0 1.7-.2.1-.3-.2-.5-.2-.7.3-.3 0-.7.2-1zm58.7.2c.1 0 .1.1.1.2s-.1 0-.1-.1zm-24.7.5c0 .2-.2.6-.3.8 0-.3.2-.6.3-.8zm0 .6h.1c-.4 1.5-.7 2.9-.7 4.7-.1.2-.3.4-.5.6-.3-.3-.5-.8-.6-1.3.4-1.5 1.3-2.5 1.8-3.8zm126.4.2c.2.2.4.3.5.5v.2c-.2-.2-.7-.6-1.1-.5.3-.1.4-.1.6-.1zM99 201c.1 0-.1.13 0 .24-.4.6-.6 1.4-1.1 1.9.1-.1 0-.1-.1-.1v-.3c.3-.75.8-1.33 1.2-1.92zm126.6.2c-.3.1-.6.4-.6.74-.2 0-.4-.2-.4-.4.3-.4.7-.3 1-.3zM6.9 203c-.75 1.5-1.53 3-2.88 3.95-.27.2-.55.34-.83.44.4-.8 1.1-1.6 1.7-2.4.5.2.9 0 1.2-.8.1-.5.4-.9.7-1.2zm89.83.3l.06.03c-.1.17-.1.3-.2.43l-.2-.3.2-.2zm.44.14c.04 0 .05.02.05.02 0 .3-.08.5-.18.8l-.22-.4c.1-.2.2-.4.35-.6zm104.38.1c.37.4.6.96 1.12 1.24.52.3.56 0 .62.6l.1.7c-1.4-.7-2.8 0-3.4 1.4.4-1.3 1.1-2.5 1.5-3.8zm-104.2.37c.03 0 .05.1.06.1 0 .2-.1.4-.1.6l-.1-.1.2-.5zm.13.5c.2.3.3.8.45 1.1-.2-.3-.37-.5-.54-.7v-.4zm1.24.8c.22.2.1.6-.1.6-.08 0-.14-.1-.18-.2.05-.2.2-.2.28-.4zm103.82 2.6c.1 0 .22.1.33.1.05.9-1.1.5-1.54.9.07-.3.5-1 1.2-.9zM11.64 213c.1.17.18.37.27.54l-.5-.24.3-.3zm-.37.5c.27.07.52.12.7.15 1.8 3.42 3.52 4.9 3.52 4.9s.5 4.02-3.3.7c-.4-.32-1.2-.83-2.2-1.45-.1-.52-.2-1.26-.5-1.26.5-1.03 1-2.07 1.6-3.03zm56.84 1.16c-.2 1.45-.3 3.1-.2 4.65l-.2.7-.8-.6c.2-1.6.5-3.2 1.3-4.6zM9.3 217.2l-.02.1H9.2l.05-.1zm85.15 3.85l.57.1.2.64c-.24 0-.55.1-.88.1v-.1c.08 0 .16-.1.26-.1.06 0-.08-.1-.25-.1.04-.2.1-.5.1-.7zm-.53.4c0 .1 0 .2-.03.3h-.1l.1-.3zm-.14.37c.03.02.07.02.1.03v.08l-.13.02.03-.12zm94.4.83c.36.1.7.18 1 .3.44.2 1.5.36 2.4.66-.02.5-.06 1-.06 1.5-.98.1-1.98.1-2.95.2l-.64.1c-.4-.6-.53-1.6-.45-2.4.33.7.68 1.5 1.43 1.9 0-.8-.3-1.4-.7-2.1zm-92.7.05c.15.45.3.88.44 1.34l.6.86c-.12 1.52-.3 3.46-.52 5.53-.85.2-1.76.33-2.55.6.1-.17.15-.36.15-.56-.68.56-1.57-.13-2.12-.6 0-.03.03-.06.04-.08.42 0 1.94.5 2.26.4.13-.1 1.42-1.1 1.4-1.4-.37-.5-1.12 0-1.18-.8.5-.1 1.03.3 1.53.4-.8-.6-1.92-1.3-2.4-2.1l.24-.6c.8 0 1.73 1 2.56.3-.5-.2-1.05-.2-1.55-.4.12-.2.26-.3.44-.3-.3-.2-.6-.2-.9-.2-.2-.2 1-.6.4-.7.53-.3.8-.9 1.1-1.3-.42 0-.85 0-1.27-.1l.04-.4c.4 0 .9-.1 1.2-.3zm-1.97.26h.2v.2l-.2-.08c0-.04 0-.08.1-.12zm93.2 3.27c.9 1.17 1.7 1.05 2.6.4.7-.03 1.5-.08 2.2-.07v.33c.1.7.1 1.4.2 2.1-.3-.3-1.2-.8-1.7-.9-.9-.2-1.4-.5-2.2-.8h-.2c-.4-.3-.8-.7-.9-1.2zM92 227.3l.04.03c0 .05-.04.1-.06.17 0-.03-.03-.06-.05-.1 0-.02.04-.06.07-.1zm46.44.1c.77.05 1.22.35 1.5.78-.22-.12-.46-.15-.7.1.14.45.32.9.58 1.28.17.25.37.47.55.7l.02.7c-1.1-1.08-2.5-3-3.2-2 .2.76.8 1.18 1.3 1.7.5.58 1.2 1.15 1.6 1.9-1.4-.47-3-1.84-3.4-1.34-.2 1.28 1.5 1.37 2.1 2.17-.5-.5-2.2-.9-1.1.4.9.8 1.7 1.4 2.6 2-.2.3-.4.6-.2 1 .6 1.6.7 3.1.6 4.6-1.9.9-3.3 2.8-4.7 4.6 0-.6-.1-1.2-.3-1.8-.2-.4-.2-1.1-.8-1 .3 1.2.5 2.3.4 3.3 0 0-.1.1-.2.1-.2.1-.5.1-.7.1.1-.8 0-1.6-.3-2.5-.1-.2-.2-.5-.3-.7.2-.9-.2-2-.7-2.9-.3.5.1 1.4 0 2.1.1.7-.1 1.4-.1 2.1-.1 0 0 .2-.1.3-.3-.3.1-.7 0-1.1-.2-.6-.3-1.3-.6-1.7-.3 0-.3.2-.2.4-.5-.4-.9-1.4-1.5-1.3-.3.2.1.7.2.9l.3 1c.1 1.4-.2 2.7-.9 3.6-.5-.2-.8-.5-1.1-.8.7-4.5 1.3-8.7 1.6-9.9.4-1.7 1.2-5.8 2.1-9.2 2.5-.1 4.6-.2 5.1-.1zm-45.83.13l1.2.56c-.5.1-.9 0-1.3-.2l.2-.4zM90.8 232c.1.2.5.13.47.4-.23 0-.62-.54-.47-.4zm-.98 1.42l.2.07h-.3l.1-.2zM8.3 238.95c.13.08.32.13.44.24-.23.3-.7.1-1.05.1-.3 0-.6-.1-.8 0 .4-.2.9-.5 1.4-.5zm85.8 3.75c-.37 1.45-.77 2.6-1.2 3.3-.6.54-1 1.2-1.27 1.95-.47.7-.86 1.34-1.2 1.93.2-.77.45-1.52.8-2.22-.17-1.5.2-1.92 1.3-2.97.63-.7 1.1-1.4 1.54-2zm-92.2 1.2c.1.32.06.58-.1.82-.06-.28-.15-.6.1-.8zm258.1.4c-.62 1.34-1.04 2.6-.9 3.53.07.4.43 1.07.9 1.83v-5.36zm-1.5.08c.06.07.1.14 0 .25-.06.03-.15 0-.24 0l.25-.25zm-124.57.25c.28.77.33 1.58.2 2.36-.37 0-.74 0-1.04.2 0 .3.4.4.8.5l-.2.4h-.9l-.7-.2c.4-.6.8-1.2 1.1-1.8.2-.5.2-1.2.5-1.6zm-132.1.5c.04.25.1.6.37.7-.18.05-.5.08-.7 0-.2-.3.3-.4.3-.7zm-1.83.3v5.46c.47-.8.85-1.5.9-1.9.16-1-.27-2.3-.9-3.6zm2.67 3.66c.06.3.45.5.65.8.03.1.07.1.12.2-.3-.1-.62-.2-.84-.5-.1-.2-.2-.4-.1-.6l.2-.2zm128.03.6l1.2.8c-.3.1-.6.2-.9.1l-.46-.8.24-.2zM4.5 252.6c.2.22.34.53.62.68.28.17.3-.03.34.33l.06.4c-.76-.4-1.5 0-1.86.8.26-.7.62-1.3.85-2.1zm.55 2.28c.05 0 .1.03.18.06.03.47-.6.3-.84.46 0-.17.2-.56.6-.52z"/></svg>