<svg xmlns="http://www.w3.org/2000/svg" viewBox="0 0 354.6 171.63" preserveAspectRatio="xMaxYMax meet"><path fill="#ec6918" d="M245.56 85.75L230.6 89.4c.02.1.07.18.1.26.8 3.22-8.1 6.74-22.1 11.4-14 4.67-44.58 13.93-47.16 14.88-2.58.95-18.55 8.27-18.38 18.25.05 2.7 1.12 4.88 2.63 6.64l13.5-3.3c-1.76-.97-2.7-1.94-2.7-2.8.03-2.92 5.42-5.93 10.13-8.2 4.7-2.3 60.34-18.97 66.8-23.3 6.47-4.3 12.5-7.2 12.57-15.27 0-.75-.15-1.48-.44-2.22z"/><path fill="#f9a749" d="M177.88 50.37c3.75-.63 7.45-1.32 11.2-1.9 5.3-1.02 4.92 3.16 4.92 4.06v83.3l-19.42-.33V54.3c.15-1.87 1.55-3.5 3.3-3.93z"/><path fill="#44439d" d="M232.57 0c-2.92 0-5.7 1.46-6.38 3.9 0 0-35.36 122.76-36.35 125.23-1.9 4.7-8.06 8.05-11.47 1.03-1.43-2.13-23.44-54.7-23.44-54.7-1.15-2.9-2.98-4.58-8.65-4.33l-5.92.6c-4.47.8-4.7 3.9-4.1 6.5l36.47 83.96c2.98 7.84 7.28 7.54 13.94 7.55h10.24c5.47 0 6.82-4.15 10.53-13.94L250.77 8.3c1.67-5.1-2.73-8.15-5.74-8.2-2.25-.02-9.34-.1-12.46-.08zm105.68 52.06c-.42.03-.9.1-1.47.22l-8.1 1.72c-2.3.65-3.77 2.3-3.77 5.53v95.5c0 9.58 8.78 14.53 17.6 14.53h8.85c2.78-.64 3.25-.8 3.25-3.03v-5.44c0-2.08-1.08-2.88-3.56-2.88-7.12 0-9.75-2.55-9.75-7.5v-92.2c0-4.4-.06-6.62-3.04-6.46zM30.13 83.53c-13.3 0-27.53 8.3-27.53 23.78 0 13.74 8.8 23.94 20.87 27.45 13.94 4.3 16.28 8.46 16.28 14.85 0 5.9-4.03 8-11 8-6.2 0-9.75-3.05-17.65-8.16-3.56-2.4-8.05-.3-9.9 2.56-2.18 3.2-1.4 8.44 2.46 11.16 8.52 5.74 16.25 8.3 26.63 8.3 10.98 0 26.33-7 26.33-22.5 0-14.67-7.58-20.9-19.97-25.83-13.47-4.95-18.13-8.8-18.13-15.35 0-7.5 4.95-10.53 12.54-10.53 3.1 0 6.52 1.6 9.15 3.03 2.8 1.6 4.47-.95 4.47-3.18v-5.25c0-2.56-1.1-4.96-2.95-5.6-3.56-1.27-7.13-2.72-11.62-2.72zm76.53 0c-7.74 0-14.4 2.88-17.66 8.94-1.4 2.7-3.23 4-8.03 2.56l-2.62-.97c-3.57-1.12-7.75.48-7.75 5.9v64.8c0 3.02 1.7 4.8 4.18 4.8h7.72c2.8 0 4.35-1.75 4.35-4.62V108.9c0-6.86 5.72-12.6 12.84-12.6 7.27 0 13.02 5.58 13.02 12.6v55.85c0 3.03 1.68 4.8 4.16 4.8h7.75c2.8 0 4.34-1.74 4.34-4.6V113.2c0-14.36-7.3-29.7-22.3-29.7zm174.53 0c-19.2 0-31.76 16.45-31.76 38.3v14.36c0 19.78 11.94 35.43 31.6 35.43 6.5 0 17.5-2.86 24.47-6.7 1.1-.63 2.93-2.07 1.53-4.3l-4.15-6.57c-.93-1.43-2.18-2.08-4.2-1.12-3.24 1.9-11.9 5.28-16.24 5.28-10.83 0-16.12-10.22-16.12-19.16 0-4.47 3.4-6.84 7.28-6.84h15.97c10.2 0 19.18-8.63 19.18-17.25v-8.28c0-14.22-12.54-23.17-27.56-23.17zm-.95 13.25c7.12 0 13.16 4.8 13.16 12.94 0 9.25-4.92 12.44-10.65 12.44h-9.47c-2.94 0-8.65-2.25-8.65-8.63v-1.9c0-7.2 6.95-14.85 15.62-14.85z"/><path fill="#ec6918" d="M171.94 27.28c-1.23 0-2.4 0-3.5.03-12.94-.07-37.44 2.07-38.66 12.86-.64 7.15 9 11.3 17.13 15.34 8.12 4.05 65.62 24.23 70.26 25.25 4.63 1.02 12.7 5.7 13.53 8.9.06.3.03.57-.04.85l15.22-3.7c-1.56-7.64-18.35-14.83-18.35-14.83-29.1-11.83-88.65-24.92-89.3-31.82-.66-6.9 26.28-8.68 42.4-7.22 9.75 1 27 4 28.84 6.22 1.84 2.23 3.65 5.7 8.6 7.22 4.94 1.54 15.4 3.08 18.93-.56 3.52-3.63-5.1-10-9.8-11.5-4.44-1.37-36.78-6.85-55.26-7.02zm57.53 105.3c-.33 0-.7.05-1.13.17-1.8.5-25.4 9.5-42.97 9.5-13.97 0-24-2.88-27.5-5.53l-12.93 3.15c3.83 5.52 12.22 7.4 12.22 7.4s8.33 3.57 27.4 3.4c19.07-.2 37.5-8.7 42.5-11.76 4.37-2.66 4.7-6.13 2.4-6.3z"/><path fill="#f9a749" d="M182.84 44.48c-6.86 0-12.4-5.53-12.4-12.9s5.54-12.9 12.4-12.9c7.04 0 12.56 5.53 12.56 12.9s-5.52 12.9-12.56 12.9"/></svg>