<svg xmlns="http://www.w3.org/2000/svg" viewBox="0 0 1000 207.4"><path fill="#333" d="M145.2 167.2H64.5l-12.7 36.4H0l74-200h61.5l74 200H158l-12.6-36.4zm-67.8-37h54.8L105 50.4 77.3 130zM375 9.8v42.3q-16.3-7.4-32-11-15.7-4-29.6-4-18.5 0-27.3 5.2-8.8 5-8.8 15.8 0 8 6 12.6 6 4.3 21.6 7.5l22 4.4q33.3 6.6 47.4 20.3 14 13.7 14 38.8 0 33.2-19.7 49.4-19.5 16-59.8 16-19 0-38.2-3.5-19-3.7-38.3-10.8v-43.6q19.2 10.2 37 15.4 18 5 34.5 5 17 0 26-5.5 9-5.6 9-16 0-9.4-6.3-14.5-6-5-24.2-9l-20-4.6q-30-6.4-44-20.5-13.7-14-13.7-38 0-29.8 19.3-46Q269 0 305.2 0q16.5 0 34 2.6Q356.4 5 375 10zm186.3 0v42.3q-16.5-7.4-32-11-15.8-4-29.7-4-18.5 0-27.4 5.2-8.8 5-8.8 15.8 0 8 6 12.6 6 4.3 21.6 7.5l22 4.4q33.3 6.6 47.3 20.3 14 13.7 14 38.8 0 33.2-19.6 49.4-19.5 16-59.8 16-19.2 0-38.3-3.5-19.2-3.7-38.3-10.8v-43.6q19 10.2 37 15.4 18 5 34.5 5 16.8 0 25.8-5.5 9-5.6 9-16 0-9.4-6.2-14.5-6-5-24.3-9l-20-4.6q-30-6.4-44-20.5-13.7-14-13.7-38 0-29.8 19.3-46Q455 0 491.3 0q16.4 0 34 2.6 17.3 2.4 36 7.3zM742 167h-80.7l-12.7 36.4h-51.8l74-200h61.5l74 200h-51.8L742 167.2zm-67.8-37H729l-27.4-79.7-27.4 79.6zM790.4 3.6h52l53 147.5L948 3.7h51.8l-74 200h-61.5l-74-200z" style="line-height:125%;-inkscape-font-specification:'sans-serif Bold'" font-weight="bold" font-family="sans-serif" letter-spacing="0" word-spacing="0"/></svg>