<?xml version="1.0" encoding="UTF-8" standalone="no"?>
<!-- Created with Inkscape (http://www.inkscape.org/) -->

<svg
   xmlns:dc="http://purl.org/dc/elements/1.1/"
   xmlns:cc="http://creativecommons.org/ns#"
   xmlns:rdf="http://www.w3.org/1999/02/22-rdf-syntax-ns#"
   xmlns:svg="http://www.w3.org/2000/svg"
   xmlns="http://www.w3.org/2000/svg"
   xmlns:sodipodi="http://sodipodi.sourceforge.net/DTD/sodipodi-0.dtd"
   xmlns:inkscape="http://www.inkscape.org/namespaces/inkscape"
   width="282.22223mm"
   height="58.545906mm"
   viewBox="0 0 1000 207.44612"
   id="svg2"
   version="1.1"
   inkscape:version="0.91 r13725"
   sodipodi:docname="assav_logo.svg">
  <defs
     id="defs4" />
  <sodipodi:namedview
     id="base"
     pagecolor="#ffffff"
     bordercolor="#666666"
     borderopacity="1.0"
     inkscape:pageopacity="0.0"
     inkscape:pageshadow="2"
     inkscape:zoom="0.35"
     inkscape:cx="259.0904"
     inkscape:cy="-310.86212"
     inkscape:document-units="px"
     inkscape:current-layer="layer1"
     showgrid="false"
     fit-margin-top="0"
     fit-margin-left="0"
     fit-margin-right="0"
     fit-margin-bottom="0"
     inkscape:window-width="1362"
     inkscape:window-height="723"
     inkscape:window-x="0"
     inkscape:window-y="0"
     inkscape:window-maximized="1" />
  <metadata
     id="metadata7">
    <rdf:RDF>
      <cc:Work
         rdf:about="">
        <dc:format>image/svg+xml</dc:format>
        <dc:type
           rdf:resource="http://purl.org/dc/dcmitype/StillImage" />
        <dc:title></dc:title>
      </cc:Work>
    </rdf:RDF>
  </metadata>
  <g
     inkscape:label="Calque 1"
     inkscape:groupmode="layer"
     id="layer1"
     transform="translate(-65.9096,-14.053953)">
    <g
       style="font-style:normal;font-variant:normal;font-weight:bold;font-stretch:normal;font-size:40px;line-height:125%;font-family:sans-serif;-inkscape-font-specification:'sans-serif Bold';letter-spacing:0px;word-spacing:0px;fill:#333333;fill-opacity:1;stroke:none;stroke-width:1px;stroke-linecap:butt;stroke-linejoin:miter;stroke-opacity:1"
       id="text3336"
       transform="matrix(6.8568369,0,0,6.8568369,-386.02177,-1297.2895)">
      <path
         d="m 87.081474,215.62112 -11.757812,0 -1.855469,5.3125 -7.558594,0 10.800782,-29.16015 8.964843,0 10.800782,29.16015 -7.558594,0 -1.835938,-5.3125 z m -9.882812,-5.41015 7.988281,0 -3.984375,-11.60156 -4.003906,11.60156 z"
         id="path3341"
         inkscape:connector-curvature="0" />
      <path
         d="m 120.61663,192.69144 0,6.17187 q -2.40234,-1.07422 -4.6875,-1.62109 -2.28516,-0.54688 -4.31641,-0.54688 -2.69531,0 -3.98437,0.74219 -1.28906,0.74219 -1.28906,2.30469 0,1.17187 0.85937,1.83594 0.87891,0.64453 3.16406,1.11328 l 3.20313,0.64453 q 4.86328,0.97656 6.91406,2.96875 2.05078,1.99219 2.05078,5.66406 0,4.82422 -2.87109,7.1875 -2.85156,2.34375 -8.73047,2.34375 -2.77344,0 -5.56641,-0.52734 -2.79296,-0.52735 -5.585933,-1.5625 l 0,-6.34766 q 2.792973,1.48438 5.390623,2.24609 2.61719,0.74219 5.03906,0.74219 2.46094,0 3.76954,-0.82031 1.30859,-0.82031 1.30859,-2.34375 0,-1.36719 -0.89844,-2.10938 -0.8789,-0.74218 -3.53515,-1.32812 l -2.91016,-0.64453 q -4.375,-0.9375 -6.40625,-2.98828 -2.011719,-2.05078 -2.011719,-5.52735 0,-4.35547 2.812499,-6.69922 2.8125,-2.34375 8.08594,-2.34375 2.40234,0 4.9414,0.3711 2.53907,0.35156 5.25391,1.07422 z"
         id="path3343"
         inkscape:connector-curvature="0" />
      <path
         d="m 147.76507,192.69144 0,6.17187 q -2.40235,-1.07422 -4.6875,-1.62109 -2.28516,-0.54688 -4.31641,-0.54688 -2.69531,0 -3.98437,0.74219 -1.28907,0.74219 -1.28907,2.30469 0,1.17187 0.85938,1.83594 0.87891,0.64453 3.16406,1.11328 l 3.20313,0.64453 q 4.86328,0.97656 6.91406,2.96875 2.05078,1.99219 2.05078,5.66406 0,4.82422 -2.87109,7.1875 -2.85157,2.34375 -8.73047,2.34375 -2.77344,0 -5.56641,-0.52734 -2.79297,-0.52735 -5.58594,-1.5625 l 0,-6.34766 q 2.79297,1.48438 5.39063,2.24609 2.61719,0.74219 5.03906,0.74219 2.46094,0 3.76953,-0.82031 1.3086,-0.82031 1.3086,-2.34375 0,-1.36719 -0.89844,-2.10938 -0.87891,-0.74218 -3.53516,-1.32812 l -2.91015,-0.64453 q -4.375,-0.9375 -6.40625,-2.98828 -2.01172,-2.05078 -2.01172,-5.52735 0,-4.35547 2.8125,-6.69922 2.8125,-2.34375 8.08594,-2.34375 2.40234,0 4.9414,0.3711 2.53906,0.35156 5.25391,1.07422 z"
         id="path3345"
         inkscape:connector-curvature="0" />
      <path
         d="m 174.11272,215.62112 -11.75781,0 -1.85547,5.3125 -7.55859,0 10.80078,-29.16015 8.96484,0 10.80079,29.16015 -7.5586,0 -1.83594,-5.3125 z m -9.88281,-5.41015 7.98828,0 -3.98437,-11.60156 -4.00391,11.60156 z"
         id="path3347"
         inkscape:connector-curvature="0" />
      <path
         d="m 181.18304,191.77347 7.55859,0 7.73438,21.52344 7.71484,-21.52344 7.55859,0 -10.80078,29.16015 -8.96484,0 -10.80078,-29.16015 z"
         id="path3349"
         inkscape:connector-curvature="0" />
    </g>
  </g>
</svg>
