<svg xmlns="http://www.w3.org/2000/svg" viewBox="0 0 113.16 38.07"><path fill="#0b0b0a" d="M3.7 12.92h2.65c2.04 0 3.06-.67 3.06-1.98 0-1.27-1.08-1.97-3.22-1.97H3.7v3.95zm0-9.53v3.66h2.32c1.74 0 2.65-.65 2.65-1.83 0-1.2-.93-1.84-2.67-1.84H3.7zM0 14.9v-1.98h1.56V3.4H0V1.4h6.23c2.86 0 4.6 1.32 4.6 3.62 0 1.5-.88 2.44-2 2.9 1.6.43 2.74 1.57 2.74 3.12 0 2.46-1.9 3.84-5.02 3.84H0M22.87 7.88c-.23-.8-.82-1.26-1.58-1.26-1.8 0-3.5 1.33-3.5 3.75v2.55h3.44v1.98h-7.67v-1.98h2.2V6.97h-1.73V5h3.74v1.67c.63-1.16 1.9-2 3.6-2 1.9 0 3.1 1.1 3.44 2.65l-1.95.56M33.33 10.9c-.65-.23-1.63-.42-2.54-.42-1.3 0-2.56.42-2.56 1.6 0 .9.8 1.3 1.88 1.3 1.5 0 3.2-.8 3.2-2.2v-.28zm0-1.77v-.56c0-1.4-1.12-1.97-2.33-1.97-1.14 0-2.1.47-2.9 1.2L26.75 6.3C27.68 5.46 29 4.67 31 4.67c2.5 0 4.42 1.33 4.42 3.83v4.42h1.44v1.98h-3.53v-1.05c-.54.86-1.98 1.37-3.4 1.37-2.04 0-3.8-1.04-3.8-3.1 0-2.45 2.4-3.38 4.57-3.38 1.07 0 1.95.2 2.63.4M43.16 0h2.3v3.02h-2.3zm6.1 12.92v1.98H39.3v-1.98h4.13V6.97h-3.15V5h5.2v7.92h3.82M51.73 12.92h1.5V6.97h-1.4V5h3.44v1.27c.6-.97 1.86-1.6 3.4-1.6 2.2 0 3.78 1.4 3.78 3.65v4.6h1.5v1.98h-5.13v-1.98h1.58V8.88c0-1.72-1.04-2.2-2-2.2-1.55 0-3.1 1.15-3.1 2.94v3.3h1.57v1.98h-5.14v-1.98M66.77 6.97H64.2V5h2.57V1.42h2.04L68.83 5h4.8v1.97h-4.8v4.16c0 1.54 1.07 2.16 2.3 2.16 1.16 0 2.13-.66 2.85-1.38l1.38 1.42c-.9.98-2.3 1.88-4.23 1.88-2.5 0-4.35-1.37-4.35-4.02V6.97M86.5 7.88c-.23-.8-.8-1.26-1.58-1.26-1.8 0-3.48 1.33-3.48 3.75v2.55h3.44v1.98H77.2v-1.98h2.2V6.97h-1.73V5h3.74v1.67c.64-1.16 1.92-2 3.6-2 1.92 0 3.1 1.1 3.45 2.65l-1.95.56M92 8.92h6.1c-.3-1.4-1.56-2.37-2.95-2.37-1.58 0-2.8.98-3.14 2.37m8.26 4.47c-1.02 1.05-2.83 1.82-4.86 1.82-3.32 0-5.64-2.23-5.64-5.27 0-3.05 2.25-5.28 5.4-5.28 3.1 0 5.3 2.4 5.3 5.65v.35H91.9c.35 1.65 1.72 2.65 3.5 2.65 1.5 0 2.77-.6 3.47-1.38l1.36 1.45M104.72 8.92h6.1c-.3-1.4-1.57-2.37-2.96-2.37-1.58 0-2.8.98-3.14 2.37m8.25 4.47c-1.02 1.05-2.83 1.82-4.86 1.82-3.3 0-5.63-2.23-5.63-5.27 0-3.05 2.25-5.28 5.4-5.28 3.1 0 5.3 2.4 5.3 5.65v.35h-8.54c.35 1.65 1.72 2.65 3.5 2.65 1.5 0 2.77-.6 3.47-1.38l1.37 1.45M4.94 29.07L3.1 32.2h2.65l-.8-3.13zM2.64 33l-1.3 2.22H.4l4.88-8.17 2.2 8.17h-.95L5.96 33H2.63M77.53 29.14c-.52-.64-1.3-1.03-2.2-1.03-1.73 0-3.37 1.5-3.63 3.22-.28 1.7.9 3.2 2.63 3.2.87 0 1.8-.4 2.5-1.02l-.16 1.07c-.75.48-1.6.76-2.43.76-2.2 0-3.77-1.78-3.42-3.98.35-2.22 2.46-4.04 4.68-4.04.86 0 1.6.26 2.2.77l-.18 1.07M78.4 32.78c-.17 1 .4 1.8 1.43 1.8 1.02 0 1.84-.8 2-1.8.15-.98-.42-1.8-1.44-1.8s-1.86.82-2 1.8m-.83 0c.22-1.4 1.53-2.55 2.95-2.55 1.42 0 2.35 1.14 2.12 2.56-.22 1.4-1.53 2.53-2.94 2.53-1.4 0-2.36-1.12-2.13-2.54M84.5 30.9c.34-.4.8-.67 1.28-.67.57 0 1.03.3 1.2.8.37-.53 1-.8 1.58-.8 1.24 0 1.38 1 1.22 2.02l-.46 2.94h-.82l.44-2.8c.1-.64.18-1.4-.66-1.4-.95 0-1.2.9-1.32 1.64l-.4 2.55h-.82l.43-2.75c.1-.6.17-1.46-.62-1.46-.97 0-1.23.97-1.35 1.7l-.4 2.5H83l.75-4.84h.82l-.08.53M91.4 32.73c-.16.94.26 1.84 1.3 1.84 1.05 0 1.74-.86 1.9-1.83.14-.97-.34-1.75-1.36-1.75-.95 0-1.7.82-1.85 1.73m.3-1.68h.02c.48-.53 1.13-.82 1.8-.82 1.42 0 2.12 1.22 1.9 2.56-.2 1.37-1.27 2.53-2.72 2.53-.66 0-1.22-.3-1.53-.8h-.02l-.54 3.38h-.8l1.18-7.54h.82l-.1.7M96.8 32.73c-.14.94.28 1.84 1.3 1.84 1.07 0 1.75-.86 1.9-1.83.16-.97-.32-1.75-1.34-1.75-.95 0-1.7.82-1.85 1.73m3.6 2.46h-.82l.1-.67h-.02c-.5.53-1.1.8-1.8.8-1.4 0-2.12-1.2-1.9-2.54.22-1.4 1.28-2.57 2.73-2.57.65 0 1.2.3 1.5.82h.04l.1-.7h.82l-.76 4.84M102.75 30.95h.02c.43-.46.9-.72 1.5-.72 1.34 0 1.5.97 1.3 2.1l-.44 2.86h-.82l.44-2.73c.12-.78.17-1.48-.78-1.48-1.13 0-1.37 1.04-1.5 1.9l-.37 2.3h-.84l.76-4.84h.83l-.1.6M106.24 30.36h.95l1.16 3.47 2.1-3.47h.94l-4.76 7.55h-.94l2.07-3.16-1.53-4.38"/><path fill="#268ec2" d="M49.16 23.53H44.9c-.28 0-.53.2-.57.5l-1.72 10.9c-.02.2.15.4.36.4h2.18c.2 0 .38-.15.4-.35l.5-3.1c.04-.28.3-.5.58-.5h1.34c2.8 0 4.4-1.34 4.83-4.02.18-1.18 0-2.1-.55-2.74-.6-.7-1.67-1.1-3.1-1.1m.5 4c-.24 1.5-1.4 1.5-2.52 1.5h-.65l.45-2.83c.03-.18.18-.3.35-.3h.3c.76 0 1.5 0 1.86.43.22.26.3.64.2 1.18"/><path fill="#28356a" d="M18.88 23.53h-4.24c-.3 0-.54.2-.6.5l-1.7 10.9c-.04.2.13.4.35.4h2c.3 0 .55-.22.6-.5l.46-2.94c.04-.3.3-.5.58-.5h1.35c2.78 0 4.4-1.36 4.82-4.04.2-1.18 0-2.1-.54-2.74-.6-.7-1.68-1.1-3.1-1.1m.5 4c-.24 1.5-1.4 1.5-2.53 1.5h-.64l.46-2.83c.03-.18.17-.3.35-.3h.3c.77 0 1.5 0 1.86.43.23.26.3.64.2 1.18M31.57 27.46h-2.03c-.18 0-.33.13-.35.3l-.1.57-.15-.2c-.44-.65-1.42-.86-2.4-.86-2.24 0-4.16 1.7-4.53 4.1-.2 1.18.08 2.32.75 3.1.62.74 1.5 1.04 2.56 1.04 1.8 0 2.82-1.15 2.82-1.15l-.1.56c-.03.23.14.42.36.42h1.84c.3 0 .53-.2.58-.5l1.1-6.95c.03-.22-.13-.4-.35-.4m-2.83 3.95c-.2 1.16-1.12 1.94-2.3 1.94-.6 0-1.06-.2-1.36-.55-.3-.35-.42-.85-.32-1.42.18-1.15 1.12-1.96 2.28-1.96.57 0 1.04.2 1.35.56.3.36.42.87.34 1.44"/><path fill="#268ec2" d="M61.84 27.46H59.8c-.16 0-.3.13-.34.3l-.1.57-.13-.2c-.44-.65-1.42-.86-2.4-.86-2.25 0-4.16 1.7-4.54 4.1-.2 1.18.07 2.32.75 3.1.62.74 1.5 1.04 2.56 1.04 1.82 0 2.82-1.15 2.82-1.15l-.1.56c-.02.23.14.42.36.42h1.83c.3 0 .55-.2.6-.5l1.1-6.95c.03-.22-.14-.4-.36-.4M59 31.4c-.18 1.16-1.1 1.94-2.28 1.94-.6 0-1.06-.2-1.37-.55-.3-.35-.4-.85-.32-1.42.2-1.15 1.12-1.96 2.28-1.96.6 0 1.06.2 1.37.56.3.36.43.87.34 1.44"/><path fill="#28356a" d="M42.4 27.46h-2.05c-.2 0-.38.1-.5.26l-2.8 4.15-1.2-4c-.07-.24-.3-.4-.56-.4h-2.02c-.25 0-.42.23-.34.46l2.25 6.6-2.12 3c-.17.22 0 .54.28.54h2.04c.2 0 .38-.1.5-.25l6.78-9.8c.17-.24 0-.56-.3-.56"/><path fill="#268ec2" d="M64.24 23.83l-1.74 11.1c-.04.2.13.4.35.4h1.75c.3 0 .54-.22.58-.5l1.72-10.9c.03-.2-.13-.4-.35-.4H64.6c-.2 0-.33.13-.36.3"/></svg>