<?xml version="1.0" encoding="UTF-8" standalone="no"?>
<svg
   xmlns:dc="http://purl.org/dc/elements/1.1/"
   xmlns:cc="http://creativecommons.org/ns#"
   xmlns:rdf="http://www.w3.org/1999/02/22-rdf-syntax-ns#"
   xmlns:svg="http://www.w3.org/2000/svg"
   xmlns="http://www.w3.org/2000/svg"
   xmlns:sodipodi="http://sodipodi.sourceforge.net/DTD/sodipodi-0.dtd"
   xmlns:inkscape="http://www.inkscape.org/namespaces/inkscape"
   preserveAspectRatio="xMinYMin meet"
   class="svg-content"
   viewBox="0 0 260 260"
   id="svg2"
   version="1.1"
   inkscape:version="0.91 r13725"
   sodipodi:docname="favicon_white.svg"
   width="260"
   height="260">
  <metadata
     id="metadata42">
    <rdf:RDF>
      <cc:Work
         rdf:about="">
        <dc:format>image/svg+xml</dc:format>
        <dc:type
           rdf:resource="http://purl.org/dc/dcmitype/StillImage" />
        <dc:title></dc:title>
      </cc:Work>
    </rdf:RDF>
  </metadata>
  <defs
     id="defs40" />
  <sodipodi:namedview
     pagecolor="#5a5a5a"
     bordercolor="#666666"
     borderopacity="1"
     objecttolerance="10"
     gridtolerance="10"
     guidetolerance="10"
     inkscape:pageopacity="0"
     inkscape:pageshadow="2"
     inkscape:window-width="1362"
     inkscape:window-height="723"
     id="namedview38"
     showgrid="false"
     inkscape:zoom="1.8529424"
     inkscape:cx="199.07932"
     inkscape:cy="127.365"
     inkscape:window-x="0"
     inkscape:window-y="0"
     inkscape:window-maximized="1"
     inkscape:current-layer="svg2" />
  <path
     style="opacity:1;fill:#ffffff;fill-opacity:1"
     d="M 130.82617 18.761719 A 111.17453 113.33326 0 0 0 67.826172 38.865234 C 68.133633 38.809573 68.4389 38.771484 68.740234 38.771484 C 69.021398 38.771484 69.300795 38.79528 69.576172 38.84375 C 70.668184 39.037647 71.663706 39.465751 72.613281 40.125 C 73.515378 40.774554 74.399083 41.55953 75.177734 42.490234 C 75.965882 43.411243 76.697833 44.311696 77.267578 45.271484 C 78.881856 47.743667 80.285687 50.342016 81.472656 53.046875 C 82.688113 55.761428 83.724317 58.52479 84.607422 61.384766 C 86.478085 67.085329 87.987733 72.922657 89.136719 78.914062 C 90.27621 84.895777 91.302172 90.867896 92.175781 96.849609 C 93.030399 102.82163 93.789026 108.77365 94.40625 114.6875 C 95.023474 120.58196 95.546196 126.58307 96.001953 132.64258 C 96.153885 135.61889 96.334331 138.60397 96.552734 141.60938 C 96.77416 144.52941 96.796354 147.44977 96.658203 150.39648 C 98.812919 149.12747 101.08531 148.07792 103.45703 147.25195 C 106.70458 146.11765 110.0455 145.60427 113.50195 145.70117 C 116.92043 145.79807 120.2441 146.52589 123.47266 147.93164 C 126.68222 149.31801 129.4261 151.12935 131.70508 153.33008 C 132.29382 153.8439 132.70206 154.26188 132.93945 154.55273 C 133.5092 155.05686 133.58665 155.65773 133.13086 156.39453 C 132.65607 157.09256 132.03896 157.24731 131.2793 156.87891 C 130.64308 156.63654 130.09225 156.20012 129.62695 155.52148 C 129.15217 154.87193 128.64921 154.33861 128.12695 153.90234 C 126.75006 152.77774 125.29612 151.76923 123.75781 150.92578 C 122.2005 150.05324 120.62405 149.39518 119.00977 148.94922 C 115.66727 147.99913 112.32466 147.73757 108.97266 148.17383 C 105.62066 148.6101 102.45964 149.58902 99.458984 151.08203 C 98.46512 151.60614 97.508723 152.1709 96.572266 152.75586 C 96.529866 153.38065 96.472661 153.99689 96.400391 154.5918 C 96.229467 155.87151 96.02174 157.15995 95.755859 158.46875 C 95.622919 159.14739 95.431627 159.89455 95.15625 160.69922 C 94.871377 161.47481 94.349568 161.9306 93.523438 162.05664 C 92.934702 162.12454 92.440646 161.98751 92.070312 161.61914 C 91.690483 161.27013 91.367983 160.8439 91.121094 160.33008 C 90.8837 159.82595 90.704126 159.29241 90.533203 158.68164 C 90.427824 158.26562 90.338103 157.91871 90.251953 157.57031 C 87.922776 159.71853 85.830551 162.11785 84.007812 164.79102 C 80.05758 170.60792 77.79934 177.10316 77.267578 184.27734 C 76.840269 188.87269 77.171926 193.54459 78.273438 198.31445 C 79.355952 203.06492 81.007383 207.62169 83.191406 211.98438 C 85.394421 216.34704 88.092836 220.3214 91.359375 223.94727 C 94.587932 227.57314 98.194562 230.46341 102.1543 232.67383 C 106.11403 234.90364 110.39765 236.22236 114.97461 236.7168 C 119.58005 237.20154 124.28021 236.50218 129.12305 234.66016 C 132.32312 233.458 135.3903 231.78109 138.33398 229.61914 C 141.25867 227.48628 143.98477 225.0821 146.47266 222.41602 C 148.94156 219.70146 151.1814 216.82138 153.16602 213.75781 C 155.13164 210.68455 156.77498 207.50593 158.06641 204.30664 C 160.96261 197.13246 161.69443 190.15141 160.28906 183.33594 C 158.8647 176.50108 156.1378 169.95832 152.12109 163.71484 C 147.99994 157.51015 143.46157 151.74029 138.4668 146.39844 C 133.47203 141.06628 128.4972 135.63681 123.58789 130.0332 C 121.36589 127.41559 119.06784 124.67206 116.71289 121.75391 C 114.31996 118.84546 112.10766 115.84041 110.12305 112.70898 C 108.09096 109.58724 106.38113 106.34046 104.94727 102.94727 C 103.52291 99.583156 102.57245 96.09309 102.09766 92.525391 C 101.74632 89.461823 101.92649 86.4168 102.63867 83.314453 C 103.34136 80.250885 104.51959 77.477972 106.17188 74.996094 C 107.78614 72.523911 109.87452 70.488461 112.40039 68.908203 C 114.92626 67.308555 117.84169 66.483669 121.13672 66.386719 C 124.43175 66.289769 127.59363 67.027376 130.61328 68.636719 C 133.62344 70.236366 135.88363 72.553478 137.35547 75.597656 C 138.07714 77.051881 138.59013 78.623221 138.875 80.251953 C 139.15987 81.880686 139.23616 83.498149 139.16016 85.117188 C 139.06516 85.660099 138.98837 86.242953 138.92188 86.882812 C 138.84587 87.522674 138.58107 88.006525 138.13477 88.365234 C 137.6125 88.753027 137.08922 88.753027 136.58594 88.365234 C 136.0162 87.928966 135.80734 87.395577 135.90234 86.736328 L 135.875 86.794922 C 136.79609 83.527763 136.68131 80.366655 135.57031 77.351562 C 134.43082 74.326774 132.34137 72.05941 129.30273 70.566406 C 126.26409 69.141268 123.13211 68.655671 119.80859 69.111328 C 116.48508 69.59607 113.66489 71.051042 111.35742 73.494141 C 109.04046 75.946934 107.62464 78.593078 107.13086 81.443359 C 106.61809 84.322725 106.75017 87.192616 107.44336 90.033203 C 108.14605 92.893179 109.28563 95.676071 110.81445 98.390625 C 112.36225 101.10518 114.02447 103.55709 115.84766 105.75781 C 120.59553 111.57471 125.6578 117.10037 131.00391 122.28711 C 136.35951 127.48354 141.50644 132.92263 146.40625 138.64258 C 151.24908 144.26559 155.67302 150.25758 159.69922 156.64648 C 163.68743 163.04507 166.39372 169.97645 167.80859 177.45117 C 169.23295 184.93558 168.7587 192.0714 166.38477 198.90625 C 164.01083 205.72172 160.49754 211.93573 155.80664 217.57812 C 153.52766 220.37024 151.0299 223.05609 148.37109 225.6543 C 145.71228 228.24282 142.845 230.52044 139.79688 232.51758 C 136.73924 234.49532 133.53001 236.12444 130.1875 237.38477 C 126.86399 238.6451 123.3111 239.30534 119.55078 239.40234 C 114.54652 239.55746 109.89338 238.76251 105.5918 236.99805 C 101.29972 235.2142 97.359196 232.76035 93.779297 229.62891 C 90.199398 226.50718 87.095437 222.84211 84.474609 218.60547 C 81.863277 214.4076 79.802523 209.94794 78.283203 205.22656 C 76.763882 200.55365 75.861045 195.7847 75.576172 190.9082 C 75.262812 186.03169 75.671869 181.31062 76.839844 176.77344 C 77.694462 173.42872 78.92923 170.21012 80.5625 167.15625 C 82.205265 164.08299 84.189436 161.26054 86.525391 158.69141 C 87.533588 157.56544 88.605057 156.51756 89.714844 155.51953 C 89.489088 154.63199 89.277252 153.74638 89.089844 152.85547 C 88.804972 151.42063 88.566058 149.94801 88.347656 148.44531 C 87.967825 145.4593 87.645326 142.50149 87.398438 139.49609 C 87.161044 136.51008 86.877274 133.53483 86.544922 130.54883 C 86.336016 127.97969 86.088686 125.4481 85.841797 122.88867 C 85.585411 120.34862 85.309183 117.77023 84.986328 115.19141 C 81.548865 117.40183 78.054779 119.52464 74.484375 121.56055 C 70.923468 123.57708 67.38149 125.67154 63.830078 127.76562 C 61.58908 129.12292 59.339528 130.40178 57.060547 131.66211 L 50.146484 135.47266 C 49.880603 135.59869 49.482602 135.82272 49.007812 136.15234 C 48.495041 136.48196 48.019439 136.73383 47.535156 136.92773 C 47.554146 137.97477 47.574219 138.9819 47.574219 139.98047 L 47.574219 142.9375 C 47.507749 146.02046 47.478516 149.04579 47.478516 152.10938 C 47.478516 155.16323 47.506614 158.19772 47.601562 161.20312 C 47.554082 162.65735 47.574155 164.11218 47.640625 165.56641 C 47.707098 167.02063 47.754447 168.47351 47.773438 169.92773 C 47.744947 170.23797 47.773039 170.78098 47.896484 171.54688 C 47.991444 172.29337 48.086479 173.06042 48.105469 173.8457 C 48.143449 174.64067 48.0769 175.33866 47.896484 175.97852 C 47.706569 176.60868 47.38272 176.92734 46.898438 176.86914 C 46.233733 176.92734 45.855808 176.57818 45.798828 175.7832 L 45.759766 175.77344 C 45.379939 163.50947 45.284693 151.32377 45.474609 139.22461 C 45.664524 127.10607 46.197243 114.9498 47.089844 102.72461 C 47.469674 96.791368 48.05762 90.896413 48.779297 85.001953 C 49.519966 79.136578 50.5072 73.289769 51.722656 67.501953 C 52.406351 64.641977 53.147939 61.801382 53.955078 58.941406 C 54.714739 56.100819 55.739892 53.337955 56.964844 50.671875 C 57.875987 48.606732 59.039001 46.542163 60.40625 44.494141 A 111.17453 113.33326 0 0 0 19.650391 132.0957 A 111.17453 113.33326 0 0 0 130.82617 245.42773 A 111.17453 113.33326 0 0 0 242 132.0957 A 111.17453 113.33326 0 0 0 229.61328 80.169922 C 229.60809 80.171631 229.60285 80.172115 229.59766 80.173828 C 227.62254 80.833076 225.72411 81.608641 223.91992 82.578125 C 220.21657 84.555871 216.85506 87.144496 213.81641 90.082031 C 200.92118 102.64654 196.1244 120.80441 194.72852 138.41992 C 193.94037 148.50255 193.99746 158.64423 194.32031 168.76562 C 194.59482 178.7709 195.28502 188.73994 196.30273 198.69922 C 196.36807 198.83878 196.43063 198.97964 196.49609 199.11914 C 197.39819 201.02902 196.4007 203.2019 194.625 204.10352 C 192.8398 205.04391 190.61688 203.98699 189.78125 202.20312 C 185.77404 193.68136 182.00421 185.02396 178.50977 176.26953 C 172.14762 160.40878 166.67918 144.18847 161.98828 127.73633 C 157.31637 111.37145 153.47918 94.774017 150.47852 78.001953 L 150.45117 78.001953 C 150.09983 75.936953 151.58045 74.075435 153.51758 73.707031 C 153.76565 73.653711 154.01305 73.632272 154.25586 73.638672 C 155.95552 73.683738 157.4543 75.111998 157.76172 76.808594 C 159.42348 86.212584 161.37147 95.56014 163.58398 104.86719 C 164.46903 108.61889 165.4099 112.35656 166.39258 116.08398 L 180.96094 162.0918 C 184.0325 170.3419 187.32586 178.50676 190.83398 186.57617 C 190.3175 179.35647 189.97268 172.11995 189.83984 164.86719 C 189.48849 145.11881 189.6874 123.93634 198.48047 105.85547 C 204.66867 93.219603 215.50404 82.650956 228.82812 78.773438 A 111.17453 113.33326 0 0 0 130.82617 18.761719 z M 228.82812 78.773438 A 111.17453 113.33326 0 0 1 229.61328 80.169922 C 231.45907 79.562271 233.18378 79.204093 235.24805 78.914062 C 235.70385 78.875282 237.38483 78.565074 237.31836 77.847656 C 237.25186 77.149628 235.34239 77.439806 235.01953 77.488281 C 232.90333 77.752633 230.83834 78.188433 228.82812 78.773438 z M 60.40625 44.494141 A 111.17453 113.33326 0 0 1 67.826172 38.865234 C 67.272993 38.96538 66.710868 39.145369 66.138672 39.425781 C 63.897674 40.501908 62.055556 42.120901 60.574219 44.234375 C 60.5158 44.3207 60.463922 44.407752 60.40625 44.494141 z M 68.53125 41.328125 C 68.029162 41.29177 67.500816 41.364697 66.945312 41.558594 C 65.691873 41.994861 64.589661 42.664999 63.621094 43.595703 C 62.652528 44.507017 61.798119 45.533744 61.085938 46.677734 C 60.354764 47.841114 59.719262 49.042831 59.1875 50.361328 C 58.636746 51.641047 58.16054 52.854127 57.761719 54.007812 C 56.717186 56.741758 55.862842 59.494927 55.160156 62.277344 C 54.438479 65.069456 53.80358 67.899931 53.214844 70.779297 C 52.027874 76.712536 51.097152 82.674254 50.460938 88.617188 C 49.796233 94.589205 49.263182 100.58093 48.902344 106.58203 C 48.522513 111.39067 48.276122 116.15167 48.095703 120.87305 C 47.924779 125.59443 47.792767 130.34349 47.716797 135.12305 C 47.849738 135.05515 47.94302 134.98789 48 134.92969 C 48.02849 134.87146 48.095639 134.83366 48.162109 134.78516 L 48.134766 134.76562 L 54.638672 130.625 C 55.531273 130.12087 56.394239 129.58819 57.277344 129.09375 C 58.131962 128.56053 58.986576 128.02757 59.888672 127.52344 C 61.882781 126.26311 63.934705 125.081 65.966797 123.86914 C 67.998888 122.67668 70.031822 121.47329 72.044922 120.22266 L 78.40625 116.63672 L 81.388672 114.92969 L 84.369141 113.22266 C 84.426111 113.19356 84.492124 113.15569 84.558594 113.08789 C 84.596574 113.01999 84.693232 112.97213 84.826172 112.89453 L 82.716797 94.521484 C 82.242009 89.926132 81.634866 85.369355 80.951172 80.851562 C 80.267477 76.33377 79.526429 71.806501 78.738281 67.240234 C 78.235006 64.389953 77.694951 61.52159 77.201172 58.59375 C 76.688401 55.6853 75.947623 52.825174 74.998047 50.013672 C 74.732166 49.141137 74.38993 48.191147 73.953125 47.085938 C 73.506825 45.980725 72.965754 44.951764 72.310547 43.962891 C 71.645844 42.993407 70.86667 42.256085 69.955078 41.751953 C 69.508778 41.509582 69.033338 41.364485 68.53125 41.328125 z "
     id="path4189" />
  <path
     style="fill:#b43737"
     inkscape:connector-curvature="0"
     d="m 130.9368,245.26689 c 0.74067,-0.38779 1.51932,-0.43626 2.29797,0 l -2.29797,0 z"
     id="path8" />
  <path
     style="fill:#ed3b5f"
     inkscape:connector-curvature="0"
     d="m 240.82166,135.93824 c -0.39882,-0.62047 -0.37983,-1.22155 0,-1.84202 l 0,1.84202 z"
     id="path10" />
  <path
     style="fill:#b33737"
     inkscape:connector-curvature="0"
     d="m 127.04354,245.01483 c 0.60773,0.0679 1.26293,-0.25207 1.82318,0.25206 l -1.80419,0 c -0.095,-0.0485 -0.11395,-0.0969 -0.095,-0.14542 0.0285,-0.0679 0.0475,-0.0969 0.076,-0.0969 z"
     id="path12" />
  <path
     style="fill:#ed3b5f"
     inkscape:connector-curvature="0"
     d="m 240.82166,130.16012 c -0.37983,-0.50413 -0.37983,-1.04704 0,-1.55117 l 0,1.57056 z"
     id="path14" />
  <path
     style="fill:#c25d5d"
     inkscape:connector-curvature="0"
     d="m 127.04354,245.01483 c 0.019,0.097 0.019,0.1745 0.019,0.25206 l -1.54781,0 c 0.43681,-0.52352 1.00655,-0.16481 1.51932,-0.25206 z"
     id="path16" />
  <path
     style="fill:#d69494"
     inkscape:connector-curvature="0"
     d="m 135.01997,245.26689 c 0.35134,-0.3684 0.6837,-0.43626 1.04453,0 l -1.04453,0 z"
     id="path18" />
  <ellipse
     style="fill:none;stroke:#ffffff;stroke-width:2.98405123;stroke-miterlimit:10"
     cx="158.4391"
     cy="94.625557"
     stroke-miterlimit="10"
     transform="matrix(0.96691429,0.25510145,-0.24536882,0.9694298,0,0)"
     rx="121.31688"
     ry="120.64386"
     id="ellipse36" />
</svg>
