<?xml version="1.0" encoding="UTF-8" standalone="no"?>
<!-- Generator: Adobe Illustrator 18.1.1, SVG Export Plug-In . SVG Version: 6.00 Build 0)  -->

<svg
   xmlns:dc="http://purl.org/dc/elements/1.1/"
   xmlns:cc="http://creativecommons.org/ns#"
   xmlns:rdf="http://www.w3.org/1999/02/22-rdf-syntax-ns#"
   xmlns:svg="http://www.w3.org/2000/svg"
   xmlns="http://www.w3.org/2000/svg"
   xmlns:sodipodi="http://sodipodi.sourceforge.net/DTD/sodipodi-0.dtd"
   xmlns:inkscape="http://www.inkscape.org/namespaces/inkscape"
   version="1.1"
   id="Calque_1"
   x="0px"
   y="0px"
   viewBox="0 0 260 260"
   enable-background="new 0 0 32 32"
   xml:space="preserve"
   inkscape:version="0.91 r13725"
   sodipodi:docname="favicon_small.svg"
   width="260"
   height="260"><metadata
     id="metadata44"><rdf:RDF><cc:Work
         rdf:about=""><dc:format>image/svg+xml</dc:format><dc:type
           rdf:resource="http://purl.org/dc/dcmitype/StillImage" /><dc:title></dc:title></cc:Work></rdf:RDF></metadata><defs
     id="defs42" /><sodipodi:namedview
     pagecolor="#ffffff"
     bordercolor="#666666"
     borderopacity="1"
     objecttolerance="10"
     gridtolerance="10"
     guidetolerance="10"
     inkscape:pageopacity="0"
     inkscape:pageshadow="2"
     inkscape:window-width="1362"
     inkscape:window-height="723"
     id="namedview40"
     showgrid="false"
     fit-margin-top="0"
     fit-margin-left="0"
     fit-margin-right="0"
     fit-margin-bottom="0"
     inkscape:zoom="1.785643"
     inkscape:cx="144.56058"
     inkscape:cy="127.40509"
     inkscape:window-x="0"
     inkscape:window-y="0"
     inkscape:window-maximized="1"
     inkscape:current-layer="Calque_1" /><g
     id="g4214"><ellipse
       ry="119.11235"
       rx="117.19629"
       cy="131.12004"
       cx="130.56003"
       id="path4193"
       style="opacity:1;fill:#e71d73;fill-opacity:1" /><g
       transform="matrix(8.0782779,0,0,8.2428115,0.747554,1)"
       id="g3"><g
         id="g5"><g
           id="nsE5lF.tif"><g
             id="g8"><path
               id="path10"
               d="m 29.1,9.7 c 0.4,0.7 0.6,1.5 0.8,2.3 0.3,0.9 0.4,1.9 0.5,2.8 0,0 0,0.1 0,0.1 0,0.1 0,0.3 0,0.4 0,0.1 0,0.1 0,0.2 0,0.2 0,0.3 0,0.5 0,0.1 0,0.2 0,0.2 0,0.2 0,0.3 0,0.5 0,0.2 0,0.5 -0.1,0.7 0,0.4 -0.1,0.7 -0.2,1.1 -0.1,0.1 -0.3,0.2 -0.4,0.2 -1.5,0.6 -3,1.3 -4.5,2 -1.4,0.6 -2.8,1.3 -4.2,1.9 -1.4,0.6 -2.8,1.3 -4.2,1.9 -1.2,0.6 -2.4,1.1 -3.6,1.7 -0.9,0.4 -1.9,0.9 -2.8,1.3 C 10,27.8 9.6,28 9.2,28.2 9.1,28.2 9.1,28.3 9,28.3 8.4,28 7.8,27.6 7.3,27.2 7.2,27.1 7.1,27 7,27 c 0,-0.1 0.1,-0.1 0.1,-0.2 0.5,-0.5 1.1,-0.9 1.7,-1.3 1,-0.8 2,-1.6 3,-2.5 0.7,-0.6 1.5,-1.2 2.2,-1.7 1.5,-1.2 3.1,-2.4 4.6,-3.6 0.9,-0.7 1.9,-1.5 2.8,-2.2 1.6,-1.2 3.2,-2.4 4.8,-3.7 0.9,-0.7 1.8,-1.4 2.7,-2.1 0.1,0 0.1,0 0.2,0 z"
               inkscape:connector-curvature="0"
               style="fill:#eb1d47" /><path
               id="path12"
               d="m 27,25.1 c -0.6,0.7 -1.2,1.3 -1.9,1.9 -1.9,1.6 -4.1,2.6 -6.6,3 -0.5,0.1 -1,0.1 -1.5,0.2 0,0 -0.1,0 -0.1,0 0,0 -0.1,0 -0.1,0 0,0 -0.1,0 -0.1,0 -0.1,0 -0.2,0 -0.2,0 -0.1,0 -0.2,0 -0.3,0 -0.1,0 -0.2,0 -0.3,0 -0.1,0 -0.2,0 -0.2,0 -0.1,0 -0.1,0 -0.2,0 -0.1,0 -0.2,0 -0.3,0 -0.1,-0.1 -0.3,-0.1 -0.4,-0.1 -1.3,-0.1 -2.5,-0.4 -3.7,-0.9 0,-0.1 0.1,-0.1 0.2,-0.1 1,-0.3 2,-0.6 3.1,-0.8 2.5,-0.7 4.9,-1.3 7.4,-1.9 1.7,-0.4 3.4,-0.8 5.1,-1.2 -0.1,-0.1 0,-0.2 0.1,-0.1 z"
               inkscape:connector-curvature="0"
               style="fill:#ab2222" /><path
               id="path14"
               d="m 16.1,30.1 c 0.1,-0.1 0.2,-0.1 0.3,0 -0.1,0 -0.2,0 -0.3,0 z"
               inkscape:connector-curvature="0"
               style="fill:#b43737" /><path
               id="path16"
               d="m 30.4,16.2 c -0.1,-0.1 -0.1,-0.2 0,-0.2 0,0 0,0.1 0,0.2 z"
               inkscape:connector-curvature="0"
               style="fill:#ed3b5f" /><path
               id="path18"
               d="m 15.6,30.1 c 0.1,0 0.2,0 0.2,0 0,0 -0.1,0 -0.2,0 0,0 0,0 0,0 0,0 0,0 0,0 z"
               inkscape:connector-curvature="0"
               style="fill:#b33737" /><path
               id="path20"
               d="m 30.4,15.5 c 0,-0.1 -0.1,-0.1 0,-0.2 0,0 0,0.1 0,0.2 z"
               inkscape:connector-curvature="0"
               style="fill:#ed3b5f" /><path
               id="path22"
               d="m 15.6,30.1 c 0,0 0,0 0,0 -0.1,0 -0.1,0 -0.2,0 0.1,0 0.1,0 0.2,0 z"
               inkscape:connector-curvature="0"
               style="fill:#c25d5d" /><path
               id="path24"
               d="m 16.7,30.1 c 0,0 0.1,-0.1 0.1,0 -0.1,0 -0.1,0 -0.1,0 z"
               inkscape:connector-curvature="0"
               style="fill:#d69494" /><path
               id="path26"
               d="m 29.1,9.7 c -0.4,0.3 -0.8,0.6 -1.2,0.9 -1.1,0.8 -2.1,1.6 -3.2,2.4 -1.2,0.9 -2.4,1.8 -3.6,2.7 -1.2,0.9 -2.3,1.8 -3.5,2.7 -1.2,0.9 -2.4,1.8 -3.5,2.8 -0.9,0.8 -1.9,1.5 -2.8,2.2 -1,0.8 -1.9,1.6 -2.9,2.3 -0.5,0.4 -0.9,0.8 -1.4,1.1 0,0 0,0 -0.1,0.1 C 6.3,26.5 5.8,26 5.3,25.4 5.3,25.3 5.1,25.1 5,25 c 0,-0.1 0.1,-0.2 0.2,-0.4 0.6,-1 1.3,-2 1.9,-3 0.7,-1.1 1.4,-2.3 2.1,-3.4 0.3,-0.4 0.5,-0.8 0.8,-1.2 0.7,-1.1 1.4,-2.3 2.2,-3.4 0.4,-0.5 0.6,-1.1 1,-1.6 0.5,-0.7 0.9,-1.4 1.4,-2.1 0.8,-1.3 1.6,-2.5 2.4,-3.8 0.6,-0.9 1.2,-1.8 1.7,-2.7 0.3,-0.5 0.7,-1 1,-1.5 0,0 0,0 0.1,0 0.6,0.1 1.1,0.3 1.6,0.5 3.5,1.4 6,3.8 7.6,7.2 0.1,0 0.1,0 0.1,0.1 z"
               inkscape:connector-curvature="0"
               style="fill:#f27220" /><path
               id="path28"
               d="M 19.7,1.8 C 19.5,2.2 19.2,2.5 19,2.9 18.5,3.6 18,4.4 17.6,5.1 17.2,5.6 16.9,6.2 16.5,6.7 15.6,8 14.8,9.4 14,10.7 c -0.4,0.6 -0.8,1.2 -1.2,1.8 -0.8,1.3 -1.7,2.6 -2.5,3.9 -0.9,1.5 -1.9,3 -2.9,4.5 C 6.6,22.1 5.8,23.4 5.1,24.6 5.1,24.8 5,24.9 5,25 4.4,24.3 3.9,23.6 3.5,22.8 3.5,22.7 3.5,22.6 3.6,22.5 3.9,21.6 4,20.7 4.3,19.8 4.5,19.3 4.5,18.7 4.7,18.2 5,16.5 5.3,15 5.7,13.4 5.9,12.4 6.1,11.5 6.3,10.5 6.4,9.7 6.6,8.8 6.8,8 7,7.2 7.1,6.3 7.2,5.5 7.3,5.1 7.4,4.7 7.4,4.3 7.4,4.2 7.4,4.2 7.5,4.1 8.3,3.5 9.2,3 10.2,2.6 c 1.5,-0.6 3,-1 4.6,-1.2 1.6,-0.2 3.3,0 4.9,0.4 0,0 0,0 0,0 z"
               inkscape:connector-curvature="0"
               style="fill:#c51087" /><path
               id="path30"
               d="m 27,25.1 c -0.4,0 -0.8,0.2 -1.2,0.3 -1.3,0.3 -2.5,0.6 -3.7,0.9 -2.3,0.6 -4.7,1.2 -7,1.8 -1.3,0.4 -2.7,0.7 -4,1.1 0,0 -0.1,0 -0.1,0.1 -0.7,-0.3 -1.4,-0.6 -2,-1 1,-0.5 2,-1 3.1,-1.5 0.9,-0.4 1.8,-0.8 2.6,-1.2 1,-0.5 2,-0.9 3,-1.4 1,-0.5 2,-0.9 3,-1.4 1.3,-0.6 2.5,-1.1 3.8,-1.7 1.1,-0.5 2.1,-0.9 3.2,-1.4 0.9,-0.4 1.8,-0.8 2.6,-1.1 -0.4,2.1 -1.3,4 -2.5,5.7 -0.4,0.2 -0.6,0.5 -0.8,0.8 z"
               inkscape:connector-curvature="0"
               style="fill:#e5007e" /><path
               id="path32"
               d="M 7.5,4.1 C 7.5,4.5 7.4,4.9 7.3,5.3 7.2,6.2 7,7 6.9,7.9 6.8,8.4 6.6,8.9 6.6,9.5 6.4,10.6 6.1,11.7 5.9,12.9 5.7,13.8 5.5,14.7 5.3,15.6 5,16.9 4.7,18.2 4.4,19.5 4.2,20.4 3.9,21.3 3.7,22.2 3.6,22.4 3.6,22.6 3.5,22.8 2.9,21.8 2.5,20.7 2.2,19.6 1.8,18 1.6,16.4 1.7,14.7 2,10.5 3.8,7.2 7,4.5 7.2,4.4 7.3,4.2 7.5,4.1 Z"
               inkscape:connector-curvature="0"
               style="fill:#ab2222" /></g></g></g><g
         id="g34"><g
           id="g36"><path
             id="path38"
             d="m 16.2,31.3 c -1.4,0 -2.7,-0.2 -4.1,-0.5 C 10,30.3 8.1,29.3 6.4,28.1 4.8,26.9 3.4,25.3 2.3,23.6 1.2,21.8 0.5,19.9 0.2,17.9 -0.1,15.8 0,13.7 0.5,11.7 1,10 1.7,8.4 2.7,6.9 3.7,5.5 4.8,4.3 6.2,3.2 7.6,2.2 9.1,1.4 10.7,0.8 12.3,0.2 14.1,0 15.8,0 c 1.4,0 2.7,0.2 4.1,0.5 2.1,0.5 4,1.5 5.7,2.7 1.6,1.2 3,2.8 4.1,4.5 1.1,1.8 1.8,3.7 2.1,5.7 0.3,2.1 0.2,4.2 -0.3,6.2 -0.4,1.7 -1.2,3.3 -2.2,4.8 -1,1.4 -2.1,2.6 -3.5,3.7 -1.4,1 -2.9,1.8 -4.5,2.4 -1.6,0.5 -3.4,0.8 -5.1,0.8 z M 15.8,0.5 c -1.7,0 -3.4,0.3 -5,0.8 C 9.2,1.8 7.8,2.6 6.4,3.6 5.1,4.6 4,5.8 3,7.2 c -1,1.4 -1.7,3 -2.1,4.6 -0.5,2 -0.6,4 -0.3,6 0.3,1.9 1,3.8 2,5.5 1,1.7 2.4,3.2 4,4.4 1.7,1.2 3.5,2.1 5.6,2.7 1.3,0.3 2.7,0.5 4,0.5 1.7,0 3.4,-0.3 5,-0.8 1.6,-0.5 3.1,-1.3 4.4,-2.3 1.3,-1 2.5,-2.2 3.4,-3.6 1,-1.4 1.7,-3 2.1,-4.6 0.5,-2 0.6,-4 0.3,-6 -0.3,-1.9 -1,-3.8 -2,-5.5 C 28.4,6.4 27,4.9 25.4,3.7 23.7,2.5 21.9,1.6 19.8,1 18.5,0.6 17.1,0.5 15.8,0.5 Z"
             inkscape:connector-curvature="0"
             style="fill:#e71d73" /></g></g></g></g></svg>