<svg xmlns="http://www.w3.org/2000/svg" viewBox="0 0 179.91 193.63" preserveAspectRatio="xMaxYMax meet"><path fill="#044c4c" d="M133 137.32c0-5.5.1-11 .5-16.5.5-7.4 1.3-14.8 3-22 1.8-8 4.4-15.6 8.5-22.7.4-.8.9-1.5 1.4-2.3.2-.4.5-.5.9-.5h14c.6 0 .8.3 1.1.7 2.3 3.7 4.2 7.5 5.8 11.6 2.4 6.2 4.1 12.7 5.2 19.2.8 4.9 1.4 9.9 1.7 14.9.2 2.9.3 5.8.4 8.7.3 7.5.1 15 .1 22.6v.5c0 .3-.1.5-.4.5h-15.4c-.5.1-.7-.2-.7-.7v-11.7c0-.5-.1-.7-.7-.7h-8.3c-.7 0-.7 0-.7.8v11.6c0 .6-.2.7-.7.7h-14.6c-1.2 0-1 .1-1-1-.1-4.7-.1-9.2-.1-13.7zm-41.4-16h7.5c.8 0 .8 0 .8.8v7c0 1.9.1 3.9.6 5.8.2.7.4 1.3.7 1.9.9 1.5 2.3 2.2 4.1 2.2 1.7 0 3-.9 3.8-2.3.7-1.3.9-2.7.9-4.1 0-3.7-1.1-7-3.5-9.8-2.3-2.6-4.8-4.9-7.5-7.1-3.9-3.3-7.6-6.8-10.7-11-2.1-2.9-3.9-6-4.6-9.6-.9-4.9-.4-9.6 2.1-14 2.4-4.4 6.4-6.8 11.1-8 3.9-1 7.9-1 11.8-.7 2 .2 3.9.5 5.9 1 5.5 1.5 8.9 5.2 10.3 10.7.7 2.6 1 5.3 1 8 .1 1.8 0 3.5 0 5.3 0 .5-.1.8-.7.7h-13.6c-.5 0-.7-.2-.7-.7v-4.2c0-.9-.1-1.7-.3-2.5-.8-3.5-3.3-4.8-6.6-4.4-3.8.5-5.1 4.4-3.5 7 .8 1.4 1.9 2.7 3 3.9 2.9 3.1 6.2 5.7 9.5 8.4 2.1 1.6 4.2 3.2 6.1 5 3.8 3.7 6.2 8.2 6.9 13.4.7 5 .7 10-.5 14.9-1 4-2.9 7.5-6.3 10.1-2.4 1.8-5.2 2.9-8.2 3.4-4.8.8-9.7.8-14.5-.4-5.6-1.4-9.6-4.6-11.7-10.2-.6-1.7-1.1-3.5-1.3-5.4-.3-2.1-.4-4.3-.4-6.5v-7.9c0-.8 0-.8.8-.8 2.6.1 5.1.1 7.7.1z"/><path fill="#bdbab9" d="M85.7 146.53c.8.6 1.4 1.5 2.1 2.3 1.5 1.5 3.3 2.6 5.3 3.4 2.5 1 5.2 1.6 7.9 1.8 2 .2 4 .2 6.1.1 4.7-.3 9.2-1.3 13-4.2 1.1-.8 2-1.8 2.8-2.7.3-.3.6-.5 1.1-.5h6.8c.8 0 .8 0 .8.8v4.7c0 .9 0 .9.9.9h17.1c.9 0 .9 0 .9-.9v-4.7c0-.8 0-.8.8-.8h5.5c.9 0 .9 0 .9.9v4.2c0 1.5-.1 1.3 1.4 1.4h16.5c1.1 0 1.1 0 1.1-1v-4.6c0-.8 0-.8.8-.8h1.6c.8 0 .8 0 .8.9v19.4c0 .4-.2.6-.6.6H99.8c-.4 0-.9-.2-1.3.2-.4.3-.8.4-1.3.4H87c-4.2 0-8.5.1-12.7 0h-2.2c-2.3 0-4.6.2-6.9-.1-.1-.1-.2-.1-.3-.2-.4-.3-.9-.2-1.3-.2H1.5c-1.7 0-1.5.2-1.5-1.5v-18.9c0-.3.2-.5.5-.5h4.7c.5 0 .6.4.7.7.5 1 1.1 1.9 1.8 2.8 1.7 2.1 3.9 3.2 6.5 3.8 1.8.4 3.6.4 5.4.1 2.2-.4 4-1.4 5.6-2.8.2-.2.4-.4.7-.6.5.4.6 1.1.8 1.7.3.6.6.9 1.3.8 1.5-.1 3 0 4.5 0 .5 0 .8-.2.7-.7v-4.8c0-.9 0-.9.9-.9h3.6c.8 0 .8 0 .8.9v4.6c0 1 0 1 .9 1h11c.9 0 .9 0 .9-1v-4.4c0-1.1 0-1.1 1-1.1h4.2c1 0 1 0 1 .9v4.6c0 .9 0 .9.9.9h11.1c.8 0 .8 0 .8-.8v-5.7c.5-.5 1.2-.3 1.8-.4h12c.7-.3 1.2-.3 1.6 0z"/><path fill="#888482" d="M26.4 148.03c-.5.5-.8.9-1.1 1.3-2.5 3-5.7 4-9.5 3.6-1.9-.2-3.6-.8-5.1-1.9-1.7-1.2-2.9-2.9-3.7-4.8-1.2-2.8-1.8-5.7-2.1-8.6-.5-4.2-.6-8.5-.6-12.7v-23c0-3.3 0-6.6.2-9.9.2-3.5.6-7.1 1.6-10.5.3-1.1.7-2.1 1.2-3.1 1.8-3.6 4.8-5.5 8.8-5.9 2-.2 4-.2 5.9.3 3 .8 5.2 2.5 6.7 5.2 1.4 2.5 2.1 5.3 2.5 8.2.6 4.1.7 8.2.7 12.3 0 .9 0 1-.9 1h-8.5c-.9 0-.9 0-.9-.9 0-2.3 0-4.7-.1-7-.1-.9-.1-1.7-.3-2.5-.4-2.1-1.9-3.1-4-2.7-1.1.2-1.9 1-2.2 2.1-.3 1.3-.4 2.7-.4 4v34.7c0 2.3-.1 4.5.2 6.8.1.9.2 1.8.4 2.6.5 1.6 1.7 2.5 3.3 2.5 1.5 0 2.7-.9 3.3-2.4.5-1.4.6-2.9.6-4.4.1-4.8.1-9.6.1-14.4 0-.8 0-.8-.8-.8H20c-.4 0-.5-.2-.5-.5v-10.2c0-1.1 0-1.1 1-1.1h10.4c1 0 1 0 1 1v44.7c0 1 0 1-1 1h-2.1c-.5 0-.8-.2-1-.6-.4-1.2-.9-2.2-1.4-3.4zm32.4-35.6v-38.2c0-.9 0-.9.9-.9h13.8c1.7 0 3.3.2 4.9.8 2.9 1.1 4.8 3.2 5.8 6.1.2.4 0 .8-.1 1.1-1.7 3.5-2.3 7.1-2.1 11 .1 3 1 5.8 2.3 8.4.4.8.8 1.5 1.2 2.2.2.4.4.7.3 1.2-.3 2.1-.7 4.1-1.6 6-1.1 2.6-3.1 4.2-5.9 5-1.8.5-3.5.7-5.4.7h-3.4c-.5 0-.7.2-.7.7v34.5c0 .8 0 .8-.8.8h-8.6c-.7 0-.7 0-.8-.8v-.7c.2-12.6.2-25.2.2-37.9z"/><path fill="#99c0e7" d="M61.7 30.93c-.9 0-1.7.3-2.5.5-5 1.5-9.6 3.7-13.6 7.2-.7.6-1.3 1.3-1.9 2 .1.4.4.4.7.5 3.5 1.8 7.1 3.3 10.8 4.6 4.5 1.6 9.1 2.8 13.6 4.1.2.1.5.1.7.1 4 .5 7.7 1.9 11.6 2.8 1.4.4 2.9.8 4.3 1.3.5.2 1 .3 1.4.7 2.6.9 5.3 1.8 7.8 3 4.4 2 8.6 4.2 12.3 7.3 1.3 1.1 2.5 2.3 3.8 3.5.9.8 1.7 1.6 1.7 2.9-.5 0-1-.2-1.5-.4-.5-.3-1-.5-1.3-1.1-.8-.9-2-1.4-3-2-2.6-1.5-5.3-2.6-8.1-3.7-3.7-1.5-7.5-2.7-11.3-3.9-.1 0-.1-.1-.2-.1h-.2c-.5.3-1 0-1.4-.1-6.3-2-12.7-3.8-19.1-5.8-.5-.1-1-.2-1.2-.7-2.3-.8-4.6-1.6-6.8-2.4-4-1.4-7.9-3.1-11.5-5.2-2.5-1.5-4.9-3.2-6.7-5.6-.7-1-1.2-2-1.6-3.1-.2-.6-.1-1.1.3-1.6 1.8-1.8 3.5-3.6 5.7-5.1 4.2-2.9 8.8-4.6 13.7-5.7l2.6-.6c0-.1.1-.2.2-.2 1.1-.3 2.2-.4 3.2-.5.6 0 1.2-.1 1.8-.2 3.1-.4 6.3-.1 9.4-.3 1.2-.3 2.3-.7 3.5-1 .1 0 .2-.1.3-.1.3 0 .5-.1.8-.2l2.1-.6c.5-.1 1-.3 1.5-.4.5-.1 1-.3 1.5-.4.5-.1 1-.3 1.5-.4.7-.1 1.3-.4 1.9.3.3.2.6.3 1 .4 4.1 1.4 8.2 2.8 12.4 4.2.4.1.8.2 1.2.5-.8 1.7-2 3.1-3.4 4.4-1.3 1.1-2.7 2.1-4.2 2.9-.5.3-1 .3-1.5.2-1.8-.5-3.6-.9-5.5-1.3-.3-.1-.6-.1-.9-.1-.1 0-.2.1-.3.1-.9 0-1.7-.3-2.6-.5-.3-.1-.6-.2-.9-.2-.3-.1-.6-.1-.9-.2-.1 0-.2 0-.3-.1-.2-.1-.5-.1-.7-.2-.4-.1-.7-.1-1.1-.2-.9-.2-1.9 0-2.9-.2-.6-.2-1.1-.1-1.7-.1-4.4 0-8.8.4-13.1 1.1-.1 0-.2.1-.3.1-.3 0-.6.1-1 .1 0-.2 0-.3-.1-.3z"/><path fill="#888482" d="M50.2 112.53v38c0 1.5.1 1.3-1.3 1.3h-8.1c-.8 0-.8 0-.8-.8v-76.3c0-1.6-.2-1.4 1.4-1.4h7.8c1 0 1.1 0 1.1 1v20.1c-.1 6.1-.1 12.1-.1 18.1z"/><path fill="#e9f5fb" d="M134.3 28.52c.6-1.3 1.5-2.4 2.2-3.6 1.4-2.3 3.1-4.5 4.4-6.9.2-.4.6-.7.8-1.1.3.1.2.4.2.6v58.7c0 .6-.2 1.2 0 1.9.1.3-.1.6-.2.8-1.2 2.2-2.1 4.6-3 6.9-.9 2.3-1.6 4.7-2.3 7.2-.2.7-.2 1.4-.8 1.9-1-.3-1.3-.7-1-1.5.3-.7.5-1.3-.1-2-.3-.4 0-.7.2-1.1.3-.7.1-1-.7-.9-.6.1-1.4 0-1.6-.5-.1-.6.7-.8 1.1-1.1.2-.1.4-.2.6-.2.7-.2.9-.7.7-1.3-.1-.4-.1-.8-.2-1.1-.4-2.6.5-5.1-.1-7.7v-.3c.7-2.2.4-4.6.3-6.8 0-1.8.4-3.7-.3-5.6-.1-.4-.2-.8-.7-1-.3-.1-.6-.2-.6-.5 0-.4.3-.5.6-.6.2 0 .4-.1.4-.3-.3-.5-1.5-.6-1-1.5.4-.6.9 0 1.6.3-.3-1.6-.1-3.1-.2-4.5-.1-.7-.5-.7-1-.3-.3.2-.7.6-1 .2-.4-.5.1-.9.4-1.2.4-.4.9-.4 1.5-.4-.2-.6-.7-.5-1-.7-.3-.1-.6-.2-.6-.5s.3-.5.6-.5c1 0 1-.6 1-1.3.1-1.7.3-3.5-.4-5.1 0-.1-.1-.2-.1-.2.8-.9-.1-1.4-.4-2.1-.1-.3-.2-.5-.2-.8 0-.3-.1-.8.3-.9.5-.2.6.3.8.6.3-1.4-.1-2.7 0-4-.2-.1-.3 0-.4.1-.4.3-.9.4-1.2-.1-.3-.5.1-.7.5-1 1-.6 1.3-1.5.8-2.6v-.3c.1-.2.6-.4 0-.7-1-.6-1.1-1.8-.4-2.6.3-.3.6-.6.3-1.1-.1-.3 0-.6.2-.9.7-.9.5-1.4 0-1.8z"/><path fill="#e4f3fa" d="M134.3 28.52c.8.1 1 .3.8 1-.1.3-.2.5-.4.7-.2.2-.2.4 0 .7.4.5.2.7-.3 1-.6.4-.7 1.6-.3 2.1.1.2.2.3.4.2.3-.1.6-.1.7.2 0 .3-.1.6-.5.7h-.2c.2.3.7.3.5.8-.2.7.1 1.7-.9 2.1-.2.1-.5.2-.7.3-.3.1-.3.3-.2.5.1.2.4.4.6.2l.6-.6c.3-.2.6-.1.6.3-.2 1.7.3 3.3-.1 5-.4 0-.4-.3-.5-.5-.1-.2 0-.4-.2-.6-.1-.1-.2-.1-.3-.1l-.1.1c-.2.5.2 1.8.6 2.1.8.6.8.9-.1 1.4.6.5.6 1.2.6 1.9.1 1 .1 2.1 0 3.1 0 .3-.1.6 0 1 .1.6-.4 1.1-1 1-.2 0-.3-.1-.5 0-.1.1-.2.2-.2.3 0 .1.1.2.2.2.2 0 .4.1.6.1.9.1 1.1.3.8 1.3-1-.4-1.6-.2-2.1.7-.1.1-.1.3 0 .4.1.1.3 0 .4-.1 0-.1.1-.1.1-.2.3-.4.7-.7 1.2-.5.5.2.5.7.5 1.1 0 1.4-.1 2.8.2 4.1.1.2 0 .4-.2.6-.3.2-.5 0-.6-.2 0 0 0-.1-.1-.1-.2-.3-.4-.5-.8-.3-.1 0-.2.2-.2.2 0 .4.3.6.6.7h.2c.4 0 .7.2.7.7 0 .5-.4.5-.8.4h-.3c-.1 0-.3.1-.3.3 0 .2.1.3.2.3.8-.1.9.5 1 1 .4 1.3.4 2.5.2 3.8-.1.4-.1.8.1 1.1.3.5.3.9.1 1.4-.2.7-.1 1.4-.1 2.1.1.8-.3 1.5.1 2.4.2.4-.1 1-.3 1.5-.2.3-.2.7 0 1 0 .1.1.1.1.2-.5 1 .4 2.1 0 3.1-.1.2-.1.5 0 .7.1.5.3 1-.3 1.4-.3.2-.1.6.1.8.4.3.5.7.2 1.1-.2.2-.1.4.1.7.3.4.2.9.1 1.4-.1.3-.3.7-.6.6-.9-.2-1.3.6-2 1 .5.1 1 .6 1.6.2.3-.2.7 0 .9.3.3.3.2.7.1 1.1-.2.5-.2.9.1 1.4.1.2.2.4.1.6-.1.2-.1.4-.2.6-.5 1.1-.5 1.1.5 1.9-.3.6-.5 1.2-.9 1.8-2 3-3.7 6.2-5.4 9.4-.1.2-.2.4-.5.5-.5-.6-.3-1.3-.3-1.9v-63.6c0-1.2 0-2.3.1-3.5.8-1.3 1.6-2.6 2.3-3.8l.2-.2c.1-.1.1-.3.2-.4l.2-.2v-.2c.4-.1.5-.5.6-.9l.2-.2c.3-.5.7-.7 1.4-.5-.2-.4-.7-.7-.3-1.2v-.2l.2-.2c.1-.3.3-.6.4-.9.3.4.4.3.5.2z"/><path fill="#a2d9f1" d="M65 53.73c2.4.8 4.8 1.6 7.3 2.3 2.4.7 4.9 1.4 7.3 2.2 2.4.7 4.8 1.4 7.2 2.2v15.8c0 1.6-.1 1.7-1.3 3-.3-.2-.3-.5-.5-.8-2-3.9-5.3-5.7-9.5-6.1-3-.3-6-.1-9-.2-1.4 0-1.3.1-1.3-1.3-.2-5.8-.2-11.5-.2-17.1z"/><path fill="#e2f2f8" d="M128.5 37.73c.4.4.2.9.2 1.3v67.7c-.1.8-.7 1.4-1 2.1-1.1 1.9-2.2 3.9-3.2 5.8 0 .1-.1.1-.3.2-.9-1.2-1.7-2.5-2.7-3.6.5-1.7.2-3.4.3-5.2.1-2.2-.2-4.4.2-6.6h4.4c.9 0 .9 0 .9-.9v-8.5c-.3-.5.1-1-.2-1.5v-1.1c-.2-.2 0-.6-.2-.9-.3-1.7-.7-3.4-1.3-5.1-.3-.7-.6-1.4-.8-2.2-.1-2 .1-4 0-5.9v-1.5c.1-1.1.2-2.2 0-3.3-.1-.5-.1-.9 0-1.4.4-2.9 0-5.8.1-8.7.1-2.2.1-4.4.1-6.6-.1-2.3-.2-4.5-.1-6.8 0-.4-.1-.7-.2-1 .8-1.4 1.6-2.7 2.5-4.1.2-.4.4-.7.7-1 .1-.1.1-.3.2-.4l.2-.2v-.2l.2-.2v-.2c-.1.1 0 .1 0 0z"/><path fill="#a2d9f1" d="M70.4 133.72v-12.1c1.3-1.8 2.9-3.2 4.7-4.5.9-.1 1.7-.3 2.6-.4 4.2-.8 7-3.2 8.4-7.2l.3-1.1c.6.1.3.6.3.8v4.5c0 .3-.1.7.1 1 .1.6-.2 1.1-.5 1.7-.5 1.1-1.1 2.2-1.6 3.3l-.2.2c-.1 0-.2.1-.3.1h-1.6c-.6 0-.7.2-.7.8v4.8c-.8 2.5-2.1 4.9-3.2 7.3-1.4 3.2-2.8 6.5-4.3 9.7-.1.2-.2.4-.3.5-.7.4-.8-.2-1-.6-.9-2.8-2.2-5.7-2.7-8.8z"/><path fill="#cfeaf4" d="M87.2 167.82h11.5l-3.6 9c-.8 1.9-1.5 3.8-2.2 5.8l-3.6 10.2c-.1.3-.2.5-.5.8-.7-1.1-1.5-2.1-2-3.3.2-2.1.3-4.2.2-6.3-.1-2.2-.1-4.5.1-6.7.2-2.3 0-4.6 0-7-.1-.9-.1-1.7.1-2.5z"/><path fill="#cae8f2" d="M87.2 167.82c.1.5.3 1 0 1.5-.1.2 0 .6 0 .8 0 .2.2.4.1.5-.3 1.2.2 2.4-.2 3.6-.1.5.2.9.2 1.4-.1 1.2.2 2.4-.4 3.6-.1.3-.2.7 0 .9.4.6.3 1.2.1 1.8-.2 1.1.1 2.2.3 3.2 0 .2.2.5 0 .7-.4.6-.3 1.3-.2 1.8.2.7-.2 1.3-.1 2 0 .2-.2.3-.4.4-.1-.1-.1-.3-.2-.4l-.2-.2v-.2c-.1-.1-.1-.3-.2-.4-.1-.1-.1-.2-.2-.2-.1-.1-.1-.3-.2-.4l-.2-.2v-.2c-.1-.1-.1-.2-.2-.2-.1-.1-.1-.3-.2-.4l-.2-.2v-.2c-.1-.1-.1-.2-.2-.2-.1-.1-.1-.3-.2-.4-.9-1.1-1.5-2.5-2.2-3.7-.3-.6-.7-.8-1.3-.8h-15c-.8 0-.8 0-.8-.8v-13.1h.2c.4.4.3 1 .3 1.5v10.4c0 1.3.1 1.4 1.4 1.4h13c.9 0 1-.1.6-.9-2.2-3.8-4-7.7-6-11.6-.1-.3-.3-.6-.1-.9 4.2.1 8.4.1 12.7.1z"/><path fill="#ddf0f8" d="M112.3 71.53c-.3-.9-.8-1.6-1.4-2.3-.1-.2-.3-.4-.3-.6 1.3-2.5 2.7-5 4.1-7.5l4.5-7.8c.5-.9 1.1-1.9 1.6-2.8l.2-.2v-.2l.2-.2c.8.3.7 1 .7 1.6-.1 1.8.3 3.6.1 5.4-.3 2.5.2 4.9 0 7.4-.1.9.1 1.8.1 2.7.1 1.9-.1 3.8-.2 5.7 0 1.6-.6 2-2.1 1.3-.3-.1-.5-.2-.8-.3-.2-.1-.4-.1-.6-.2-1.7-.9-3.5-1.3-5.3-1.9-.1-.1-.5 0-.8-.1z"/><path fill="#bbe2ee" d="M57.4 122.03c-.6-1.9-1.1-3.7-1.7-5.6-.7-2.2-1.3-4.5-2-6.7-.7-2.4-1.5-4.8-2.2-7.2-.1-.2-.1-.5-.1-.7 0-5.7 0-11.3.1-17.1.4.7.7 1.5 1 2.2 1.6 3.9 3.2 7.9 4.8 11.8.2.4.2.7.2 1.1v22.1c0 .1 0 .1-.1.1z"/><path fill="#c8e7f1" d="M74 143.13l.3-1c.8-1.6 1.5-3.3 2.2-4.9 1.1-2.5 2.1-4.9 3.3-7.4.7-1.4 1.1-2.9 2-4.2v4.3c0 3.4.3 6.8 1.1 10.2.5 2.1 1.4 4 2.5 5.9.1.2.2.3.3.6H74.6c-.5-.1-.7-.4-.7-.9 0-.9-.1-1.8.1-2.6z"/><path fill="#e2f2f8" d="M119.1 73.72c.6 0 1.2.2 1.8.3.5.1.7 0 .8-.5v-.8c0-1-.1-2 .2-3 .1-.5.1-1-.1-1.5-.1-.3-.2-.5 0-.8.2-.5 0-.9-.1-1.4-.2-.8 0-1.6.1-2.4 0-.2.1-.4.1-.5-.4-1.6-.2-3.2-.3-4.8 0-.3.1-.5.2-.7.1-.2.2-.4.1-.5-.4-.8-.1-1.6-.1-2.4 0-.4 0-.9-.1-1.3-.2-.5-.2-1 0-1.6.2-.7.1-1.4-.3-2 1-1.9 2.2-3.7 3.2-5.5.5.3.7.7.5 1.4-.1.1-.1.3-.1.4.4 1.4-.3 2.8.2 4.2.1.3 0 .6 0 1-.1 2.3.2 4.5-.2 6.8.4.8 0 1.6.1 2.4.1.7.1 1.4-.1 2.1-.1.2-.1.5 0 .7.2 1.3.2 2.5 0 3.8-.1.6-.2 1.2 0 1.8.3 1.2.1 2.3 0 3.5 0 .3-.2.6-.1.8.4 1-.1 2 .2 2.9v.2c-.3.8-.2 1.6 0 2.4.1.4 0 .7-.4.9 0 0-.1 0-.1-.1-1.4-2.5-3.2-4.3-5.5-5.8z"/><path fill="#f3e500" d="M79.1 22.13c-1.1.5-2.2.8-3.4 1.1-1 .2-2 0-3 .1-.6-.3-.1-.5.1-.6.7-.4 1.3-1 1.9-1.6 2.6-2.7 3.4-6.4 1.8-10-1.4-3.2-4.2-5.3-8.1-5.3-.7 0-1.3 0-2 .1-.3 0-.8.2-.7-.4.9-1.4 2.1-2.6 3.5-3.5 5 .7 8.8 3.1 10.9 7.7 1.7 3.8 1.4 7.6-.4 11.3-.3.3-.6.7-.6 1.1z"/><path fill="#d6edf6" d="M102.3 120.53c2 1.7 3.8 3.6 5 6 .7 1.5 1.1 3 1.2 4.7.1 1.4.1 2.7-.3 3.9-.3 1.1-1 2-2.1 2.5-1.8.7-3.8-.4-4.2-2.3.2-.7.1-1.4.1-2.1v-11.1c0-.6-.1-1.1.3-1.6z"/><path fill="#b3dfec" d="M35 50.63c.8 1 1.3 2.3 2 3.4 2.7 5.1 5.2 10.2 7.8 15.4.4.8.7 1.6 1.1 2.5-.7.2-1.4.1-2 .1h-2.2c-.5 0-.8-.2-.9-.6-.8-2.1-1.6-4.1-2.5-6.2-1-2.4-2-4.7-3-7-.4-.8-.7-1.7-1.1-2.5.3-.4.4-.9.3-1.4-.2-.9 0-1.8.1-2.7 0-.5 0-.8.4-1z"/><path fill="#cfeaf4" d="M84.4 119.92l2.4-5.1c1-1.6 1.7-3.3 2.5-5 .1-.3.2-.6.6-.9.5.5 1 .9 1.4 1.5.7.8 1.4 1.6 2.2 2.2.4.3.8.7 1.1 1.2.3 1.8.1 3.7.1 5.5 0 .4-.2.8-.7.8-3.2-.2-6.4 0-9.6-.2z"/><path fill="#f8e700" d="M79.1 22.13c-.2-.1-.5-.1-.4-.4 0-.1.1-.2.2-.3 1-1.6 1.5-3.4 1.8-5.2v-.5c-.1-1.3-.1-2.6-.2-3.8-.1-1-.6-1.9-1.1-2.7-1.2-2.2-2.8-4-5-5.2-1.2-.7-2.5-1.1-3.9-1.4-.6-.1-1-.4-1.6-.6.8-.6 1.6-1.1 2.5-1.3.2-.2.4-.1.7-.1h.3c.1 0 .3 0 .4.1.1 0 .1.1.2.1.1.1.3.1.4.2.1 0 .1 0 .2.1s.3.1.4.2c.1 0 .3.1.4.2.1.1.2.1.3.2.1 0 .1.1.2.1.1.1.2.1.3.1.1 0 .1.1.2.1s.2.1.3.1c.1 0 .1.1.2.1s.1.1.2.1c0 0 .1 0 .1.1.1 0 .1.1.2.1s.1.1.2.1.1.1.2.1c0 0 .1 0 .1.1.1 0 .1.1.2.1.1.1.3.2.4.3.1 0 .1.1.2.2 0 0 .1 0 .1.1.1 0 .1.1.2.1.2.1.3.3.4.4 0 .1.1.1.1.2l.1.1c.1 0 .1.1.2.2s.2.2.3.2c.1.1.2.2.3.2.2.1.4.3.5.5 0 .1.1.1.1.2s.1.2.1.2c.1.1.1.2.2.3l.2.2c.1.1.1.2.2.2 2.8 4.2 3.2 8.6 1.7 13.3-.2.5-.3.9-.3 1.4-.7.4-1.4.5-2.1.6-.2.2-.5 0-.6.2l-.3.1z"/><path fill="#ddf0f8" d="M121.9 99.53c.1.3.3.5.2.8-.2 1.4.1 2.8-.1 4.1-.1.7 0 1.4 0 2.1.1.8-.2 1.6-.1 2.4v.9c0 .5.1 1.1-.6 1.4-1.4-1.6-3-2.9-4.7-4.2-.5-.4-1.1-.8-1.5-1.3.2-1.6.1-3.2.1-4.8 0-.5 0-1 .3-1.4h6.4z"/><path fill="#d6edf6" d="M106.1 87.53c1.9.7 3 2 3.2 4 .2 1-.1 2-.1 2.9 0 1.6.2 3.1.1 4.7 0 .4.1 1.1-.6 1.1l-.2-.2c-2.6-2.2-5.1-4.6-7-7.5 1.5-1.6 3.3-3 4.6-5z"/><path fill="#fdc800" d="M84.7 30.63c.9.1 1.8.3 2.7.7-2.3 2.3-4.7 4.4-7.6 5.9-3 1.5-6.1 2.4-9.4 2.7-1.4.1-2.8-.2-4.2.2-.7-.8-1.4-1.6-1.7-2.6.3-.5.4-.6 1.5-.4 2 .3 3.9.1 5.9-.2 3.1-.4 6-1.6 8.6-3.3 1.2-.8 2.4-1.6 3.4-2.7.1-.2.4-.5.8-.3z"/><path fill="#d2ebf4" d="M84.4 119.92h9.3c.5 0 .7-.2.7-.7v-3.4c0-.7-.2-1.4.2-2.1l4.2 3.6c.8.7 1.6 1.3 2.3 2 .4.4.9.7 1.2 1.2v13.7c0 .4.2.9-.4 1v-.2c-.1-.1-.1-.3-.2-.4v-.2c-.2-.2 0-.6-.2-.9-.2-.5-.2-1.1-.2-1.7-.3-3-.2-6.1-.2-9.1 0-.6 0-1.2.1-1.8.1-.5-.1-.8-.7-.8h-16c-.1 0-.1-.1-.1-.2z"/><path fill="#a2d9f1" d="M86.7 54.73c-5.6-1.8-11.3-3.3-17-4.7-.1 0-.1-.1-.2-.1h16.1c1 0 1.1.1 1.1 1.1.1 1.2 0 2.5 0 3.7z"/><path fill="#acdcea" d="M28.4 43.42c-.2-.2-.3-.4-.4-.6-1.5-3-3-6-4.6-9-2.1-3.9-4.2-7.8-6.4-11.6l-.9-1.8c-.1-.2 0-.3.2-.2 4 5.6 7.6 11.3 11.2 17.1 1.1 1.7 2 3.5 3.1 5.2 0 1-.1 2 0 3 0 .3 0 .8-.6.8-.1-.1-.1-.3-.2-.4-.1-.1-.1-.3-.2-.4-.1-.1-.1-.3-.2-.4-.1-.1-.1-.3-.2-.4-.4-.4 0-1.1-.8-1.3z"/><path fill="#fdd700" d="M81.1 29.82c.4 0 .7 0 1 .2-2.3 2.4-5.2 3.8-8.4 4.8-2.9.8-5.8.9-8.7.4-.6-.1-1.3-.1-1.9-.1-.4-.8-.8-1.6-.9-2.5-.1-.5.3-.4.5-.4.7.1 1.4.1 2.1.3 2.9.8 5.7.4 8.6-.4 1.6-.5 3.2-1.1 4.7-2 .9-.7 2-.4 3-.3z"/><path fill="#9ac0e7" d="M57.5 144.53c-3-5.8-3.7-11.6 0-17.4v17.4z"/><path fill="#f8ec65" d="M61.2 16.63c.3-2 .8-3.9 1.5-5.7.2-.5.2-1 .6-1.3 1.6-1.2 3.3-1.9 5.4-1.8 2.9.3 5 1.7 6.1 4.4 1 2.6.6 5.1-1.3 7.2-3.7 4.2-10.3 2.8-12.1-2.3 0-.1-.1-.3-.2-.5z"/><path fill="#dbeff7" d="M108.7 100.33c.5-.5.3-1.2.4-1.7.1-.7-.1-1.5-.2-2.2-.1-1.4-.1-2.9.3-4.3 0-.2 0-.3.1-.5.3.3.2.7.2 1.1v5.6c0 1.1.1 1.1 1.2 1.1h5v5.1c0 .4.1.9-.4 1.1-.7-.3-1.3-.9-1.9-1.4-1.5-1.3-3.2-2.5-4.7-3.9z"/><path fill="#fcc300" d="M66.1 40.13c.4-.7 1.1-.6 1.6-.4 1.4.3 2.6-.1 4-.2 1.2-.1 2.4-.4 3.6-.8 1.4-.4 2.7-1 4-1.6 1.1-.5 2.2-1.2 3.2-1.9 1.4-.9 2.6-2.1 3.8-3.3.3-.3.6-.7 1.1-.6h.2c-.3.9-.5 1.9-1 2.7-1.3.8-2.5 1.8-3.7 2.7-2.1 1.6-4.6 2.5-7 3.4-2.8 1-5.8 1-8.7 1.2-.3-.2-.6-.5-.9-.9-.1 0-.1-.1-.2-.2v-.1z"/><path fill="#fbe200" d="M85.1 20.43c-.5.3-1 .4-1.5.4-.9.2-.7-.5-.6-.9.7-2 .7-4 .7-6.1-.1-2.7-.9-5.1-2.4-7.4-1.5-2.3-3.5-4.2-5.9-5.5-.3-.2-.8-.3-.5-.8.3 0 .7-.1 1 .1 1 0 1.9.3 2.7.8 3.9 2.9 6 6.9 6.8 11.6.3 2.1.2 4.3-.4 6.4-.1.5-.2 1 .1 1.4z"/><path fill="#fecf00" d="M84.7 30.63c-.2 0-.4 0-.5.2-.3.5-.8.8-1.2 1.2-1.5 1.4-3.2 2.2-4.9 3.2-1.1.7-2.5.7-3.6 1.5-.1.1-.2.1-.3.1-2 .2-4 .6-6.1.7-1.1 0-2.2-.2-3.2-.2-.2 0-.4 0-.5.2-.3-.5-.7-1-.8-1.5.1-.6.6-.4.9-.3 1.1.1 2.2.3 3.4.3 5.5 0 10.3-1.8 14.4-5.4.2-.1.3-.3.5-.4h.2c.3.3.6 0 .9.2.2 0 .5 0 .8.2z"/><path fill="#fae500" d="M74.8.23c.1.2.2.3.4.4 1.7.7 3 1.9 4.3 3.2 1.9 1.9 3.2 4.3 3.9 6.9.7 2.8.6 5.6 0 8.4-.1.4-.2.7-.4 1-.1.4-.2.7.4.8-.5.3-1 .4-1.5.4-.5-.1-.5-.3-.3-.7.3-.5.3-1.1.6-1.7.8-1.9.6-3.8.6-5.7 0-.9-.3-1.8-.6-2.7-.4-1.5-1.3-2.8-2-4.2l-.2-.2c-.1-.1-.1-.3-.2-.4l-.2-.2c-.1-.3-.4-.5-.6-.6l-.2-.2-.2-.2-.2-.2-.2-.2c-.1-.2-.2-.3-.4-.4l-.2-.2-.2-.2c-.1-.1-.3-.1-.4-.2l-.2-.2-.2-.2h-.2l-.2-.2-.2-.2h-.2l-.2-.2h-.2l-.2-.2H75l-.2-.2c-.1-.1-.3-.1-.4-.2-.1-.1-.3-.1-.4-.2h-.2c-.1-.1-.3-.1-.4-.2h-.2l-.2-.2h-.2c-.1 0-.1-.1-.1-.2s0-.1.1-.1c.2-.1.5 0 .7-.2h.4c.1-.3.5-.4.9-.2z"/><path fill="#c4e5f1" d="M74 143.13c.4.7.2 1.5.2 2.3 0 .4 0 .8.4 1.1h-4.2v-12.8c1 2.9 1.9 5.7 2.9 8.6.1.2.2.5.3.7 0 .3.2.2.4.1z"/><path fill="#afddeb" d="M29.9 46.42c.6-.3.5-.9.4-1.3-.3-.9-.1-1.7.3-2.5.6.7 1 1.6 1.5 2.4 1 1.7 1.9 3.4 2.8 5.1.1.2.2.4.2.6-.3 1.1-.5 2.2-.3 3.4.1.4.1.9-.1 1.4-.1.3-.3.2-.5.2-.1-.1-.1-.3-.2-.4-1.4-3.1-2.8-6-4.1-8.9z"/><path fill="#fcbe00" d="M67.2 41.33c.3-.3.6-.4 1-.4h1.2c2.8 0 5.3-.6 7.9-1.6 1.1-.4 2.2-.8 3.2-1.3 1.7-1 3.2-2.1 4.8-3.3.3-.2.6-.5.9-.7.1-.1.3 0 .4.1-.1.1-.1.3-.2.5v.2c-.1.1-.1.3-.2.4-.2.6-.4 1.2-.8 1.7-1.1.5-2.1 1.2-3.2 1.9-3 1.9-6.3 2.9-9.7 3.4-1 .2-2 .2-3 .3-.4.1-.7 0-1-.1-.6-.3-1-.6-1.3-1.1z"/><path fill="#f7ea4e" d="M61.2 16.63c.2-.1.4-.2.5.2.2.8.6 1.5 1.1 2.2 1.7 2.3 5.1 3.3 7.7 2.2 1.8-.7 3.1-2 3.9-3.6.6-1.2.7-2.5.5-3.8-.5-3-2.4-4.9-5.4-5.6-2.1-.4-4.1-.1-5.7 1.4-.1.1-.4.6-.5 0 .2-.1.1-.3.2-.4.1-.3.2-.6.4-.8 1.5-.7 3.1-1.2 4.8-1.1 4.2.1 7.8 4.5 7.1 8.6-.4 2.9-1.9 4.9-4.5 6.1-4.4 2-9.2-.5-10.4-4.4.1-.4.2-.7.3-1z"/><path fill="#fcde00" d="M85.1 20.43c-.4 0-.7 0-.5-.6.2-.5.2-1.1.3-1.5.6-1.8.4-3.6.3-5.5-.1-1.1-.3-2.2-.8-3.3-.6-1.5-1.3-2.9-2.1-4.2-.9-1.4-2.1-2.4-3.2-3.7-.2-.2-.4-.4-.5-.7 1.3.4 2.2 1.3 3.1 2.1 1.9 1.9 3.4 4.1 4.3 6.6-.1.5.2 1 .3 1.5.4 2.2.4 4.4.1 6.6-.1.7-.3 1.4.1 2.1-.4.5-.9.6-1.4.6z"/><path fill="#f4e724" d="M72.5 23.23c1.1 0 2.1 0 3.2.1-.1 0-.3.1-.4.1-3.2 0-6.3.1-9.5.3.4-.3.4-.3.9-.3-2.6 0-4.4-1.7-6-3.5v-.6c.2-.2-.1-.6.3-.6.3 0 .4.2.5.4 1.3 1.9 3 3.1 5.2 3.5 5.7 1 10-4.2 9-9.2-1-4.7-6.4-7.4-10.4-5.7-.4.2-.8.5-1-.2.1-.3.2-.6.4-.8 1.3-.3 2.6-.7 4.1-.5 3.5.4 6 2.1 7.4 5.3 1.4 3.1.9 6.1-1.1 8.8-1.1 1.5-2.5 2.8-4.6 2.9.8 0 1.4-.5 2 0z"/><path fill="#f4e700" d="M72.5 23.23h-1.9c.1-.3.3-.2.5-.2 1.9-.6 3.3-1.9 4.4-3.5 1.1-1.7 1.6-3.7 1.3-5.7-.3-2.1-1.1-4-2.9-5.3-1-.8-2-1.5-3.3-1.8-1.7-.4-3.5-.5-5.2.2-.3.1-.5.2-.5-.2.2-.4.4-.8.8-1.1.1.3.4.3.6.2 2.3-.4 4.4-.2 6.5.9 1.2.6 2.1 1.5 2.9 2.6 1.1 1.3 1.6 2.8 1.9 4.4.3 1.5 0 3-.5 4.5-.6 1.6-1.7 2.9-2.9 4.1-.6.3-1.1.5-1.7.9z"/><path fill="#fcde00" d="M81.1 29.82c-1.4-.2-2.6.1-3.7 1s-2.4 1.1-3.7 1.5c-2.4.9-4.9 1-7.4.9-.2 0-.4 0-.6-.1-1-.6-2.2-.3-3.3-.7l-.2.2c-.4-.5-.4-1.2-.6-1.8h.2c.2-.2.6 0 .9-.2h.2c4.4 1.7 8.6 1.1 12.7-.7.8-.4 1.6-.5 2.5-.3 1 0 2-.2 3 .2z"/><path fill="#f6e93d" d="M64.4 7.42c.3.4.6.2.8 0 2.7-1.4 6.4-.4 8.5 1.5 1.4 1.2 2.1 2.8 2.4 4.6.5 2.7-.4 4.9-2.2 6.9-2.3 2.5-5.1 2.9-8.2 2.1-2.1-.5-3.6-1.9-4.6-3.8-.3 0-.1.4-.4.4-.1-.6.2-1.1.2-1.7.1.1.3.2.4.4.6 1.2 1.3 2.2 2.4 3 1.6 1.1 3.3 1.7 5.3 1.4 1.2-.2 2.3-.5 3.3-1.2 1.7-1.1 2.8-2.6 3.1-4.7.1-1 .2-2 0-3-.4-1.8-1.3-3.2-2.7-4.3-1.7-1.4-3.7-1.8-5.9-1.5-.8.1-1.5.3-2.2.8-.3.2-.5.4-.8 0 .2-.4.4-.6.6-.9z"/><path fill="#fdd300" d="M82.7 30.23c0 .3-.1.5-.4.7-1.5 1.1-3 2.3-4.7 3.2-1.4.7-2.9 1.1-4.3 1.7-.2.1-.5 0-.7 0-.6 0-1.3 0-1.9.3-.2.1-.5.1-.7.1h-3.6c-.8 0-1.5-.2-2.3-.3-.2 0-.4-.1-.6.1-.2-.2-.4-.5-.4-.9s.3-.5.6-.4c.4.1.8 0 1.1.1 1.2.3 2.4.2 3.6.4.7.1 1.5-.1 2.3-.2 1-.1 2.1-.3 3.1-.5.9-.2 1.8-.7 2.6-1 1.5-.6 2.9-1.6 4.3-2.5l.6-.6c.2-.3.4-.3.7-.3.3-.1.6-.1.7.1z"/><path fill="#fbba00" d="M68.4 42.42c2.2-.3 4.4-.4 6.6-.9.8-.2 1.7-.4 2.5-.8 1.1-.4 2.3-.8 3.3-1.4 1.2-.8 2.5-1.4 3.6-2.2.3-.2.6-.6 1-.2 0 .1 0 .1-.1.2 0 .1-.1.2-.2.2-.2.6-.5 1-.9 1.5-2.7 2-5.8 3.1-9 4-1.7.5-3.5.6-5.3.7-.1 0-.1 0-.2-.1s-.2-.1-.3-.2c-.4-.1-.7-.4-1-.8z"/><path fill="#fab600" d="M69.9 43.52c.6-.3 1.2-.4 1.8-.4 2.5 0 4.7-.9 6.9-1.7 1.6-.6 3.1-1.3 4.5-2.2.3-.2.7-.3 1.1-.4-.5.8-.9 1.6-1.7 2.1-.1.1-.2.1-.2.2-2.7 1.6-5.7 2.6-8.8 3.2-.6.1-1.3.2-1.9 0-.6-.1-1.2-.4-1.7-.8z"/><path fill="#fcd900" d="M86.6 20.02c-.5 0-.7-.2-.6-.7.3-1.1.3-2.3.4-3.5.2-1.9-.1-3.6-.4-5.4 0-.3-.1-.5.2-.7 1.5 3.3 2.3 6.7 2.4 10.3-.7-.2-1.4-.1-2 0z"/><path fill="#9ac0e7" d="M106.1 87.53c.1.2.2.3 0 .5-1.3 1.6-2.8 3.1-4.3 4.5-.1.1-.3.1-.4.1-.3-.8-.5-1.6-.3-2.5.4-1.5 1.6-2.4 3.2-2.5.7-.1 1.3-.1 1.8-.1z"/><path fill="#fab31a" d="M71.6 44.33c2.3-.3 4.5-.9 6.8-1.6 1-.3 2-.9 2.9-1.3.3-.2.6-.3 1-.3-.5.9-1.3 1.4-2.1 1.9-2.5 1.8-5.3 2.4-8.4 1.4 0 0-.1 0-.2-.1z"/><path fill="#9ac0e7" d="M75 117.13c-.5.9-1.5 1.3-2.1 2-.8.8-1.6 1.7-2.5 2.4v-3.7c0-.7 0-.8.8-.8 1.2.1 2.5.1 3.8.1z"/><path fill="#f4e609" d="M60.8 19.82c.2-.1.4-.1.6.1 1.1 1.7 2.8 2.5 4.6 3.2.3.1.6.1 1 .1-.3.3-.9 0-1.1.4-.6.2-1.1.2-1.7.2.1-.6.5-.2.9-.2-1.7-.2-2.8-1.3-3.9-2.3-.2 1 .2 2-.3 3v.1c-.3-.3-.2-.7-.2-1.1-.1-1.2-.3-2.4.1-3.5z"/><path fill="#cfeaf4" d="M86.8 114.83c-.3-.3-.2-.6-.2-1v-4.4c0-.3.1-.7-.2-1 0-.3.2-.6.4-.8v7.2z"/><path fill="#e9f5fb" d="M133.4 30.02c0 .3.1.6.5.7.2 0 .4.2.3.5-.1.3-.3.4-.6.3-.5-.3-.9.1-1.3.3.2-.8.6-1.3 1.1-1.8z"/><path fill="#d8edf7" d="M109.6 70.03c.4.4 1 .5 1.3 1.1h-.4c-1.2 0-1.2 0-.9-1.1z"/><path fill="#afddeb" d="M28.4 43.42c.3-.2.5-.2.8.1.2.2.1.4 0 .6-.1.2-.1.4-.2.6-.3-.3-.5-.8-.6-1.3z"/><path fill="#c1e4ef" d="M16.3 20.23c-.1.1-.1.2-.2.2-.5-.5-.8-1.1-1.1-1.7-.1-.2 0-.3.2-.2.2.7.8 1.1 1.1 1.7z"/><path fill="#fae500" d="M74.8.23h-1.3c.8-.3 1.6-.3 2.4 0h-1.1z"/><path fill="#b3cfee" d="M87 106.13c-.1-.2 0-.5-.1-.7.7.3.7.3.1.7z"/><path fill="#e9f5fb" d="M132.1 31.93c0 .5 0 .9-.6.9l.6-.9z"/><path fill="#e4f3fa" d="M127 88.63c.4.5.1 1 .2 1.5-.4-.5-.1-1-.2-1.5z"/><path fill="#def0f7" d="M15.2 18.52l-.2.2c-.3-.2-.4-.5-.4-.8.3.1.5.3.6.6z"/><path fill="#e4f3fa" d="M126.8 86.72c.3.2.2.6.2.9-.3-.3-.2-.6-.2-.9z"/><path fill="#def0f7" d="M14.6 17.93c-.1-.1-.2-.1-.2-.2-.1-.1-.2-.2 0-.3 0 0 .2.1.2.2-.1.1-.1.2 0 .3z"/><path fill="#d6edf6" d="M101.5 133.53c.3.2.2.6.2.9-.3-.2-.2-.6-.2-.9z"/><path fill="#fae500" d="M72.5.42v.3h-.9c.3-.3.6-.3.9-.3zm.6-.2c-.2.2-.4.2-.7.2.2-.2.5-.2.7-.2z"/><path fill="#cfeaf4" d="M85.1 187.22c.2.1.2.2.2.4-.2-.1-.2-.2-.2-.4zm.6 1.1c.2.1.2.2.2.4-.2-.1-.2-.3-.2-.4zm.4.6c.2.1.2.2.2.4-.1 0-.2-.2-.2-.4zm-1.7-2.8c.2.1.2.2.2.4-.1 0-.2-.2-.2-.4z"/><path fill="#f8ec65" d="M63.5 9.13c0 .2 0 .4-.2.4 0-.1.1-.3.2-.4z"/><path fill="#cfeaf4" d="M86.6 189.82c.2.1.2.2.2.4-.2-.1-.2-.3-.2-.4z"/><path fill="#e4f3fa" d="M127.9 38.73c0 .2 0 .3-.2.4 0-.1 0-.3.2-.4z"/><path fill="#afddeb" d="M29 44.73c.2.1.2.3.2.4-.1-.1-.2-.2-.2-.4zm.3.4c.2.1.2.3.2.4-.2 0-.2-.2-.2-.4zm.2.5c.2.1.2.3.2.4-.2-.1-.2-.3-.2-.4zm.2.4c.2.1.2.3.2.4-.2-.1-.2-.2-.2-.4z"/><path fill="#fcc300" d="M86.1 35.13c0-.2 0-.3.2-.4 0 .2 0 .3-.2.4zm.3-.6c0-.2 0-.4.2-.5 0 .3-.1.4-.2.5z"/><path fill="#b3dfec" d="M34 55.23c.2.1.2.3.2.4-.2-.1-.3-.3-.2-.4z"/><path fill="#d6edf6" d="M101.7 134.63c.2.1.2.3.2.4-.2-.1-.2-.2-.2-.4z"/><path fill="#e9f5fb" d="M131.3 33.23c0 .2 0 .3-.2.4 0-.1 0-.3.2-.4zm1-1.5l-.2.2c.1 0 .2-.1.2-.2z"/><path fill="#fab600" d="M69.5 43.23c.1.1.2.1.3.2-.2 0-.3-.1-.3-.2z"/><path fill="#fab31a" d="M82.3 41.13c0-.1.1-.2.2-.2 0 .1-.1.2-.2.2z"/><path fill="#fdc800" d="M66.2 40.33l.2.2c-.2-.1-.2-.1-.2-.2z"/><path fill="#e9f5fb" d="M133.6 29.63l-.2.2c.1-.1.2-.1.2-.2z"/><path fill="#e4f3fa" d="M128.1 38.52l-.2.2.2-.2zm.2-.4l-.2.2.2-.2z"/><path fill="#cfeaf4" d="M84.6 186.63c.1.1.1.2.2.2 0-.1-.1-.2-.2-.2zm.3.4l.2.2c-.1-.1-.2-.1-.2-.2zm.4.6l.2.2c-.1 0-.2-.1-.2-.2zm.2.5l.2.2c-.1-.1-.1-.2-.2-.2z"/><path fill="#e4f3fa" d="M128.5 37.73l-.2.2.2-.2z"/><path fill="#cfeaf4" d="M85.9 188.72l.2.2c0-.1-.1-.1-.2-.2z"/><path fill="#fcbe00" d="M85.1 37.33c.1-.1.1-.2.2-.2l-.2.2z"/><path fill="#cfeaf4" d="M86.4 189.63l.2.2-.2-.2z"/><path fill="#e9f5fb" d="M134.3 28.52l-.2.2.2-.2z"/><path fill="#dbeff7" d="M108.5 100.13l.2.2-.2-.2z"/><path fill="#e9f5fb" d="M131.1 33.63l-.2.2.2-.2z"/><path fill="#a2d9f1" d="M87 60.33c.1 0 .1.1.2.1-.1 0-.2-.1-.2-.1z"/><path fill="#e2f2f8" d="M121.1 50.23l-.2.2.2-.2z"/><path fill="#e9f5fb" d="M131.5 33.02l-.2.2.2-.2z"/><path fill="#e2f2f8" d="M121.3 49.83l-.2.2.2-.2z"/><path fill="#cfeaf4" d="M84.4 119.92v.2h-.2c.1-.1.2-.1.2-.2z"/><path fill="#fff" d="M154.2 87.42c.6 1.2.8 2.3 1.1 3.4 1.3 4.7 2.1 9.4 2.6 14.2.7 6.3 1 12.7 1.2 19.1 0 .8 0 .8-.8.8h-8.1c-.9 0-.9 0-.9-.9.1-4.2.2-8.4.5-12.5.5-6.9 1.4-13.8 3.2-20.4.4-1.2.7-2.3 1.2-3.7z"/><path fill="#a2d9f1" d="M74.6 168.53c.3.2.4.6.6.9 1.1 2.2 2.2 4.3 3.2 6.5.7 1.5 1.5 2.9 2.3 4.3l.6 1.2c-.3.2-.6.1-.9.1H66c-.6.1-.8-.2-.7-.8v-12.8h7c.4.4.5 1 .5 1.5.2 2 .9 3.8 2.1 5.5.3.4.5.9.9 1.4-.5-2.4-.6-4.7-1.3-6.9-.1-.3-.1-.7.1-.9z"/><path fill="#fff" d="M75.5 158.63v5.8c0 .7-.6 1-1.2.7-.1-.1-.2-.2-.2-.3v-7.1c0-.8 0-.7.8-.8 1.1-.2 1.6.4 1.8 1.4.4-.1.4-.5.5-.7.2-.4.5-.6 1-.7 1.3 0 1.3-.1 1.3 1.3v6.3c0 .4 0 .7-.5.8-.6 0-.8-.1-.8-.8v-6c-.6.6-.6 1.2-.6 1.8v4.3c0 .6-.2.7-.8.7-.4 0-.6-.2-.6-.6v-3.2c0-.8-.2-1.5-.2-2.3-.1-.2-.2-.5-.5-.6zm-57.1-.4c.1-.2.1-.4.2-.6.2-.5.5-.7 1.1-.7h.4c.8 0 .8 0 .9.8v6.7c0 .7-.6 1-1.2.7-.3-.1-.2-.4-.2-.7v-6c-.4.3-.4.6-.4.9-.2 1.4-.2 2.8-.2 4.2v1c0 .5-.3.6-.7.6-.4 0-.6-.1-.6-.6v-4.2c0-.7-.1-1.4-.6-2.1v6.1c0 .4-.1.7-.6.7s-.7-.1-.7-.7v-7c0-.5.2-.6.7-.6 1 0 1.3-.3 1.7 1.1-.1.3-.1.7.2.4z"/><path fill="#fefefe" d="M69.2 157.93c.2-1 .2-.9.8-.9.5 0 .7.2.7.7v6.8c0 .5-.1.8-.7.8s-.7-.1-.8-.7v-3.2c0-.7-.1-1.4-.6-2.3 0 .4-.1.7-.1.9v4.6c0 .4-.1.8-.6.8-.7 0-.8-.1-.8-.8v-6.8c0-.2-.1-.5.2-.6.4-.1.8-.1 1.1.1.4.1.4.4.8.6zm-32.3 1.3v5.2c0 .7-.2.8-.8.8-.5 0-.7-.2-.7-.7v-6.9c0-.3-.1-.6.3-.7.3 0 .7-.1 1 .2.2.2.3.5.5.7.2 0 .3-.1.3-.2 0-.7 0-.8.7-.7.4 0 .6.2.6.6v7c0 .4-.1.7-.6.7-.6 0-.9-.1-.9-.6v-4.5c0-.3-.1-.6-.4-.9zm14.7 0v5.2c0 .7-.2.8-.8.8-.4 0-.6-.2-.6-.6v-6.9c0-.3-.2-.7.3-.8.4-.1.9-.2 1.2.4.1.2.3.4.4.6.2-.1.3-.2.2-.3-.2-.6.1-.7.6-.7.6 0 .7.1.7.8v6.6c0 .9-.1.9-.6.9-.7 0-.8-.1-.8-1v-3.6c-.1-.5-.2-.9-.6-1.4zm120.3 2.2v3.1c0 .7-.2.8-.9.8-.5 0-.6-.2-.6-.6v-7c0-.4.1-.7.6-.6h1.5c.9.1 1.3.5 1.3 1.4 0 .9 0 1.7-.3 2.6-.2.6.1 1.5.2 2.3 0 .4.1.7.1 1 0 .4.2.8-.4.9-.6.1-.7 0-.9-.7-.2-.9-.1-1.9-.3-2.8 0-.2 0-.3-.3-.4zm-41.5-.3v3.4c0 .7-.6 1-1.2.7-.2-.1-.2-.2-.2-.4v-7.1c0-.8 0-.8.8-.8 2.7-.1 2.7.4 2.6 2.5 0 .5 0 .9-.2 1.4-.2.5-.1 1.1 0 1.6.2.7.1 1.5.3 2.2.1.4 0 .6-.5.6-.7 0-.9 0-1-.5 0-.7-.3-1.5-.2-2.2.1-.4 0-.9-.4-1.4zm24.1-.1v3.5c0 .7-.1.8-.8.7-.4 0-.7-.2-.6-.6v-7c0-.5.2-.8.7-.8h1.5c.8.1 1.2.5 1.2 1.3 0 .9.1 1.7-.2 2.6-.2.4 0 1.1.1 1.6.1.7.1 1.4.2 2.1 0 .3.2.6-.3.6-.4 0-1 .3-1-.4-.1-.7-.3-1.3-.2-2-.2-.3-.2-.9-.6-1.6zm-47.1-.3v3.1c0 .2.1.5.3.5.2 0 .3-.3.3-.5v-6c0-.8.1-.9.9-.8.4 0 .5.2.5.6v5.7c0 .3-.1.7-.2 1-.2.5-.6.9-1.2.9-1.5.1-2.1-.4-2.2-1.9v-5.7c0-.7.1-.7.7-.7s.7.1.7.7c.2 1.1.2 2.1.2 3.1zm-100.3.4v-2.5c0-1.2.5-1.6 1.6-1.6 1.3 0 1.8.4 1.8 1.6v5.3c0 1.1-.6 1.5-1.8 1.5-1.1 0-1.6-.4-1.7-1.5v-.2c.1-.9.1-1.8.1-2.6zm154.3-3.1c.3-.4 0-1 .7-1 .8 0 .9.1.9.8v6.7c0 .7-.6 1-1.2.7-.3-.1-.2-.4-.2-.6v-3.5c0-.6-.1-1.2-.6-2v5.5c0 .5-.2.7-.7.7-.5 0-.7-.3-.7-.7v-6.8c0-.3-.1-.7.4-.7.4-.1.8-.1 1 .4.1 0 .2.2.4.5zm-126.6 3.1v2.3c-.1 1.5-1.1 2.2-2.6 1.7-.4-.1-.6-.3-.8-.7-.2-.4-.3-.9-.3-1.3v-4.5c.2-1.5 1.3-2.1 2.7-1.6.3.1.5.3.7.6.1.4.3.9.3 1.3v2.2z"/><path fill="#fff" d="M12.9 161.32c-.3.3-.2.7-.2 1v2.3c0 .5-.3.7-.7.7-.5 0-.6-.2-.6-.7v-7c0-.3.1-.6.4-.6.7 0 1.3-.1 2 .1.6.2.9.5.9 1.1 0 .9.3 1.8-.3 2.7-.2.3 0 .6 0 .9l.3 2.6c0 .3.1.7-.4.8-.5 0-.9 0-.9-.6l-.3-2.7c0-.2 0-.4-.2-.6zm99.2-1.4c0-1 .3-1.7.2-2.4 0-.4.2-.5.6-.5.4 0 .7 0 .7.5 0 .7.1 1.3-.1 2-.2.6-.2 1.1-.1 1.7.3 1.1.1 2.3.2 3.4 0 .5-.2.7-.7.7-.6 0-.7-.3-.6-.7.1-1-.1-2-.3-3.1-.3.4-.3.8-.3 1.2v1.9c0 .7-.6 1-1.2.7-.3-.1-.2-.4-.2-.6-.1-1 0-2 .2-3 .3-1 0-2-.1-2.9 0-.3-.1-.6-.1-.9 0-.7.6-1 1.2-.7.3.1.2.4.3.6-.1.5-.2 1.3.3 2.1z"/><path fill="#fffeff" d="M47.5 163.72c-.3.3-.2.6-.2.8-.1.7-.6 1-1.2.7-.2-.1-.2-.2-.2-.4 0-1.4-.1-2.8.1-4.2.1-.9.2-1.8.5-2.7.3-.8.3-.8 1.1-.8s.9 0 1.1.8c.4 1.2.5 2.4.6 3.7.1 1.1 0 2.1 0 3.2 0 .5-.2.7-.7.7-.7 0-.7-.1-.8-.7 0-.3.1-.6-.1-.8 0-.3-.1-.3-.2-.3z"/><path fill="#fefefe" d="M23.4 163.72c-.3.3-.1.7-.2 1.1-.1.6-.5.5-.9.5s-.6-.1-.6-.5c0-2.3-.1-4.5.5-6.7.3-1 .4-1 1.3-1 .6 0 .8.2 1 .7.6 2.3.7 4.7.6 7 0 .5-.4.5-.7.5-.4 0-.7 0-.8-.5 0-.3.1-.7-.1-1 .1-.1 0-.1-.1-.1z"/><path fill="#fff" d="M103.6 163.63c-.3.3-.2.6-.2.9-.1.7-.1.7-.8.7-.6 0-.7-.1-.7-.7 0-2 0-4 .4-6 0-.2.1-.4.2-.6.3-.8 1-1.2 1.8-.9.3.1.4.4.4.7.3 1 .5 2 .6 3 .1 1.3 0 2.6.1 3.9 0 .4-.2.6-.6.6-.6 0-.8-.1-.9-.7v-.5c-.1-.1-.1-.2-.3-.4z"/><path fill="#fffeff" d="M165.6 163.63c-.4.3-.2.7-.3 1-.1.5-.2.6-.9.6-.5 0-.6-.2-.6-.7 0-2.1-.1-4.2.4-6.3.1-.2.1-.4.2-.6.2-.7.3-.7 1.2-.7.6 0 .8.2 1 .7.6 2.3.7 4.7.6 7 0 .5-.4.5-.7.5-.4 0-.7 0-.7-.5 0-.2.1-.6-.2-1z"/><path fill="#fefefe" d="M140.4 163.63c.1-.9.2-1.7.2-2.6v-3.2c0-.7.6-1 1.2-.7.2.1.3.3.3.5 0 1.1.1 2.1-.1 3.2-.2.9 0 1.9-.3 2.8-.1.3-.1.5-.2.8-.3.8-.4.9-1.1.9-.8 0-.9-.1-1.2-.9-.3-.8-.4-1.6-.5-2.4-.1-1.4-.2-2.8-.2-4.1 0-.9.2-.9.9-.9.4 0 .6.2.6.6v3.1c0 .9.2 1.9.4 2.9z"/><path fill="#fff" d="M66.5 163.43v1.1c0 .7-.2.9-.9.8-.4 0-.6-.2-.6-.6 0-.4.2-1-.3-1-.6 0-.3.7-.3 1-.1.4-.2.6-.6.5-.4 0-.8 0-.9-.5 0-.6-.1-1.3 0-1.9.2-1.3.1-2.6.4-3.9.1-.4.2-.8.3-1.1.3-.8.3-.8 1.1-.8s.9.1 1.1.8c.2 1 .5 1.9.5 2.9.1 1 .2 1.9.2 2.7z"/><path fill="#fffeff" d="M83.8 163.43v1.1c0 .7-.2.9-.9.8-.4 0-.6-.2-.6-.6 0-.4.2-1-.3-1-.6 0-.3.7-.3 1-.1.4-.2.6-.6.5-.4 0-.8 0-.9-.5 0-.6-.1-1.3 0-1.9.2-1.3.1-2.6.4-3.9.1-.4.2-.8.3-1.1.3-.8.3-.8 1.1-.8s.9.1 1.1.8c.2 1 .5 1.9.5 2.9s.1 1.9.2 2.7z"/><path fill="#fff" d="M125.8 162.53v2c0 .7-.1.8-.7.8-.5 0-.7-.3-.7-.7 0-.2.1-.5-.1-.7-.1-.1-.2-.1-.3-.1-.1 0-.2.1-.2.2v.6c0 .7-.1.8-.8.8-.4 0-.7-.1-.7-.6 0-2.3.1-4.6.6-6.8.2-.8.3-.9 1.1-.9.9 0 .9 0 1.2.9.5 1.3.6 2.9.6 4.5z"/><path fill="#fffeff" d="M43.7 163.13c.1-.9-.3-1.5-.8-2s-1.1-1-1.2-1.8c-.1-.6 0-1.1.2-1.6s.5-.7 1-.8h1c1 .1 1.7 1.5 1.3 2.3-.2.4-.6.2-1 .2-.3 0-.5-.1-.5-.4v-.8c0-.2-.1-.3-.3-.3-.1 0-.3.1-.3.3-.1.6 0 1.1.4 1.6.2.3.5.5.7.8 1.1 1.1 1.2 2.4.8 3.7-.1.6-.5.9-1 .9-.6.1-1.1.2-1.7-.2-.5-.4-1-2.2-.7-2.8.2-.4.6-.2 1-.2.3 0 .4.2.5.5v1.4c0 .1.1.3.2.3.2 0 .3-.1.3-.3.1-.2.1-.5.1-.8z"/><path fill="#fefefe" d="M96.1 158.03h-.2c-1.3 0-1.3 0-1.2 1.3 0 .4.1.7.6.7.2 0 .4 0 .5.1.3.1.3.3.3.6s-.2.3-.4.4c-.3 0-.7-.1-.9.2-.2.3-.1.7-.1 1v.6c0 .4-.1.8.1 1.1.2.4.7.2 1 .2.3 0 .4.2.4.5s-.1.5-.4.5h-2c-.3 0-.5-.2-.5-.6v-6.9c0-.7 0-.8.8-.8h2.1c.2.4.2.8-.1 1.1zm49.6 0h-.3c-1.2 0-1.1 0-1.1 1.2 0 .5.2.8.7.8.1 0 .3 0 .4.1.3.1.3.3.3.6s-.2.3-.4.4c-.3 0-.7-.1-.9.2-.2.3-.1.7-.1 1v.6c0 .4-.1.8.1 1.1.2.4.7.2 1 .2.3 0 .4.2.4.5s-.1.5-.4.5h-2c-.3 0-.5-.2-.5-.6v-7c0-.7 0-.8.8-.8h2.1c.3.5.3.9-.1 1.2z"/><path fill="#fdfdfd" d="M174.5 161.13v-3.4c0-.5.1-.8.7-.8h1.6c.3 0 .6 0 .7.5 0 .4-.2.6-.6.6-.3 0-.7-.1-.8.2-.1.5-.1 1 0 1.5.1.2.3.2.5.2.4 0 .7 0 .7.6 0 .5-.3.5-.6.5-.5 0-.7.2-.7.7v1.8c0 .5.2.7.7.7h.4c.3 0 .4.3.4.5 0 .3-.1.5-.4.5h-1.9c-.5 0-.6-.2-.6-.6-.1-1.1-.1-2.3-.1-3.5z"/><path fill="#fefefe" d="M87.6 161.13v-3.4c0-.5.2-.7.7-.7H90c.3 0 .6.1.6.5 0 .3-.2.5-.5.6-.3 0-.7-.1-.9.2-.2.3-.1.8-.1 1.2 0 .4.1.6.6.6.4 0 .7 0 .7.5s-.3.6-.7.5c-.5 0-.6.2-.6.7v1.7c0 .8 0 .8.7.8.4 0 .8 0 .7.5 0 .5-.4.5-.8.5-2.7 0-2.1.4-2.2-2.1.1-.7.1-1.4.1-2.1z"/><path fill="#99c0e7" d="M74.6 168.53c0 .2 0 .4.1.5.9 2.4.9 5 1.4 7.5 0 .1.1.3-.2.4-.2-.4-.5-.7-.7-1.1-.4-.7-.8-1.3-1.2-2-.6-.8-1-1.7-1.1-2.7-.1-1.1-.4-2.2-.5-3.2h2.1c0 .1 0 .3.1.6z"/><path fill="#fefefe" d="M57.6 161.13v-3.4c0-.7 0-.7.8-.8h1.3c.4 0 .7 0 .7.5 0 .4-.3.5-.6.5s-.6-.1-.7.3c0 .5-.2 1 .1 1.5.1.2.4.2.7.2.4 0 .5.2.5.5 0 .4-.2.5-.5.5-.8.1-.8.1-.8.9v1.3c0 .8 0 .9.9 1 .4.1.5.3.4.6 0 .3-.2.4-.5.5h-.1c-2.2.2-2.2.2-2.2-2v-2.1zm75.6-.1v-3.3c0-.5.1-.8.7-.8h1.4c.3 0 .7 0 .7.4 0 .5-.2.6-.6.6-.3 0-.6 0-.7.4 0 .5-.2 1 .1 1.4.1.2.4.1.6.1.4 0 .6.1.6.6 0 .4-.2.4-.5.5-.8.1-.8.1-.8.9v1.2c0 .3-.1.7.1.9.2.3.5.2.8.2.4 0 .4.3.4.6s-.2.4-.5.4h-1.7c-.5 0-.6-.2-.6-.6v-3.5z"/><path fill="#fdfdfd" d="M3.7 161.03v-3.3c0-.5.2-.8.7-.8h1.7c.3 0 .5.2.5.5s-.1.5-.5.5h-.5c-.3 0-.4.2-.4.5v.6c-.1.6.1.9.8.8.4 0 .6.2.5.6 0 .3-.2.4-.5.5-.8.2-.8.2-.8 1v2.6c0 .7-.1.7-.7.7s-.7-.1-.7-.7c-.1-1.1-.1-2.3-.1-3.5z"/><path fill="#fff" d="M149.6 161.13v-3.4c0-.5.2-.7.7-.7h1.6c.3 0 .5.1.5.5 0 .3-.1.5-.5.5h-.5c-.3 0-.4.2-.5.5v.8c0 .4.2.7.6.6h.4c.3.1.4.3.4.5 0 .3-.1.5-.4.5h-.5c-.3 0-.5.2-.5.5v2.2c0 .4.2.5.5.5h.6c.3 0 .3.3.3.5s0 .4-.3.5h-.4c-2.5 0-2 .3-2.1-2 .1-.5.1-1.3.1-2z"/><path fill="#fefefe" d="M55.5 157.03h.9c.3 0 .5 0 .6.3 0 .2.1.6-.2.7-.5.2-.4.6-.4.9v5.5c0 .7-.5 1-1.2.8-.4-.1-.3-.4-.3-.7v-5.8c0-.4 0-.7-.5-.8-.4-.1-.4-.4-.3-.7 0-.3.3-.3.6-.4.2.2.5.2.8.2z"/><path fill="#fefdfe" d="M116.8 161.13v-3.4c0-.7.1-.7.7-.7s.7.1.7.7v5.5c0 .9 0 .9.9 1 .3 0 .6.1.6.5s-.2.6-.6.6h-1.7c-.5 0-.6-.2-.6-.6v-3.6z"/><path fill="#fefefe" d="M84.4 161.03v-3.4c0-.6.1-.7.8-.7.5 0 .7.1.7.7v5.4c0 .9 0 .9.9 1.2.3.1.4.3.4.5 0 .3-.1.5-.4.5h-.1c-2.2.3-2.2.2-2.2-2-.1-.7-.1-1.4-.1-2.2z"/><path fill="#fff" d="M96.4 157.03h2.3c.2 0 .5 0 .6.3 0 .3.1.6-.3.7-.6.1-.5.5-.5.9v5.8c0 .5-.3.6-.7.6-.4 0-.6-.2-.6-.6v-5.8c0-.6-.2-.9-.8-.8-.2-.4-.2-.8 0-1.1zm49.6 0h2.3c.2 0 .5 0 .6.3 0 .3.1.6-.3.7-.6.1-.5.5-.5.9v5.8c0 .5-.3.6-.7.6-.4 0-.6-.2-.6-.6v-5.8c0-.6-.2-.9-.8-.8-.2-.4-.2-.8 0-1.1zm-119.8 4.6v-2.8c0-.4 0-.8-.5-.9-.3 0-.3-.4-.3-.6 0-.3.2-.4.5-.4h1.9c.3 0 .5 0 .5.4 0 .2.1.6-.2.6-.6.1-.6.5-.6 1v5.6c0 .4 0 .7-.6.7s-.8-.1-.8-.7c.1-.9.1-1.9.1-2.9z"/><path fill="#fefefe" d="M158.7 161.13v3.4c0 .7-.1.7-.7.7-.7 0-.7-.1-.8-.7v-6.9c0-.6.1-.7.8-.7.5 0 .7.1.7.7v3.5zm-85.6.1v3.3c0 .7-.1.7-.7.7-.7 0-.8-.1-.8-.7v-6.9c0-.6.1-.7.8-.7.6 0 .7.1.7.8v3.5z"/><path fill="#fdfdfd" d="M126.6 161.03v-3.3c0-.7.1-.7.7-.8.7 0 .8.1.8.7v6.9c0 .6-.1.7-.8.7-.6 0-.7-.1-.7-.7v-3.5z"/><path fill="#fff" d="M115.9 161.22v3.4c0 .6-.1.7-.8.7-.5 0-.7-.1-.7-.7v-7c0-.5.3-.6.7-.6.6 0 .7.1.8.7.1 1.1 0 2.3 0 3.5z"/><path fill="#fdfdfd" d="M121.5 161.13v3.4c0 .5-.1.7-.7.7s-.8-.1-.8-.7v-7c0-.5.3-.6.7-.6.4 0 .8 0 .8.6v3.6zm46.6 0v-3.4c0-.6.1-.7.8-.7.6 0 .7.1.7.7v6.7c0 .7-.1.8-.8.8-.5 0-.7-.2-.7-.7v-3.4z"/><path fill="#fff" d="M29 161.03v-3.4c0-.5.3-.7.7-.7.5 0 .6.2.6.6v7c0 .5-.3.7-.7.7-.5 0-.6-.2-.6-.6v-3.6z"/><path fill="#f6f5f6" d="M145.2 155.53c0 .4-.2.6-.4.8-.2.2-.4.2-.7.1-.2 0-.2-.2-.2-.3.1-.3.1-.6.5-.7.2 0 .5 0 .8.1z"/><path fill="#f8f8f8" d="M151.9 155.53c-.2.5-.4.9-.9 1-.2 0-.4 0-.5-.2-.1-.1 0-.3 0-.4.3-.6.8-.5 1.4-.4z"/><path fill="#f8f7f8" d="M60 155.53c-.3.5-.5.8-1 1-.1 0-.3 0-.4-.1-.1-.1-.1-.2 0-.4.2-.5.4-.6 1.4-.5z"/><path fill="#ccc9c9" d="M146 157.03v1h-.3v-1h.3zm-49.6 0v1h-.3v-1h.3z"/><path fill="#e8e7e7" d="M18.4 158.22c0 .1 0 .3-.2.3s-.2-.3-.2-.5c.1.1.2.2.4.2z"/><path fill="#fefefe" d="M68.7 94.92v-7.7c0-1 0-1 1.1-1H72c1.6.1 2.7.9 3.4 2.3.4.8.6 1.7.7 2.6.3 2.8.3 5.7-.2 8.5-.1.6-.2 1.1-.5 1.6-.6 1.3-1.6 2.1-3 2.3-1.1.1-2.1.1-3.2.1-.6 0-.6-.4-.6-.8v-5.7c.1-.8.1-1.5.1-2.2z"/><path fill="#fbe200" d="M78.1 29.63c-.8 0-1.5.2-2.3.6-1.8.8-3.6 1.5-5.5 1.6-.9.1-1.9.2-2.8.2-1.1 0-2.2-.2-3.2-.5-.5-.1-1-.3-1.3-.8 1.3-.5 2.8-.6 4.2-.7 3.4-.4 6.9-.6 10.3-.4.1-.1.4-.2.6 0z"/><path fill="#f2e500" d="M60.8 24.23v-3.9c1.2 1.6 2.6 2.6 4.3 3.2-.3.2-.7 0-.9.3-1.1.2-2.3.5-3.4.4z"/><path fill="#fdd300" d="M83.8 30.43c-.3 0-.7.1-.9-.2.3 0 .7 0 .9.2z"/><path fill="#fbe200" d="M62.7 30.73c-.2.3-.6.2-.9.2.3-.3.6-.2.9-.2z"/><path fill="#f3e500" d="M79.3 22.13c.2-.2.4-.2.6-.2-.1.2-.3.2-.6.2z"/><path fill="#e9f5fb" d="M132.9 37.42c0 .3-.1.4-.3.4-.3 0-.5-.1-.5-.4 0-.2 0-.5.3-.5.4 0 .4.4.5.5zm1-2.2c0-.1.1-.2.2-.2.2 0 .3 0 .3.2 0 .1.2.2-.1.2-.1-.1-.3 0-.4-.2zm-1.2-.2c0 .1-.1.2-.2.2s-.2-.1-.1-.2c0-.1.1-.2.2-.2.1.1.1.2.1.2zm1.6 1c0-.1 0-.1.1-.1.1.1 0 .1-.1.1z"/><path fill="#cfeaf4" d="M85.7 177.32l.1.1c0 .1-.1.1-.1.1s-.1 0-.1-.1 0-.1.1-.1z"/><path fill="#fae500" d="M80 5.72c.2.1.2.3.2.4-.2 0-.2-.2-.2-.4zM73.1.82c.2 0 .3 0 .4.2-.1 0-.3 0-.4-.2zm.7.2c.2 0 .3 0 .4.2-.2.1-.3 0-.4-.2zm-1.1-.4l.2.2-.2-.2zm7.5 5.6l.2.2-.2-.2zm-5.6-4.7l.2.2c0-.1-.1-.2-.2-.2zm.5.2l.2.2c-.1-.1-.2-.1-.2-.2zm.4.2l.2.2c-.1-.1-.2-.1-.2-.2zm.4.2l.2.2c-.1 0-.1-.1-.2-.2zm.2.2l.2.2-.2-.2zm.4.2l.2.2-.2-.2zm.3.3l.2.2-.2-.2zm.6.4l.2.2c-.1-.1-.1-.2-.2-.2zm.2.2l.2.2-.2-.2zm.6.6l.2.2-.2-.2zm.3.2l.2.2c-.1 0-.2-.1-.2-.2zm.4.5l.2.2c-.1-.1-.1-.2-.2-.2zm.8.8l.2.2-.2-.2z"/><path fill="#faee77" d="M74.2 14.82c.3 3.3-2.9 6.3-6 6.1-1.6-.1-3-.5-4-1.6-1.3-1.2-1.9-2.8-1.9-4.7 0-3.3 3.2-5.9 5.9-5.9 3.5 0 6.3 3.1 6 6.1z"/><path fill="#bdbaba" d="M172.2 160.03c-.3-.6-.3-1.3 0-2.1.3.9.3 1.5 0 2.1z"/><path fill="#c4c1c1" d="M131.1 159.13v.4c0 .2-.1.5-.4.5-.3 0-.2-.3-.2-.5v-1.1c0-.1 0-.3.2-.3s.3.1.4.3v.7z"/><path fill="#c5c2c1" d="M154.5 159.03c.1-.3-.2-.9.3-.9s.4.5.4.8c0 .4.2 1.1-.3 1.1-.7 0-.3-.6-.4-1z"/><path fill="#bcb9b9" d="M8.7 158.03c.3 0 .3.1.3.2v5.5c0 .2 0 .4-.3.5-.4-.6-.2-1.3-.2-2-.1-.7 0-1.5 0-2.2.1-.7 0-1.4.2-2z"/><path fill="#bdbab9" d="M33.3 161.22v2.4c0 .2 0 .6-.3.6s-.3-.3-.3-.6v-5c0-.3-.1-.7.3-.7.3 0 .3.4.3.7v2.6z"/><path fill="#c6c3c3" d="M12.6 159.13v-.7c0-.2.1-.3.3-.2.1 0 .2.1.2.2.1.6.1 1.1 0 1.7 0 .1-.1.2-.2.2-.2 0-.3-.1-.3-.2.1-.5.1-.8 0-1z"/><path fill="#c0bebd" d="M47.8 159.53c0 1 .1 2 0 2.9 0 0-.1.1-.2.1s-.2-.1-.2-.1c-.2-1 0-2 0-2.9.1-.1.2-.1.4 0z"/><path fill="#dedcdc" d="M47.8 159.53h-.4v-.4c0-.1 0-.3.2-.3s.2.2.3.3c-.1.2-.1.3-.1.4z"/><path fill="#bebbba" d="M23.4 158.93c.5 1.1.3 2.3.3 3.4 0 .1 0 .2-.2.2s-.3-.1-.3-.2c-.1-.1-.1-.3-.1-.4.3-.9.1-1.9.3-3z"/><path fill="#c8c5c4" d="M103.8 159.32c.1.9-.1 1.8.2 2.7v.2c0 .2-.1.3-.3.4-.2 0-.3-.2-.3-.4v-2.3c.3-.1-.2-.6.4-.6z"/><path fill="#cfcccc" d="M103.8 159.32c-.3.1-.1.5-.4.6 0-.4-.1-.8.3-1.1.2.2.1.4.1.5z"/><path fill="#bdbbba" d="M165.8 160.82v1.5c0 .2-.1.4-.3.3-.2 0-.3-.2-.3-.4v-.3c.2-.8.1-1.6.2-2.4.6.3.1.9.4 1.3z"/><path fill="#cdcaca" d="M165.8 160.82c-.4-.3 0-.9-.4-1.3v-.7c.4.6.4.6.4 2z"/><path fill="#cac7c6" d="M64.7 158.82c.3 1.2.3 2.3.3 3.4 0 .2 0 .5-.4.5-.3 0-.3-.3-.3-.5.1-1.2.1-2.2.4-3.4z"/><path fill="#c9c7c6" d="M82 158.72c.3 1.2.4 2.2.3 3.2 0 .3.1.7-.3.7-.5 0-.3-.4-.3-.7-.1-1 0-2 .3-3.2z"/><path fill="#cccac9" d="M124.2 158.93c.1 1 .4 1.9.3 2.9v.6c0 .2-.1.3-.3.3-.2 0-.3-.1-.3-.2-.1-1.3-.2-2.5.3-3.6z"/><path fill="#a2d9f1" d="M69.9 94.83v-6.3c0-1.3-.1-1.2 1.3-1.2 1 0 2 .2 2.6 1 .3.4.6.8.7 1.3.2 1.2.5 2.3.5 3.6 0 2.2.1 4.4-.4 6.5-.4 1.8-1.1 2.5-3.2 2.6-1.7.1-1.5.1-1.5-1.4v-6.1z"/><path fill="#faf087" d="M68.3 20.23c-3.6.1-5.5-2.4-5.5-5.4 0-3.1 2.2-5.5 5.5-5.4 3.4.1 5.2 2 5.4 5.3.2 3-2.6 5.8-5.4 5.5z"/><path fill="#fbf29c" d="M68.2 19.63c-2.4.4-4.9-2.2-4.8-4.7.1-2.7 1.9-4.9 4.7-4.9 2.9 0 4.9 2 5 4.8.1 2.7-2.6 5.2-4.9 4.8z"/><path fill="#fbf4ad" d="M68.2 10.82c2.4-.3 4.1 2.1 4.1 4.1.1 2.3-2.3 4-4.1 4.1-1.7 0-4.3-1.9-4.1-4.2.3-2.3 1.7-4 4.1-4z"/><path fill="#fcf6bc" d="M64.8 14.72c0-2 1.3-3.1 3.4-3.2 1.9-.1 3.5 1.7 3.4 3.4-.1 2-1.5 3.5-3.6 3.5-1.8-.1-3.2-1.7-3.2-3.7z"/><path fill="#fdf7c6" d="M68.2 17.73c-1.3.2-2.8-1-2.9-2.7-.1-1.5 1.3-3 2.8-3 1.7 0 3.2 1.4 3.1 3.1-.1 1.1-1.4 2.9-3 2.6z"/><path fill="#fefad9" d="M68.2 17.02c-1.3 0-2.3-1-2.3-2.2 0-1 1.2-2.2 2.2-2.2 1.2 0 2.5 1.1 2.4 2.2 0 .9-.7 2.3-2.3 2.2z"/><path fill="#fefbe6" d="M68.1 16.43c-.7 0-1.4-.8-1.4-1.6s.6-1.4 1.5-1.4c.7 0 1.5.8 1.4 1.5.1.8-.7 1.5-1.5 1.5z"/><path fill="#fffdf3" d="M68.2 14.03c.6 0 .9.2.8.8 0 .5-.4.9-.8.9-.5 0-.8-.4-.8-.9s.2-.8.8-.8z"/></svg>
